<?xml version="1.0" encoding="UTF-8" standalone="no"?>
<svg
   width="179.03999pt"
   height="109.919998pt"
   viewBox="0 0 179.03999 109.919998"
   version="1.1"
   id="svg109"
   xmlns="http://www.w3.org/2000/svg"
   xmlns:svg="http://www.w3.org/2000/svg">
  <defs
     id="defs5">
    <clipPath
       id="clip-0">
      <path
         clip-rule="nonzero"
         d="M 152 76 L 179 76 L 179 103 L 152 103 Z M 152 76 "
         id="path2" />
    </clipPath>
  </defs>
  <path
     fill="none"
     stroke-width="1"
     stroke-linecap="butt"
     stroke-linejoin="miter"
     stroke="rgb(72.158813%, 32.939148%, 31.369019%)"
     stroke-opacity="1"
     stroke-miterlimit="10"
     d="M 46.00236 47.999938 L 206.001562 47.999938 "
     transform="matrix(0.748954, 0, 0, 0.748954, 0.374477, 0.374477)"
     id="path7" />
  <path
     fill="none"
     stroke-width="1"
     stroke-linecap="butt"
     stroke-linejoin="miter"
     stroke="rgb(72.158813%, 32.939148%, 31.369019%)"
     stroke-opacity="1"
     stroke-miterlimit="10"
     d="M 46.00236 58.999655 L 206.001562 58.999655 "
     transform="matrix(0.748954, 0, 0, 0.748954, 0.374477, 0.374477)"
     id="path9" />
  <path
     fill="none"
     stroke-width="1"
     stroke-linecap="butt"
     stroke-linejoin="miter"
     stroke="rgb(72.158813%, 32.939148%, 31.369019%)"
     stroke-opacity="1"
     stroke-miterlimit="10"
     d="M 45.000963 99.999548 L 205.000165 99.999548 "
     transform="matrix(0.748954, 0, 0, 0.748954, 0.374477, 0.374477)"
     id="path11" />
  <path
     fill="none"
     stroke-width="1"
     stroke-linecap="butt"
     stroke-linejoin="miter"
     stroke="rgb(72.158813%, 32.939148%, 31.369019%)"
     stroke-opacity="1"
     stroke-miterlimit="10"
     d="M 68.997975 58.999655 L 68.997975 99.999548 "
     transform="matrix(0.748954, 0, 0, 0.748954, 0.374477, 0.374477)"
     id="path13" />
  <path
     fill="none"
     stroke-width="1"
     stroke-linecap="butt"
     stroke-linejoin="miter"
     stroke="rgb(72.158813%, 32.939148%, 31.369019%)"
     stroke-opacity="1"
     stroke-miterlimit="10"
     d="M 102.002341 58.999655 L 102.002341 99.999548 "
     transform="matrix(0.748954, 0, 0, 0.748954, 0.374477, 0.374477)"
     id="path15" />
  <path
     fill="none"
     stroke-width="1"
     stroke-linecap="butt"
     stroke-linejoin="miter"
     stroke="rgb(72.158813%, 32.939148%, 31.369019%)"
     stroke-opacity="1"
     stroke-miterlimit="10"
     d="M 157.000926 58.999655 L 157.000926 99.999548 "
     transform="matrix(0.748954, 0, 0, 0.748954, 0.374477, 0.374477)"
     id="path17" />
  <path
     fill="none"
     stroke-width="1"
     stroke-linecap="butt"
     stroke-linejoin="miter"
     stroke="rgb(72.158813%, 32.939148%, 31.369019%)"
     stroke-opacity="1"
     stroke-miterlimit="10"
     d="M 102.002341 68.997975 L 157.000926 68.997975 "
     transform="matrix(0.748954, 0, 0, 0.748954, 0.374477, 0.374477)"
     id="path19" />
  <path
     fill="none"
     stroke-width="1"
     stroke-linecap="butt"
     stroke-linejoin="miter"
     stroke="rgb(72.158813%, 32.939148%, 31.369019%)"
     stroke-opacity="1"
     stroke-miterlimit="10"
     d="M 121.998982 68.997975 L 121.998982 87.998434 "
     transform="matrix(0.748954, 0, 0, 0.748954, 0.374477, 0.374477)"
     id="path21" />
  <path
     fill="none"
     stroke-width="1"
     stroke-linecap="butt"
     stroke-linejoin="miter"
     stroke="rgb(72.158813%, 32.939148%, 31.369019%)"
     stroke-opacity="1"
     stroke-miterlimit="10"
     d="M 121.998982 79.001511 L 142.000838 79.001511 "
     transform="matrix(0.748954, 0, 0, 0.748954, 0.374477, 0.374477)"
     id="path23" />
  <path
     fill-rule="nonzero"
     fill="rgb(42.349243%, 55.688477%, 74.899292%)"
     fill-opacity="1"
     stroke-width="13.104824"
     stroke-linecap="butt"
     stroke-linejoin="miter"
     stroke="rgb(42.349243%, 55.688477%, 74.899292%)"
     stroke-opacity="0.1137"
     stroke-miterlimit="4"
     d="M 52.002989 288.827692 C 56.695472 316.982585 74.612223 349.159605 106.179833 385.805656 C 137.320853 422.451707 176.140481 441.221636 222.212127 442.115442 C 245.247951 442.115442 266.577416 435.858799 286.200525 423.792416 C 305.397044 412.172937 319.474492 396.978232 328.859457 379.10211 C 357.014352 421.110998 390.714908 442.115442 429.961125 442.115442 C 454.703306 442.115442 476.032772 434.51809 493.949523 420.217192 C 511.866274 405.469391 521.251239 385.805656 522.104418 360.779085 C 522.104418 341.562253 517.411936 325.920646 508.026971 313.854263 C 498.642006 301.78788 489.68363 294.637431 481.151843 291.956013 C 472.193468 289.274595 464.51486 287.933886 458.11602 287.933886 C 445.318341 287.933886 435.080197 291.50911 426.975 299.106462 C 418.869803 306.256911 415.030499 316.088778 415.030499 328.155161 C 415.030499 358.544569 431.667483 379.549013 464.941449 391.168493 C 457.689431 399.659651 444.465162 404.128681 424.842053 404.128681 C 416.310267 404.128681 409.911427 403.234875 406.072123 401.894166 C 380.476764 391.168493 362.133424 369.270243 350.188923 336.199416 C 310.089527 188.721406 290.039829 102.469115 290.039829 77.889447 C 290.039829 59.119518 295.158901 46.159329 305.823634 38.115074 C 316.488367 30.070819 328.432868 26.048692 340.803958 26.048692 C 365.546138 26.048692 389.861729 37.221268 414.177321 59.119518 C 438.066322 81.017768 454.276716 107.831952 462.808503 140.008972 C 464.941449 146.712518 467.074396 150.287743 469.207343 151.181549 C 470.9137 151.628452 476.459361 152.522258 484.991147 152.969161 L 488.830451 152.969161 C 499.068595 152.969161 504.187667 150.287743 504.187667 144.924906 C 504.187667 144.478003 503.334488 140.455875 502.05472 134.199233 C 491.389987 96.212472 470.487111 62.24784 440.199269 33.199141 C 409.484838 3.703539 373.651335 -11.044262 333.12535 -11.044262 C 286.200525 -11.044262 250.793612 9.960182 226.90461 51.969069 C 199.602894 10.853988 168.461873 -10.150456 133.05496 -10.150456 L 127.082709 -10.150456 C 94.235332 -10.150456 71.199509 -1.212395 57.122061 16.216824 C 43.044614 33.199141 35.792595 51.522166 34.939417 71.185901 C 34.939417 92.190345 41.338256 109.619564 54.135936 123.026656 C 66.507026 136.433748 81.864242 143.137294 98.927814 143.137294 C 127.509299 143.137294 142.013336 128.836396 142.013336 101.128406 C 142.013336 87.721314 138.174032 76.101835 130.068835 65.823064 C 121.963638 55.991197 114.28503 49.287651 107.033011 46.159329 C 99.780993 42.584105 95.5151 40.796493 93.808743 40.796493 L 90.822617 39.902687 C 90.822617 39.455784 92.955564 38.115074 96.794868 35.880559 C 101.060761 34.092947 106.179833 31.858432 113.005262 29.177013 C 119.830691 26.495595 125.802941 25.154886 132.201781 26.048692 C 156.090783 26.048692 176.56707 40.796493 194.057232 71.185901 C 200.029483 81.464671 207.708091 104.256727 217.093056 139.115166 C 226.478021 173.526702 235.862986 209.72585 244.821361 246.818804 C 254.206326 284.358661 259.751987 306.256911 261.031755 312.960457 C 264.44447 330.836579 266.150827 343.796768 266.150827 351.841023 C 266.150827 370.610952 261.031755 384.018044 250.793612 392.062299 C 240.982057 400.106554 229.464146 404.128681 217.093056 404.128681 C 190.217929 404.128681 165.475748 393.403008 142.013336 371.951661 C 118.550923 350.500314 102.340529 323.239227 92.955564 290.168401 C 91.675796 283.911758 89.969439 280.783437 87.836492 279.88963 C 86.130135 279.442727 80.584474 278.548921 72.052687 278.102018 L 57.97524 278.102018 C 54.135936 282.124146 52.002989 285.69937 52.002989 288.827692 Z M 52.002989 288.827692 "
     transform="matrix(0.00915693, 0, 0, -0.00874071, 83.137093, 98.23159)"
     id="path25" />
  <path
     fill-rule="nonzero"
     fill="rgb(42.349243%, 55.688477%, 74.899292%)"
     fill-opacity="1"
     stroke-width="18.535819"
     stroke-linecap="butt"
     stroke-linejoin="miter"
     stroke="rgb(42.349243%, 55.688477%, 74.899292%)"
     stroke-opacity="0.0784"
     stroke-miterlimit="4"
     d="M 183.836766 599.829176 C 183.836766 616.264083 190.473941 630.170543 203.144911 642.180668 C 215.815881 654.190792 230.296989 660.51191 247.191615 661.144022 C 259.259206 661.144022 268.913278 656.71924 276.757212 649.133898 C 285.204525 640.916444 289.428181 630.802655 290.031561 618.792531 C 290.031561 603.621847 283.394386 589.715387 270.120037 577.073151 C 256.845688 564.430914 241.7612 557.477684 226.073332 556.845573 C 215.815881 556.845573 206.765188 560.638244 197.714495 566.959362 C 189.267182 573.912592 184.440146 584.658493 183.836766 599.829176 Z M 20.924297 286.933827 C 20.924297 292.622834 23.941195 302.736623 29.97499 317.907306 C 36.008785 333.07799 43.852719 350.145009 54.11017 369.108363 C 63.764243 387.439606 78.848731 404.506625 98.156875 420.30942 C 117.46502 435.480104 137.376544 442.433334 157.891447 441.801222 C 183.836766 441.801222 205.558429 434.21588 223.056435 419.045197 C 240.554441 403.874513 249.605133 383.014823 250.208513 357.098239 C 250.208513 345.720226 245.381477 326.756872 235.727405 300.840287 C 226.676712 274.923703 213.402362 240.157553 195.904357 195.909726 C 178.406351 152.29401 164.528622 114.367301 154.27117 82.761711 C 150.650893 68.223139 148.840754 57.477238 148.840754 51.15612 C 148.840754 34.089101 154.874549 25.871647 165.735381 25.871647 C 171.769176 25.871647 178.406351 27.135871 185.043525 29.032206 C 191.6807 30.928542 199.524634 35.353324 207.971947 42.938666 C 216.41926 50.524008 225.469953 61.902021 235.124025 77.704816 C 244.174718 94.139723 252.622031 113.73519 259.862585 137.123327 C 262.276103 144.708669 263.482862 149.765563 265.293001 151.029787 C 266.49976 152.29401 271.930175 152.926122 282.187627 152.926122 C 295.461976 152.926122 302.099151 149.765563 302.099151 142.812333 C 302.099151 137.755439 299.082254 127.64165 293.048458 111.838854 C 287.014663 96.668171 278.56735 79.601152 267.706519 61.269909 C 257.449067 42.306554 242.364579 25.871647 223.056435 10.700964 C 203.74829 -3.837608 183.233387 -10.790838 160.908345 -10.790838 C 139.790062 -10.790838 119.878538 -3.837608 101.777152 10.068852 C 84.279146 23.975312 74.625074 45.467114 74.021694 73.912145 C 74.021694 85.290158 75.831833 96.036059 78.848731 106.149848 C 82.469008 116.263637 96.950116 154.190346 122.292056 219.929975 C 147.633995 287.565939 162.115104 327.388983 165.735381 341.295443 C 169.959037 354.569792 172.372555 367.212028 172.975935 379.854264 C 172.975935 396.289171 167.545519 403.874513 156.081309 403.874513 L 154.27117 403.874513 C 133.756266 403.874513 115.654881 393.128612 98.760255 371.004699 C 82.469008 348.880785 69.798038 321.067865 60.747345 286.933827 C 60.143966 286.301715 59.540586 285.037492 58.937207 283.773268 C 58.333827 282.509045 57.730448 281.876933 57.730448 281.244821 C 57.730448 280.612709 57.127068 279.980597 55.920309 278.716374 C 54.71355 278.084262 53.506791 278.084262 52.903411 278.084262 C 52.300032 278.084262 51.093273 278.084262 49.283134 278.084262 C 46.869616 278.084262 44.456098 278.084262 40.835821 278.084262 L 26.958092 278.084262 C 22.734436 281.876933 20.924297 285.037492 20.924297 286.933827 Z M 20.924297 286.933827 "
     transform="matrix(0.00647395, 0, 0, -0.00617968, 88.677037, 99.542691)"
     id="path27" />
  <path
     fill="none"
     stroke-width="1"
     stroke-linecap="butt"
     stroke-linejoin="miter"
     stroke="rgb(42.349243%, 55.688477%, 74.899292%)"
     stroke-opacity="1"
     stroke-miterlimit="10"
     d="M 117.998611 124.997956 L 136.039398 87.0179 "
     transform="matrix(0.748954, 0, 0, 0.748954, 0.374477, 0.374477)"
     id="path29" />
  <path
     fill="none"
     stroke-width="1"
     stroke-linecap="butt"
     stroke-linejoin="miter"
     stroke="rgb(42.349243%, 55.688477%, 74.899292%)"
     stroke-opacity="1"
     stroke-miterlimit="10"
     d="M 136.680918 93.829484 L 136.519234 86.011288 L 130.359601 90.830509 "
     transform="matrix(0.748954, 0, 0, 0.748954, 0.374477, 0.374477)"
     id="path31" />
  <path
     fill="none"
     stroke-width="1"
     stroke-linecap="butt"
     stroke-linejoin="miter"
     stroke="rgb(0%, 0%, 0%)"
     stroke-opacity="1"
     stroke-miterlimit="10"
     d="M 26.000504 118.681855 L 219.629945 118.681855 "
     transform="matrix(0.748954, 0, 0, 0.748954, 0.374477, 0.374477)"
     id="path33" />
  <path
     fill-rule="nonzero"
     fill="rgb(0%, 0%, 0%)"
     fill-opacity="1"
     d="M 168.800781 89.261719 L 163.554688 91.882813 L 164.867188 89.261719 L 163.554688 86.640625 Z M 168.800781 89.261719 "
     id="path35" />
  <g
     clip-path="url(#clip-0)"
     id="g39">
    <path
       fill="none"
       stroke-width="1"
       stroke-linecap="butt"
       stroke-linejoin="miter"
       stroke="#000000"
       stroke-opacity="1"
       stroke-miterlimit="10"
       d="m 224.88206,118.68186 -7.00456,3.49967 1.75244,-3.49967 -1.75244,-3.49968 z m 0,0"
       transform="matrix(0.748954,0,0,0.748954,0.374477,0.374477)"
       id="path37" />
  </g>
  <path
     fill="none"
     stroke-width="1"
     stroke-linecap="butt"
     stroke-linejoin="miter"
     stroke="rgb(0%, 0%, 0%)"
     stroke-opacity="1"
     stroke-miterlimit="10"
     d="M 35.998824 128.680176 L 35.998824 14.369698 "
     transform="matrix(0.748954, 0, 0, 0.748954, 0.374477, 0.374477)"
     id="path41" />
  <path
     fill-rule="nonzero"
     fill="rgb(0%, 0%, 0%)"
     fill-opacity="1"
     stroke-width="1"
     stroke-linecap="butt"
     stroke-linejoin="miter"
     stroke="rgb(0%, 0%, 0%)"
     stroke-opacity="1"
     stroke-miterlimit="10"
     d="M 35.998824 9.117581 L 39.498497 16.122142 L 35.998824 14.369698 L 32.499151 16.122142 Z M 35.998824 9.117581 "
     transform="matrix(0.748954, 0, 0, 0.748954, 0.374477, 0.374477)"
     id="path43" />
  <path
     fill-rule="nonzero"
     fill="rgb(0%, 0%, 0%)"
     fill-opacity="1"
     stroke-width="12.958073"
     stroke-linecap="butt"
     stroke-linejoin="miter"
     stroke="rgb(0%, 0%, 0%)"
     stroke-opacity="0.1059"
     stroke-miterlimit="4"
     d="M 20.754509 287.074931 C 20.754509 296.3548 25.875397 312.383666 36.117175 335.161528 C 45.846863 357.517578 62.233706 381.139065 84.253527 406.025988 C 105.76126 430.491099 130.853614 442.723654 157.994323 441.88003 C 185.135033 441.88003 207.154854 434.287409 224.053786 419.102168 C 240.44063 403.495114 249.14614 382.404501 250.170318 354.986704 C 248.634052 342.332337 247.609874 335.161528 247.097785 333.896091 C 247.097785 332.208842 241.464807 316.601789 231.22303 287.918555 C 220.469164 259.235322 209.203209 227.17759 197.937254 190.901736 C 186.671299 155.047694 181.550411 126.36446 182.0625 104.852035 C 182.0625 76.168801 186.671299 56.343625 195.888899 44.954694 C 205.106498 33.565763 219.444987 27.660391 237.880185 26.816767 C 253.242851 26.816767 267.581339 30.613077 280.89565 38.205698 C 294.20996 45.376506 304.451737 52.969127 312.13307 60.98356 C 319.302314 68.997993 328.519914 79.965112 338.761691 93.884916 C 338.761691 94.728541 340.810046 101.477537 343.88258 114.131905 C 347.467202 126.786272 352.076001 146.189636 358.221068 173.185621 C 363.854045 199.759793 370.5112 224.224904 377.168355 247.002766 C 402.26071 346.972272 416.087109 399.276992 419.159642 403.916927 C 427.865153 422.054854 442.203641 430.912911 462.175106 430.912911 C 470.880617 430.912911 477.537772 428.80385 483.170749 424.163915 C 488.291638 419.52398 491.87626 415.305857 493.924616 411.931359 C 495.972971 408.556861 496.48506 405.604176 495.972971 403.073302 C 495.972971 394.215245 479.586127 324.19441 446.81244 193.010797 C 414.550842 61.827184 395.603554 -10.302712 390.994755 -22.95708 C 372.559556 -78.214486 339.785869 -122.504773 294.20996 -154.984317 C 248.121963 -187.463861 202.033965 -204.336351 155.945968 -205.179976 C 126.244814 -205.179976 99.616193 -197.587355 77.084283 -182.823926 C 54.552374 -168.482309 42.77433 -146.126259 42.77433 -117.021213 C 42.77433 -102.257784 45.334774 -90.025229 49.943574 -79.901735 C 54.552374 -70.200053 61.209529 -62.607432 68.890862 -57.967497 C 77.084283 -53.327562 83.741439 -49.953064 88.862327 -47.844003 C 94.495305 -46.156754 100.128282 -44.891317 105.76126 -44.891317 C 135.462413 -44.891317 149.800902 -58.811122 149.800902 -87.072543 C 149.800902 -100.148723 146.21628 -111.959466 138.022858 -122.082961 C 129.829436 -132.206455 122.148103 -138.533639 114.978859 -141.908137 C 107.809615 -145.282635 103.200815 -146.969884 102.176638 -146.969884 L 99.104104 -147.813508 C 100.128282 -151.188006 106.785437 -155.406129 118.051392 -160.046064 C 129.317347 -164.685999 140.583302 -166.79506 151.849257 -166.79506 L 160.042679 -166.79506 C 171.308634 -166.79506 180.014144 -166.373248 186.159211 -165.107811 C 208.179032 -159.202439 228.150497 -146.126259 247.097785 -127.144708 C 265.532984 -107.741344 279.871472 -87.072543 290.113249 -65.138306 C 299.842938 -43.204068 307.52427 -24.222516 313.157248 -9.037275 C 318.278137 6.147966 320.838581 16.27146 320.838581 20.911395 L 315.205603 17.115085 C 311.108892 14.162399 304.451737 10.787901 295.746227 6.147966 C 287.552805 1.508031 278.847294 -2.710091 270.141784 -6.084589 C 256.827473 -9.459087 243.513163 -11.146336 231.22303 -11.146336 C 200.497699 -11.146336 173.356989 -3.553716 149.800902 11.209713 C 126.756903 25.55133 111.394237 49.172817 104.224993 82.074173 C 103.200815 86.714108 103.200815 96.837602 103.200815 112.866468 C 103.200815 150.829571 114.46677 200.603418 138.022858 262.188007 C 161.578945 323.350785 172.8449 362.157513 172.8449 379.030003 C 172.8449 379.873628 172.8449 380.29544 172.8449 381.139065 C 172.8449 387.044436 172.8449 390.840746 172.8449 392.949808 C 172.8449 395.058869 171.820723 397.16793 168.748189 400.120616 C 166.187745 402.65149 162.603123 403.916927 157.994323 403.916927 L 153.897612 403.916927 C 138.534947 403.916927 124.708547 397.589743 111.906326 384.935375 C 99.104104 372.281007 89.374416 358.783015 82.205172 344.019586 C 74.523839 329.256157 68.890862 315.336352 64.794151 301.83836 C 61.209529 288.76218 58.136996 281.169559 57.112818 279.904122 C 55.576551 278.638686 50.455663 277.795061 41.238063 277.795061 L 26.899575 277.795061 C 22.802864 282.013184 20.754509 284.965869 20.754509 287.074931 Z M 20.754509 287.074931 "
     transform="matrix(0.00762807, 0, 0, -0.00926064, 17.978402, 16.076465)"
     id="path45" />
  <path
     fill-rule="nonzero"
     fill="rgb(0%, 0%, 0%)"
     fill-opacity="1"
     stroke-width="12.105773"
     stroke-linecap="butt"
     stroke-linejoin="miter"
     stroke="rgb(0%, 0%, 0%)"
     stroke-opacity="0.1176"
     stroke-miterlimit="4"
     d="M 51.982547 289.003844 C 56.670634 316.982681 74.570602 349.296268 106.108642 385.944604 C 137.220492 422.59294 176.003757 441.50821 222.032247 441.902279 C 245.472682 441.902279 266.782168 435.991257 285.960705 424.169213 C 305.139243 411.953101 319.629694 396.978512 329.005867 378.851378 C 357.134389 421.016668 390.803377 441.902279 430.012832 441.902279 C 454.731836 441.902279 476.041322 434.809052 493.94129 419.834463 C 511.841259 405.253942 521.217433 385.550536 522.069812 361.118312 C 522.069812 341.808973 517.381725 326.046248 508.005551 313.830136 C 498.629377 302.008092 489.679393 294.520797 481.155599 292.156389 C 472.205615 289.397912 464.5342 287.821639 458.141354 287.821639 C 445.355662 287.821639 435.127109 291.76232 427.029504 298.855547 C 418.931899 306.342841 415.096192 316.194545 415.096192 328.016589 C 415.096192 358.753903 431.717591 379.639514 464.960389 391.06749 C 457.715164 399.736989 444.503283 404.071738 424.898555 404.071738 C 416.374761 404.071738 409.981915 403.283602 406.146207 402.101397 C 380.574824 391.461558 361.822476 369.393742 349.889164 335.897951 C 309.82733 188.51647 289.796413 102.609617 289.796413 78.177393 C 289.796413 59.262123 295.336879 45.863807 305.991622 37.982444 C 316.646365 30.101081 328.153488 26.1604 340.93918 26.1604 C 365.658184 26.1604 389.950998 37.194308 413.817622 58.868055 C 438.110437 80.93587 454.305646 108.126571 462.829441 140.04609 C 464.960389 146.745248 467.091338 150.291861 468.796097 151.079998 C 470.927045 151.474066 476.467512 152.262202 484.991306 153.050338 L 488.827014 153.050338 C 499.055567 153.050338 504.169844 150.291861 504.169844 145.168976 C 504.169844 144.380839 503.317464 140.834226 502.038895 134.135068 C 491.384152 95.910459 470.500856 62.414668 439.815196 32.859558 C 409.129536 3.698516 373.755788 -10.882004 332.841575 -10.882004 C 286.386895 -10.882004 251.013148 10.003607 227.146524 52.168897 C 199.870381 10.791743 168.332342 -10.093868 132.958595 -10.093868 L 126.991938 -10.093868 C 94.17533 -10.093868 71.161085 -1.424369 57.096824 15.914629 C 43.032563 33.253626 35.787338 51.774828 34.934958 71.084167 C 34.934958 92.363846 41.327804 109.702844 54.113496 123.10116 C 66.472998 136.499477 81.815828 142.804567 98.863417 142.804567 C 127.844318 142.804567 141.908579 129.012182 141.908579 101.033345 C 141.908579 87.635028 138.072871 75.812984 129.975267 65.961281 C 121.877662 56.109578 114.206247 49.41042 106.961021 45.863807 C 99.715796 42.711261 95.453899 41.134989 94.17533 41.134989 L 91.192002 39.952785 C 91.192002 39.164648 92.896761 37.982444 97.158658 36.012103 C 100.994365 34.041763 106.534832 31.677354 112.927678 28.918877 C 119.746713 26.1604 126.139559 25.372264 132.106215 26.1604 C 155.97284 26.1604 176.856136 41.134989 193.903725 71.084167 C 199.870381 81.724006 207.541796 104.18589 216.91797 138.863886 C 226.294144 173.541881 235.670318 209.796149 245.046492 246.838554 C 254.422666 284.275026 259.536943 306.342841 260.815512 313.042 C 264.225029 331.169134 265.929788 344.173382 265.929788 352.054745 C 265.929788 370.575947 260.815512 383.974263 251.013148 391.855626 C 241.210784 400.131057 229.703662 404.071738 216.91797 404.071738 C 190.494207 404.071738 165.349014 393.431898 141.908579 372.152219 C 118.468144 350.478472 102.272935 323.287771 92.896761 290.186048 C 91.618191 283.880958 89.913433 280.728413 88.208674 279.940277 C 86.077725 279.15214 80.537259 278.758072 72.013464 277.969936 L 57.949203 277.969936 C 54.113496 281.910617 51.982547 285.851299 51.982547 289.003844 Z M 51.982547 289.003844 "
     transform="matrix(0.00916552, 0, 0, -0.00991263, 156.531365, 95.755412)"
     id="path47" />
  <path
     fill-rule="nonzero"
     fill="rgb(0%, 0%, 0%)"
     fill-opacity="1"
     d="M 82.757813 58.554688 C 82.757813 58.851563 82.703125 59.136719 82.589844 59.414063 C 82.472656 59.6875 82.3125 59.929688 82.101563 60.140625 C 81.890625 60.351563 81.648438 60.515625 81.371094 60.628906 C 81.097656 60.742188 80.808594 60.800781 80.511719 60.800781 C 80.214844 60.800781 79.929688 60.742188 79.652344 60.628906 C 79.378906 60.515625 79.132813 60.351563 78.921875 60.140625 C 78.714844 59.929688 78.550781 59.6875 78.4375 59.414063 C 78.324219 59.136719 78.265625 58.851563 78.265625 58.554688 C 78.265625 58.253906 78.324219 57.96875 78.4375 57.695313 C 78.550781 57.417969 78.714844 57.175781 78.921875 56.964844 C 79.132813 56.753906 79.378906 56.589844 79.652344 56.476563 C 79.929688 56.363281 80.214844 56.304688 80.511719 56.304688 C 80.808594 56.304688 81.097656 56.363281 81.371094 56.476563 C 81.648438 56.589844 81.890625 56.753906 82.101563 56.964844 C 82.3125 57.175781 82.472656 57.417969 82.589844 57.695313 C 82.703125 57.96875 82.757813 58.253906 82.757813 58.554688 Z M 82.757813 58.554688 "
     id="path49" />
  <path
     fill-rule="nonzero"
     fill="rgb(0%, 0%, 0%)"
     fill-opacity="1"
     d="M 105.226563 39.828125 C 105.226563 40.128906 105.171875 40.414063 105.058594 40.6875 C 104.941406 40.964844 104.78125 41.207031 104.570313 41.417969 C 104.359375 41.628906 104.117188 41.792969 103.839844 41.90625 C 103.566406 42.019531 103.277344 42.078125 102.980469 42.078125 C 102.683594 42.078125 102.398438 42.019531 102.121094 41.90625 C 101.847656 41.792969 101.601563 41.628906 101.390625 41.417969 C 101.183594 41.207031 101.019531 40.964844 100.90625 40.6875 C 100.792969 40.414063 100.734375 40.128906 100.734375 39.828125 C 100.734375 39.53125 100.792969 39.246094 100.90625 38.96875 C 101.019531 38.695313 101.183594 38.453125 101.390625 38.242188 C 101.601563 38.03125 101.847656 37.867188 102.121094 37.753906 C 102.398438 37.640625 102.683594 37.582031 102.980469 37.582031 C 103.277344 37.582031 103.566406 37.640625 103.839844 37.753906 C 104.117188 37.867188 104.359375 38.03125 104.570313 38.242188 C 104.78125 38.453125 104.941406 38.695313 105.058594 38.96875 C 105.171875 39.246094 105.226563 39.53125 105.226563 39.828125 Z M 105.226563 39.828125 "
     id="path51" />
  <path
     fill-rule="nonzero"
     fill="rgb(0%, 0%, 0%)"
     fill-opacity="1"
     d="M 112.71875 28.59375 C 112.71875 28.894531 112.660156 29.179688 112.546875 29.453125 C 112.433594 29.730469 112.269531 29.972656 112.058594 30.183594 C 111.847656 30.394531 111.605469 30.558594 111.332031 30.671875 C 111.054688 30.785156 110.769531 30.84375 110.472656 30.84375 C 110.171875 30.84375 109.886719 30.785156 109.609375 30.671875 C 109.335938 30.558594 109.09375 30.394531 108.882813 30.183594 C 108.671875 29.972656 108.507813 29.730469 108.394531 29.453125 C 108.28125 29.179688 108.222656 28.894531 108.222656 28.59375 C 108.222656 28.296875 108.28125 28.011719 108.394531 27.734375 C 108.507813 27.460938 108.671875 27.21875 108.882813 27.007813 C 109.09375 26.796875 109.335938 26.632813 109.609375 26.519531 C 109.886719 26.40625 110.171875 26.347656 110.472656 26.347656 C 110.769531 26.347656 111.054688 26.40625 111.332031 26.519531 C 111.605469 26.632813 111.847656 26.796875 112.058594 27.007813 C 112.269531 27.21875 112.433594 27.460938 112.546875 27.734375 C 112.660156 28.011719 112.71875 28.296875 112.71875 28.59375 Z M 112.71875 28.59375 "
     id="path53" />
  <path
     fill-rule="nonzero"
     fill="rgb(0%, 0%, 0%)"
     fill-opacity="1"
     d="M 67.78125 51.0625 C 67.78125 51.363281 67.722656 51.648438 67.609375 51.921875 C 67.496094 52.199219 67.332031 52.441406 67.121094 52.652344 C 66.910156 52.863281 66.667969 53.027344 66.394531 53.140625 C 66.117188 53.253906 65.832031 53.308594 65.535156 53.308594 C 65.234375 53.308594 64.949219 53.253906 64.671875 53.140625 C 64.398438 53.027344 64.15625 52.863281 63.945313 52.652344 C 63.734375 52.441406 63.570313 52.199219 63.457031 51.921875 C 63.34375 51.648438 63.285156 51.363281 63.285156 51.0625 C 63.285156 50.765625 63.34375 50.480469 63.457031 50.203125 C 63.570313 49.929688 63.734375 49.6875 63.945313 49.476563 C 64.15625 49.265625 64.398438 49.101563 64.671875 48.988281 C 64.949219 48.875 65.234375 48.816406 65.535156 48.816406 C 65.832031 48.816406 66.117188 48.875 66.394531 48.988281 C 66.667969 49.101563 66.910156 49.265625 67.121094 49.476563 C 67.332031 49.6875 67.496094 49.929688 67.609375 50.203125 C 67.722656 50.480469 67.78125 50.765625 67.78125 51.0625 Z M 67.78125 51.0625 "
     id="path55" />
  <path
     fill-rule="nonzero"
     fill="rgb(0%, 0%, 0%)"
     fill-opacity="1"
     d="M 97.738281 47.320313 C 97.738281 47.617188 97.679688 47.902344 97.566406 48.179688 C 97.453125 48.453125 97.292969 48.695313 97.082031 48.90625 C 96.871094 49.117188 96.625 49.28125 96.351563 49.394531 C 96.078125 49.507813 95.789063 49.566406 95.492188 49.566406 C 95.195313 49.566406 94.90625 49.507813 94.632813 49.394531 C 94.355469 49.28125 94.113281 49.117188 93.902344 48.90625 C 93.691406 48.695313 93.53125 48.453125 93.414063 48.179688 C 93.300781 47.902344 93.246094 47.617188 93.246094 47.320313 C 93.246094 47.019531 93.300781 46.734375 93.414063 46.460938 C 93.53125 46.183594 93.691406 45.941406 93.902344 45.730469 C 94.113281 45.519531 94.355469 45.355469 94.632813 45.242188 C 94.90625 45.128906 95.195313 45.070313 95.492188 45.070313 C 95.789063 45.070313 96.078125 45.128906 96.351563 45.242188 C 96.625 45.355469 96.871094 45.519531 97.082031 45.730469 C 97.292969 45.941406 97.453125 46.183594 97.566406 46.460938 C 97.679688 46.734375 97.738281 47.019531 97.738281 47.320313 Z M 97.738281 47.320313 "
     id="path57" />
  <path
     fill-rule="nonzero"
     fill="rgb(0%, 0%, 0%)"
     fill-opacity="1"
     d="M 82.757813 69.789063 C 82.757813 70.085938 82.703125 70.371094 82.589844 70.648438 C 82.472656 70.921875 82.3125 71.164063 82.101563 71.375 C 81.890625 71.585938 81.648438 71.75 81.371094 71.863281 C 81.097656 71.976563 80.808594 72.035156 80.511719 72.035156 C 80.214844 72.035156 79.929688 71.976563 79.652344 71.863281 C 79.378906 71.75 79.132813 71.585938 78.921875 71.375 C 78.714844 71.164063 78.550781 70.921875 78.4375 70.648438 C 78.324219 70.371094 78.265625 70.085938 78.265625 69.789063 C 78.265625 69.488281 78.324219 69.203125 78.4375 68.925781 C 78.550781 68.652344 78.714844 68.410156 78.921875 68.199219 C 79.132813 67.988281 79.378906 67.824219 79.652344 67.710938 C 79.929688 67.597656 80.214844 67.539063 80.511719 67.539063 C 80.808594 67.539063 81.097656 67.597656 81.371094 67.710938 C 81.648438 67.824219 81.890625 67.988281 82.101563 68.199219 C 82.3125 68.410156 82.472656 68.652344 82.589844 68.925781 C 82.703125 69.203125 82.757813 69.488281 82.757813 69.789063 Z M 82.757813 69.789063 "
     id="path59" />
  <path
     fill-rule="nonzero"
     fill="rgb(0%, 0%, 0%)"
     fill-opacity="1"
     d="M 90.25 47.320313 C 90.25 47.617188 90.191406 47.902344 90.078125 48.179688 C 89.964844 48.453125 89.800781 48.695313 89.589844 48.90625 C 89.378906 49.117188 89.136719 49.28125 88.863281 49.394531 C 88.585938 49.507813 88.300781 49.566406 88.003906 49.566406 C 87.703125 49.566406 87.417969 49.507813 87.140625 49.394531 C 86.867188 49.28125 86.625 49.117188 86.414063 48.90625 C 86.203125 48.695313 86.039063 48.453125 85.925781 48.179688 C 85.8125 47.902344 85.753906 47.617188 85.753906 47.320313 C 85.753906 47.019531 85.8125 46.734375 85.925781 46.460938 C 86.039063 46.183594 86.203125 45.941406 86.414063 45.730469 C 86.625 45.519531 86.867188 45.355469 87.140625 45.242188 C 87.417969 45.128906 87.703125 45.070313 88.003906 45.070313 C 88.300781 45.070313 88.585938 45.128906 88.863281 45.242188 C 89.136719 45.355469 89.378906 45.519531 89.589844 45.730469 C 89.800781 45.941406 89.964844 46.183594 90.078125 46.460938 C 90.191406 46.734375 90.25 47.019531 90.25 47.320313 Z M 90.25 47.320313 "
     id="path61" />
  <path
     fill-rule="nonzero"
     fill="rgb(0%, 0%, 0%)"
     fill-opacity="1"
     d="M 97.738281 54.808594 C 97.738281 55.105469 97.679688 55.394531 97.566406 55.667969 C 97.453125 55.945313 97.292969 56.1875 97.082031 56.398438 C 96.871094 56.609375 96.625 56.769531 96.351563 56.882813 C 96.078125 57 95.789063 57.054688 95.492188 57.054688 C 95.195313 57.054688 94.90625 57 94.632813 56.882813 C 94.355469 56.769531 94.113281 56.609375 93.902344 56.398438 C 93.691406 56.1875 93.53125 55.945313 93.414063 55.667969 C 93.300781 55.394531 93.246094 55.105469 93.246094 54.808594 C 93.246094 54.511719 93.300781 54.222656 93.414063 53.949219 C 93.53125 53.671875 93.691406 53.429688 93.902344 53.21875 C 94.113281 53.007813 94.355469 52.847656 94.632813 52.734375 C 94.90625 52.617188 95.195313 52.5625 95.492188 52.5625 C 95.789063 52.5625 96.078125 52.617188 96.351563 52.734375 C 96.625 52.847656 96.871094 53.007813 97.082031 53.21875 C 97.292969 53.429688 97.453125 53.671875 97.566406 53.949219 C 97.679688 54.222656 97.738281 54.511719 97.738281 54.808594 Z M 97.738281 54.808594 "
     id="path63" />
  <path
     fill-rule="nonzero"
     fill="rgb(42.349243%, 55.688477%, 74.899292%)"
     fill-opacity="1"
     d="M 105.226563 62.296875 C 105.226563 62.597656 105.171875 62.882813 105.058594 63.15625 C 104.941406 63.433594 104.78125 63.675781 104.570313 63.886719 C 104.359375 64.097656 104.117188 64.261719 103.839844 64.375 C 103.566406 64.488281 103.277344 64.542969 102.980469 64.542969 C 102.683594 64.542969 102.398438 64.488281 102.121094 64.375 C 101.847656 64.261719 101.601563 64.097656 101.390625 63.886719 C 101.183594 63.675781 101.019531 63.433594 100.90625 63.15625 C 100.792969 62.882813 100.734375 62.597656 100.734375 62.296875 C 100.734375 62 100.792969 61.714844 100.90625 61.4375 C 101.019531 61.164063 101.183594 60.917969 101.390625 60.710938 C 101.601563 60.5 101.847656 60.335938 102.121094 60.222656 C 102.398438 60.109375 102.683594 60.050781 102.980469 60.050781 C 103.277344 60.050781 103.566406 60.109375 103.839844 60.222656 C 104.117188 60.335938 104.359375 60.5 104.570313 60.710938 C 104.78125 60.917969 104.941406 61.164063 105.058594 61.4375 C 105.171875 61.714844 105.226563 62 105.226563 62.296875 Z M 105.226563 62.296875 "
     id="path65" />
  <path
     fill-rule="nonzero"
     fill="rgb(0%, 0%, 0%)"
     fill-opacity="1"
     d="M 112.71875 69.789063 C 112.71875 70.085938 112.660156 70.371094 112.546875 70.648438 C 112.433594 70.921875 112.269531 71.164063 112.058594 71.375 C 111.847656 71.585938 111.605469 71.75 111.332031 71.863281 C 111.054688 71.976563 110.769531 72.035156 110.472656 72.035156 C 110.171875 72.035156 109.886719 71.976563 109.609375 71.863281 C 109.335938 71.75 109.09375 71.585938 108.882813 71.375 C 108.671875 71.164063 108.507813 70.921875 108.394531 70.648438 C 108.28125 70.371094 108.222656 70.085938 108.222656 69.789063 C 108.222656 69.488281 108.28125 69.203125 108.394531 68.925781 C 108.507813 68.652344 108.671875 68.410156 108.882813 68.199219 C 109.09375 67.988281 109.335938 67.824219 109.609375 67.710938 C 109.886719 67.597656 110.171875 67.539063 110.472656 67.539063 C 110.769531 67.539063 111.054688 67.597656 111.332031 67.710938 C 111.605469 67.824219 111.847656 67.988281 112.058594 68.199219 C 112.269531 68.410156 112.433594 68.652344 112.546875 68.925781 C 112.660156 69.203125 112.71875 69.488281 112.71875 69.789063 Z M 112.71875 69.789063 "
     id="path67" />
  <path
     fill-rule="nonzero"
     fill="rgb(0%, 0%, 0%)"
     fill-opacity="1"
     d="M 105.226563 84.765625 C 105.226563 85.066406 105.171875 85.351563 105.058594 85.625 C 104.941406 85.902344 104.78125 86.144531 104.570313 86.355469 C 104.359375 86.566406 104.117188 86.726563 103.839844 86.84375 C 103.566406 86.957031 103.277344 87.011719 102.980469 87.011719 C 102.683594 87.011719 102.398438 86.957031 102.121094 86.84375 C 101.847656 86.726563 101.601563 86.566406 101.390625 86.355469 C 101.183594 86.144531 101.019531 85.902344 100.90625 85.625 C 100.792969 85.351563 100.734375 85.066406 100.734375 84.765625 C 100.734375 84.46875 100.792969 84.183594 100.90625 83.90625 C 101.019531 83.632813 101.183594 83.386719 101.390625 83.179688 C 101.601563 82.96875 101.847656 82.804688 102.121094 82.691406 C 102.398438 82.578125 102.683594 82.519531 102.980469 82.519531 C 103.277344 82.519531 103.566406 82.578125 103.839844 82.691406 C 104.117188 82.804688 104.359375 82.96875 104.570313 83.179688 C 104.78125 83.386719 104.941406 83.632813 105.058594 83.90625 C 105.171875 84.183594 105.226563 84.46875 105.226563 84.765625 Z M 105.226563 84.765625 "
     id="path69" />
  <path
     fill-rule="nonzero"
     fill="rgb(0%, 0%, 0%)"
     fill-opacity="1"
     d="M 97.738281 69.789063 C 97.738281 70.085938 97.679688 70.371094 97.566406 70.648438 C 97.453125 70.921875 97.292969 71.164063 97.082031 71.375 C 96.871094 71.585938 96.625 71.75 96.351563 71.863281 C 96.078125 71.976563 95.789063 72.035156 95.492188 72.035156 C 95.195313 72.035156 94.90625 71.976563 94.632813 71.863281 C 94.355469 71.75 94.113281 71.585938 93.902344 71.375 C 93.691406 71.164063 93.53125 70.921875 93.414063 70.648438 C 93.300781 70.371094 93.246094 70.085938 93.246094 69.789063 C 93.246094 69.488281 93.300781 69.203125 93.414063 68.925781 C 93.53125 68.652344 93.691406 68.410156 93.902344 68.199219 C 94.113281 67.988281 94.355469 67.824219 94.632813 67.710938 C 94.90625 67.597656 95.195313 67.539063 95.492188 67.539063 C 95.789063 67.539063 96.078125 67.597656 96.351563 67.710938 C 96.625 67.824219 96.871094 67.988281 97.082031 68.199219 C 97.292969 68.410156 97.453125 68.652344 97.566406 68.925781 C 97.679688 69.203125 97.738281 69.488281 97.738281 69.789063 Z M 97.738281 69.789063 "
     id="path71" />
  <path
     fill-rule="nonzero"
     fill="rgb(0%, 0%, 0%)"
     fill-opacity="1"
     d="M 67.78125 84.765625 C 67.78125 85.066406 67.722656 85.351563 67.609375 85.625 C 67.496094 85.902344 67.332031 86.144531 67.121094 86.355469 C 66.910156 86.566406 66.667969 86.726563 66.394531 86.84375 C 66.117188 86.957031 65.832031 87.011719 65.535156 87.011719 C 65.234375 87.011719 64.949219 86.957031 64.671875 86.84375 C 64.398438 86.726563 64.15625 86.566406 63.945313 86.355469 C 63.734375 86.144531 63.570313 85.902344 63.457031 85.625 C 63.34375 85.351563 63.285156 85.066406 63.285156 84.765625 C 63.285156 84.46875 63.34375 84.183594 63.457031 83.90625 C 63.570313 83.632813 63.734375 83.386719 63.945313 83.179688 C 64.15625 82.96875 64.398438 82.804688 64.671875 82.691406 C 64.949219 82.578125 65.234375 82.519531 65.535156 82.519531 C 65.832031 82.519531 66.117188 82.578125 66.394531 82.691406 C 66.667969 82.804688 66.910156 82.96875 67.121094 83.179688 C 67.332031 83.386719 67.496094 83.632813 67.609375 83.90625 C 67.722656 84.183594 67.78125 84.46875 67.78125 84.765625 Z M 67.78125 84.765625 "
     id="path73" />
  <path
     fill-rule="nonzero"
     fill="rgb(0%, 0%, 0%)"
     fill-opacity="1"
     d="M 112.71875 54.808594 C 112.71875 55.105469 112.660156 55.394531 112.546875 55.667969 C 112.433594 55.945313 112.269531 56.1875 112.058594 56.398438 C 111.847656 56.609375 111.605469 56.769531 111.332031 56.882813 C 111.054688 57 110.769531 57.054688 110.472656 57.054688 C 110.171875 57.054688 109.886719 57 109.609375 56.882813 C 109.335938 56.769531 109.09375 56.609375 108.882813 56.398438 C 108.671875 56.1875 108.507813 55.945313 108.394531 55.667969 C 108.28125 55.394531 108.222656 55.105469 108.222656 54.808594 C 108.222656 54.511719 108.28125 54.222656 108.394531 53.949219 C 108.507813 53.671875 108.671875 53.429688 108.882813 53.21875 C 109.09375 53.007813 109.335938 52.847656 109.609375 52.734375 C 109.886719 52.617188 110.171875 52.5625 110.472656 52.5625 C 110.769531 52.5625 111.054688 52.617188 111.332031 52.734375 C 111.605469 52.847656 111.847656 53.007813 112.058594 53.21875 C 112.269531 53.429688 112.433594 53.671875 112.546875 53.949219 C 112.660156 54.222656 112.71875 54.511719 112.71875 54.808594 Z M 112.71875 54.808594 "
     id="path75" />
  <path
     fill-rule="nonzero"
     fill="rgb(0%, 0%, 0%)"
     fill-opacity="1"
     d="M 48.308594 58.554688 C 48.308594 58.851563 48.25 59.136719 48.136719 59.414063 C 48.023438 59.6875 47.859375 59.929688 47.648438 60.140625 C 47.4375 60.351563 47.195313 60.515625 46.921875 60.628906 C 46.644531 60.742188 46.359375 60.800781 46.0625 60.800781 C 45.761719 60.800781 45.476563 60.742188 45.199219 60.628906 C 44.925781 60.515625 44.683594 60.351563 44.472656 60.140625 C 44.261719 59.929688 44.097656 59.6875 43.984375 59.414063 C 43.871094 59.136719 43.8125 58.851563 43.8125 58.554688 C 43.8125 58.253906 43.871094 57.96875 43.984375 57.695313 C 44.097656 57.417969 44.261719 57.175781 44.472656 56.964844 C 44.683594 56.753906 44.925781 56.589844 45.199219 56.476563 C 45.476563 56.363281 45.761719 56.304688 46.0625 56.304688 C 46.359375 56.304688 46.644531 56.363281 46.921875 56.476563 C 47.195313 56.589844 47.4375 56.753906 47.648438 56.964844 C 47.859375 57.175781 48.023438 57.417969 48.136719 57.695313 C 48.25 57.96875 48.308594 58.253906 48.308594 58.554688 Z M 48.308594 58.554688 "
     id="path77" />
  <path
     fill-rule="nonzero"
     fill="rgb(0%, 0%, 0%)"
     fill-opacity="1"
     d="M 128.445313 69.789063 C 128.445313 70.085938 128.386719 70.371094 128.273438 70.648438 C 128.160156 70.921875 128 71.164063 127.789063 71.375 C 127.578125 71.585938 127.332031 71.75 127.058594 71.863281 C 126.785156 71.976563 126.496094 72.035156 126.199219 72.035156 C 125.902344 72.035156 125.613281 71.976563 125.339844 71.863281 C 125.0625 71.75 124.820313 71.585938 124.609375 71.375 C 124.398438 71.164063 124.238281 70.921875 124.121094 70.648438 C 124.007813 70.371094 123.953125 70.085938 123.953125 69.789063 C 123.953125 69.488281 124.007813 69.203125 124.121094 68.925781 C 124.238281 68.652344 124.398438 68.410156 124.609375 68.199219 C 124.820313 67.988281 125.0625 67.824219 125.339844 67.710938 C 125.613281 67.597656 125.902344 67.539063 126.199219 67.539063 C 126.496094 67.539063 126.785156 67.597656 127.058594 67.710938 C 127.332031 67.824219 127.578125 67.988281 127.789063 68.199219 C 128 68.410156 128.160156 68.652344 128.273438 68.925781 C 128.386719 69.203125 128.445313 69.488281 128.445313 69.789063 Z M 128.445313 69.789063 "
     id="path79" />
  <path
     fill-rule="nonzero"
     fill="rgb(0%, 0%, 0%)"
     fill-opacity="1"
     d="M 142.675781 62.296875 C 142.675781 62.597656 142.617188 62.882813 142.503906 63.15625 C 142.390625 63.433594 142.226563 63.675781 142.019531 63.886719 C 141.808594 64.097656 141.5625 64.261719 141.289063 64.375 C 141.011719 64.488281 140.726563 64.542969 140.429688 64.542969 C 140.132813 64.542969 139.84375 64.488281 139.570313 64.375 C 139.292969 64.261719 139.050781 64.097656 138.839844 63.886719 C 138.628906 63.675781 138.46875 63.433594 138.351563 63.15625 C 138.238281 62.882813 138.183594 62.597656 138.183594 62.296875 C 138.183594 62 138.238281 61.714844 138.351563 61.4375 C 138.46875 61.164063 138.628906 60.917969 138.839844 60.710938 C 139.050781 60.5 139.292969 60.335938 139.570313 60.222656 C 139.84375 60.109375 140.132813 60.050781 140.429688 60.050781 C 140.726563 60.050781 141.011719 60.109375 141.289063 60.222656 C 141.5625 60.335938 141.808594 60.5 142.019531 60.710938 C 142.226563 60.917969 142.390625 61.164063 142.503906 61.4375 C 142.617188 61.714844 142.675781 62 142.675781 62.296875 Z M 142.675781 62.296875 "
     id="path81" />
  <path
     fill-rule="nonzero"
     fill="rgb(0%, 0%, 0%)"
     fill-opacity="1"
     d="M 128.445313 58.554688 C 128.445313 58.851563 128.386719 59.136719 128.273438 59.414063 C 128.160156 59.6875 128 59.929688 127.789063 60.140625 C 127.578125 60.351563 127.332031 60.515625 127.058594 60.628906 C 126.785156 60.742188 126.496094 60.800781 126.199219 60.800781 C 125.902344 60.800781 125.613281 60.742188 125.339844 60.628906 C 125.0625 60.515625 124.820313 60.351563 124.609375 60.140625 C 124.398438 59.929688 124.238281 59.6875 124.121094 59.414063 C 124.007813 59.136719 123.953125 58.851563 123.953125 58.554688 C 123.953125 58.253906 124.007813 57.96875 124.121094 57.695313 C 124.238281 57.417969 124.398438 57.175781 124.609375 56.964844 C 124.820313 56.753906 125.0625 56.589844 125.339844 56.476563 C 125.613281 56.363281 125.902344 56.304688 126.199219 56.304688 C 126.496094 56.304688 126.785156 56.363281 127.058594 56.476563 C 127.332031 56.589844 127.578125 56.753906 127.789063 56.964844 C 128 57.175781 128.160156 57.417969 128.273438 57.695313 C 128.386719 57.96875 128.445313 58.253906 128.445313 58.554688 Z M 128.445313 58.554688 "
     id="path83" />
  <path
     fill-rule="nonzero"
     fill="rgb(0%, 0%, 0%)"
     fill-opacity="1"
     d="M 128.445313 47.320313 C 128.445313 47.617188 128.386719 47.902344 128.273438 48.179688 C 128.160156 48.453125 128 48.695313 127.789063 48.90625 C 127.578125 49.117188 127.332031 49.28125 127.058594 49.394531 C 126.785156 49.507813 126.496094 49.566406 126.199219 49.566406 C 125.902344 49.566406 125.613281 49.507813 125.339844 49.394531 C 125.0625 49.28125 124.820313 49.117188 124.609375 48.90625 C 124.398438 48.695313 124.238281 48.453125 124.121094 48.179688 C 124.007813 47.902344 123.953125 47.617188 123.953125 47.320313 C 123.953125 47.019531 124.007813 46.734375 124.121094 46.460938 C 124.238281 46.183594 124.398438 45.941406 124.609375 45.730469 C 124.820313 45.519531 125.0625 45.355469 125.339844 45.242188 C 125.613281 45.128906 125.902344 45.070313 126.199219 45.070313 C 126.496094 45.070313 126.785156 45.128906 127.058594 45.242188 C 127.332031 45.355469 127.578125 45.519531 127.789063 45.730469 C 128 45.941406 128.160156 46.183594 128.273438 46.460938 C 128.386719 46.734375 128.445313 47.019531 128.445313 47.320313 Z M 128.445313 47.320313 "
     id="path85" />
  <path
     fill-rule="nonzero"
     fill="rgb(0%, 0%, 0%)"
     fill-opacity="1"
     d="M 120.957031 39.828125 C 120.957031 40.128906 120.898438 40.414063 120.785156 40.6875 C 120.671875 40.964844 120.507813 41.207031 120.296875 41.417969 C 120.085938 41.628906 119.84375 41.792969 119.570313 41.90625 C 119.292969 42.019531 119.007813 42.078125 118.710938 42.078125 C 118.410156 42.078125 118.125 42.019531 117.847656 41.90625 C 117.574219 41.792969 117.332031 41.628906 117.121094 41.417969 C 116.910156 41.207031 116.746094 40.964844 116.632813 40.6875 C 116.519531 40.414063 116.460938 40.128906 116.460938 39.828125 C 116.460938 39.53125 116.519531 39.246094 116.632813 38.96875 C 116.746094 38.695313 116.910156 38.453125 117.121094 38.242188 C 117.332031 38.03125 117.574219 37.867188 117.847656 37.753906 C 118.125 37.640625 118.410156 37.582031 118.710938 37.582031 C 119.007813 37.582031 119.292969 37.640625 119.570313 37.753906 C 119.84375 37.867188 120.085938 38.03125 120.296875 38.242188 C 120.507813 38.453125 120.671875 38.695313 120.785156 38.96875 C 120.898438 39.246094 120.957031 39.53125 120.957031 39.828125 Z M 120.957031 39.828125 "
     id="path87" />
  <path
     fill-rule="nonzero"
     fill="rgb(0%, 0%, 0%)"
     fill-opacity="1"
     d="M 120.207031 81.023438 C 120.207031 81.320313 120.148438 81.605469 120.035156 81.882813 C 119.921875 82.15625 119.757813 82.398438 119.550781 82.609375 C 119.339844 82.820313 119.09375 82.984375 118.820313 83.097656 C 118.542969 83.210938 118.257813 83.269531 117.960938 83.269531 C 117.664063 83.269531 117.375 83.210938 117.101563 83.097656 C 116.824219 82.984375 116.582031 82.820313 116.371094 82.609375 C 116.160156 82.398438 116 82.15625 115.882813 81.882813 C 115.769531 81.605469 115.714844 81.320313 115.714844 81.023438 C 115.714844 80.722656 115.769531 80.4375 115.882813 80.160156 C 116 79.886719 116.160156 79.644531 116.371094 79.433594 C 116.582031 79.222656 116.824219 79.058594 117.101563 78.945313 C 117.375 78.832031 117.664063 78.773438 117.960938 78.773438 C 118.257813 78.773438 118.542969 78.832031 118.820313 78.945313 C 119.09375 79.058594 119.339844 79.222656 119.550781 79.433594 C 119.757813 79.644531 119.921875 79.886719 120.035156 80.160156 C 120.148438 80.4375 120.207031 80.722656 120.207031 81.023438 Z M 120.207031 81.023438 "
     id="path89" />
  <path
     fill-rule="nonzero"
     fill="rgb(0%, 0%, 0%)"
     fill-opacity="1"
     d="M 135.933594 78.027344 C 135.933594 78.324219 135.878906 78.609375 135.765625 78.886719 C 135.648438 79.160156 135.488281 79.402344 135.277344 79.613281 C 135.066406 79.824219 134.824219 79.988281 134.546875 80.101563 C 134.273438 80.214844 133.984375 80.273438 133.6875 80.273438 C 133.390625 80.273438 133.105469 80.214844 132.828125 80.101563 C 132.554688 79.988281 132.308594 79.824219 132.097656 79.613281 C 131.890625 79.402344 131.726563 79.160156 131.613281 78.886719 C 131.5 78.609375 131.441406 78.324219 131.441406 78.027344 C 131.441406 77.726563 131.5 77.441406 131.613281 77.167969 C 131.726563 76.890625 131.890625 76.648438 132.097656 76.4375 C 132.308594 76.226563 132.554688 76.0625 132.828125 75.949219 C 133.105469 75.835938 133.390625 75.777344 133.6875 75.777344 C 133.984375 75.777344 134.273438 75.835938 134.546875 75.949219 C 134.824219 76.0625 135.066406 76.226563 135.277344 76.4375 C 135.488281 76.648438 135.648438 76.890625 135.765625 77.167969 C 135.878906 77.441406 135.933594 77.726563 135.933594 78.027344 Z M 135.933594 78.027344 "
     id="path91" />
  <path
     fill-rule="nonzero"
     fill="rgb(0%, 0%, 0%)"
     fill-opacity="1"
     d="M 112.71875 47.320313 C 112.71875 47.617188 112.660156 47.902344 112.546875 48.179688 C 112.433594 48.453125 112.269531 48.695313 112.058594 48.90625 C 111.847656 49.117188 111.605469 49.28125 111.332031 49.394531 C 111.054688 49.507813 110.769531 49.566406 110.472656 49.566406 C 110.171875 49.566406 109.886719 49.507813 109.609375 49.394531 C 109.335938 49.28125 109.09375 49.117188 108.882813 48.90625 C 108.671875 48.695313 108.507813 48.453125 108.394531 48.179688 C 108.28125 47.902344 108.222656 47.617188 108.222656 47.320313 C 108.222656 47.019531 108.28125 46.734375 108.394531 46.460938 C 108.507813 46.183594 108.671875 45.941406 108.882813 45.730469 C 109.09375 45.519531 109.335938 45.355469 109.609375 45.242188 C 109.886719 45.128906 110.171875 45.070313 110.472656 45.070313 C 110.769531 45.070313 111.054688 45.128906 111.332031 45.242188 C 111.605469 45.355469 111.847656 45.519531 112.058594 45.730469 C 112.269531 45.941406 112.433594 46.183594 112.546875 46.460938 C 112.660156 46.734375 112.71875 47.019531 112.71875 47.320313 Z M 112.71875 47.320313 "
     id="path93" />
  <path
     fill-rule="nonzero"
     fill="rgb(0%, 0%, 0%)"
     fill-opacity="1"
     d="M 143.425781 85.515625 C 143.425781 85.8125 143.367188 86.101563 143.253906 86.375 C 143.140625 86.652344 142.976563 86.894531 142.765625 87.105469 C 142.554688 87.316406 142.3125 87.476563 142.039063 87.589844 C 141.761719 87.707031 141.476563 87.761719 141.179688 87.761719 C 140.878906 87.761719 140.59375 87.707031 140.316406 87.589844 C 140.042969 87.476563 139.800781 87.316406 139.589844 87.105469 C 139.378906 86.894531 139.214844 86.652344 139.101563 86.375 C 138.988281 86.101563 138.929688 85.8125 138.929688 85.515625 C 138.929688 85.21875 138.988281 84.929688 139.101563 84.65625 C 139.214844 84.378906 139.378906 84.136719 139.589844 83.925781 C 139.800781 83.714844 140.042969 83.554688 140.316406 83.441406 C 140.59375 83.324219 140.878906 83.269531 141.179688 83.269531 C 141.476563 83.269531 141.761719 83.324219 142.039063 83.441406 C 142.3125 83.554688 142.554688 83.714844 142.765625 83.925781 C 142.976563 84.136719 143.140625 84.378906 143.253906 84.65625 C 143.367188 84.929688 143.425781 85.21875 143.425781 85.515625 Z M 143.425781 85.515625 "
     id="path95" />
  <path
     fill-rule="nonzero"
     fill="rgb(0%, 0%, 0%)"
     fill-opacity="1"
     d="M 60.289063 17.601563 C 60.289063 17.898438 60.234375 18.183594 60.121094 18.460938 C 60.003906 18.734375 59.84375 18.976563 59.632813 19.1875 C 59.421875 19.398438 59.179688 19.5625 58.902344 19.675781 C 58.628906 19.789063 58.34375 19.847656 58.042969 19.847656 C 57.746094 19.847656 57.460938 19.789063 57.183594 19.675781 C 56.910156 19.5625 56.664063 19.398438 56.457031 19.1875 C 56.246094 18.976563 56.082031 18.734375 55.96875 18.460938 C 55.855469 18.183594 55.796875 17.898438 55.796875 17.601563 C 55.796875 17.300781 55.855469 17.015625 55.96875 16.742188 C 56.082031 16.464844 56.246094 16.222656 56.457031 16.011719 C 56.664063 15.800781 56.910156 15.636719 57.183594 15.523438 C 57.460938 15.410156 57.746094 15.355469 58.042969 15.355469 C 58.34375 15.355469 58.628906 15.410156 58.902344 15.523438 C 59.179688 15.636719 59.421875 15.800781 59.632813 16.011719 C 59.84375 16.222656 60.003906 16.464844 60.121094 16.742188 C 60.234375 17.015625 60.289063 17.300781 60.289063 17.601563 Z M 60.289063 17.601563 "
     id="path97" />
  <path
     fill-rule="nonzero"
     fill="rgb(0%, 0%, 0%)"
     fill-opacity="1"
     d="M 67.78125 39.828125 C 67.78125 40.128906 67.722656 40.414063 67.609375 40.6875 C 67.496094 40.964844 67.332031 41.207031 67.121094 41.417969 C 66.910156 41.628906 66.667969 41.792969 66.394531 41.90625 C 66.117188 42.019531 65.832031 42.078125 65.535156 42.078125 C 65.234375 42.078125 64.949219 42.019531 64.671875 41.90625 C 64.398438 41.792969 64.15625 41.628906 63.945313 41.417969 C 63.734375 41.207031 63.570313 40.964844 63.457031 40.6875 C 63.34375 40.414063 63.285156 40.128906 63.285156 39.828125 C 63.285156 39.53125 63.34375 39.246094 63.457031 38.96875 C 63.570313 38.695313 63.734375 38.453125 63.945313 38.242188 C 64.15625 38.03125 64.398438 37.867188 64.671875 37.753906 C 64.949219 37.640625 65.234375 37.582031 65.535156 37.582031 C 65.832031 37.582031 66.117188 37.640625 66.394531 37.753906 C 66.667969 37.867188 66.910156 38.03125 67.121094 38.242188 C 67.332031 38.453125 67.496094 38.695313 67.609375 38.96875 C 67.722656 39.246094 67.78125 39.53125 67.78125 39.828125 Z M 67.78125 39.828125 "
     id="path99" />
  <path
     fill-rule="nonzero"
     fill="rgb(0%, 0%, 0%)"
     fill-opacity="1"
     d="M 90.25 28.59375 C 90.25 28.894531 90.191406 29.179688 90.078125 29.453125 C 89.964844 29.730469 89.800781 29.972656 89.589844 30.183594 C 89.378906 30.394531 89.136719 30.558594 88.863281 30.671875 C 88.585938 30.785156 88.300781 30.84375 88.003906 30.84375 C 87.703125 30.84375 87.417969 30.785156 87.140625 30.671875 C 86.867188 30.558594 86.625 30.394531 86.414063 30.183594 C 86.203125 29.972656 86.039063 29.730469 85.925781 29.453125 C 85.8125 29.179688 85.753906 28.894531 85.753906 28.59375 C 85.753906 28.296875 85.8125 28.011719 85.925781 27.734375 C 86.039063 27.460938 86.203125 27.21875 86.414063 27.007813 C 86.625 26.796875 86.867188 26.632813 87.140625 26.519531 C 87.417969 26.40625 87.703125 26.347656 88.003906 26.347656 C 88.300781 26.347656 88.585938 26.40625 88.863281 26.519531 C 89.136719 26.632813 89.378906 26.796875 89.589844 27.007813 C 89.800781 27.21875 89.964844 27.460938 90.078125 27.734375 C 90.191406 28.011719 90.25 28.296875 90.25 28.59375 Z M 90.25 28.59375 "
     id="path101" />
  <path
     fill-rule="nonzero"
     fill="rgb(0%, 0%, 0%)"
     fill-opacity="1"
     d="M 105.226563 51.0625 C 105.226563 51.363281 105.171875 51.648438 105.058594 51.921875 C 104.941406 52.199219 104.78125 52.441406 104.570313 52.652344 C 104.359375 52.863281 104.117188 53.027344 103.839844 53.140625 C 103.566406 53.253906 103.277344 53.308594 102.980469 53.308594 C 102.683594 53.308594 102.398438 53.253906 102.121094 53.140625 C 101.847656 53.027344 101.601563 52.863281 101.390625 52.652344 C 101.183594 52.441406 101.019531 52.199219 100.90625 51.921875 C 100.792969 51.648438 100.734375 51.363281 100.734375 51.0625 C 100.734375 50.765625 100.792969 50.480469 100.90625 50.203125 C 101.019531 49.929688 101.183594 49.6875 101.390625 49.476563 C 101.601563 49.265625 101.847656 49.101563 102.121094 48.988281 C 102.398438 48.875 102.683594 48.816406 102.980469 48.816406 C 103.277344 48.816406 103.566406 48.875 103.839844 48.988281 C 104.117188 49.101563 104.359375 49.265625 104.570313 49.476563 C 104.78125 49.6875 104.941406 49.929688 105.058594 50.203125 C 105.171875 50.480469 105.226563 50.765625 105.226563 51.0625 Z M 105.226563 51.0625 "
     id="path103" />
  <path
     fill="none"
     stroke-width="1"
     stroke-linecap="butt"
     stroke-linejoin="miter"
     stroke="rgb(72.158813%, 32.939148%, 31.369019%)"
     stroke-opacity="1"
     stroke-miterlimit="10"
     d="M 102.002341 87.680282 L 157.000926 87.680282 "
     transform="matrix(0.748954, 0, 0, 0.748954, 0.374477, 0.374477)"
     id="path105" />
  <path
     fill="none"
     stroke-width="1"
     stroke-linecap="butt"
     stroke-linejoin="miter"
     stroke="rgb(72.158813%, 32.939148%, 31.369019%)"
     stroke-opacity="1"
     stroke-miterlimit="10"
     d="M 142.000838 68.679823 L 142.000838 87.680282 "
     transform="matrix(0.748954, 0, 0, 0.748954, 0.374477, 0.374477)"
     id="path107" />
</svg>
