<?xml version="1.0" encoding="UTF-8" standalone="no"?>
<svg 
   width="136.080002pt"
   height="108pt"
   viewBox="0 0 136.080002 108"
   version="1.1"
   id="svg51"
   xmlns="http://www.w3.org/2000/svg"
   xmlns:svg="http://www.w3.org/2000/svg" content="%3Cmxfile%20host%3D%22app.diagrams.net%22%20modified%3D%222022-09-08T10%3A59%3A12.389Z%22%20agent%3D%225.0%20(X11%3B%20Linux%20x86_64)%20AppleWebKit%2F537.36%20(KHTML%2C%20like%20Gecko)%20Chrome%2F104.0.0.0%20Safari%2F537.36%22%20version%3D%2220.3.0%22%20etag%3D%22cjooUwESPJIdqCWqsr2A%22%20type%3D%22device%22%3E%3Cdiagram%20id%3D%2298xqXmea4yhUXKiwk6OL%22%3E7ZhRb5swEMc%2FTR5XGQyEPrZpuz1sUqVM2rMLDnh1MDJOQ%2Frpd4ANODhrpiWRqrYvwWf7zv7%2F7rDLDC%2FW9VdJyvyHSCmf%2BSitZ%2Fhu5vtegGL4aSy7zoKRpy2ZZKkeNRiW7JVqI9LWDUtpZQ1UQnDFStuYiKKgibJsREqxtYetBLejliSjE8MyIXxq%2FcVSlXfW2J8P9m%2BUZbmJ7EXXXc8TSZ4zKTaFjleIgnY9a2LcaOdVTlKx7UzttvH9DC%2BkEKp7WtcLyhtdjWKdNg8HevslS1qoYyb43YQXwjd613pdamdkaHZS6mFUKlq7xCdPZjiaLsHrNwbJQsWaKrmDIdoRjvFV2E3SmfLFC33cWbaD8F6sXedj0bEeSDTsrPc%2F7Boe9MbdIuC3RaBFetOkFLQSTqqKJTN8m6s1uLzz4LGlTRt%2FCFqVkuK5TxrY%2B%2B1KFEpneARNcPfAuJncRaPpJB0HCX23hCN5Qoc6xiYpJ4q92O5diukIj4JB4J5QhCw8hoNxUImNTKieM861A27MPEVkRtVkXkur3%2BNRAINPgJcA6NluPD88F9DwE%2BhFgM7%2F7ud0QKO3gcJRWDaPIDLhnHKRSbIGFiWVDCJRud%2F3OHTcbnOm6LIkSeNhCxcSOxlWrKbmhuFN4UuhgIYooIlRO5zzheBCtivDKaHxKumzaNQTJTF9WkEPHIOKsKJdJOoTyHFeHpFCtZ0qmk0YTk7EuSPBMDqcS8eeh%2FNpsUElLHWzvc3s15eQKheZKAj%2FLkSpVf5NldppmclGCZuJXZIOKqMK1zGHIm1ipqTK2wX8S8XCttri0AnvJvCf1RkHV0GAhj%2F7dhPFV9fRqDc4V83Fx9fcluzKNiJgeaYqyc1rc6DR9lN5%2FwJ6Vlr01tauO7ydhXd7lWMShYIXfT%2F0TLHpNtqr74Q2McaFXRWk%2FCk6Obr5Zyg1z7drDTtun67L5wlq7doBCTIiKLufCTHYpLLriHCWFb12YGikYPBvzI3uWLM05fskkBNfU6XV8Jq033eapwPxqHDjMxFCe3eP6dvQddz6JyBkKE8Qpe8UkYfOwyi2EQXTInIhOsWB5XkHENXvCdEFXmzzKZPoXExcnxYaGLuPysS8utAFIbg%2BbTTqv35UCLV9MOys%2BacnAs3hY153hxu%2BluL7Pw%3D%3D%3C%2Fdiagram%3E%3C%2Fmxfile%3E">
  <defs
     id="defs11">
    <clipPath
       id="clip-0">
      <path
         clip-rule="nonzero"
         d="M 0 44 L 67 44 L 67 106.855469 L 0 106.855469 Z M 0 44 "
         id="path2" />
    </clipPath>
    <clipPath
       id="clip-1">
      <path
         clip-rule="nonzero"
         d="M 0 70 L 37 70 L 37 106.855469 L 0 106.855469 Z M 0 70 "
         id="path5" />
    </clipPath>
    <clipPath
       id="clip-2">
      <path
         clip-rule="nonzero"
         d="M 98 41 L 136 41 L 136 90 L 98 90 Z M 98 41 "
         id="path8" />
    </clipPath>
  </defs>
  <path
     fill="none"
     stroke-width="2"
     stroke-linecap="butt"
     stroke-linejoin="miter"
     stroke="rgb(0%, 0%, 0%)"
     stroke-opacity="1"
     stroke-miterlimit="10"
     d="M 60.497649 87.999432 L 60.497649 16.241787 "
     transform="matrix(0.747253, 0, 0, 0.747253, 0, 0)"
     id="path13" />
  <path
     fill-rule="nonzero"
     fill="rgb(0%, 0%, 0%)"
     fill-opacity="1"
     stroke-width="2"
     stroke-linecap="butt"
     stroke-linejoin="miter"
     stroke="rgb(0%, 0%, 0%)"
     stroke-opacity="1"
     stroke-miterlimit="10"
     d="M 60.497649 10.240637 L 64.501901 18.238685 L 60.497649 16.241787 L 56.498626 18.238685 Z M 60.497649 10.240637 "
     transform="matrix(0.747253, 0, 0, 0.747253, 0, 0)"
     id="path15" />
  <g
     clip-path="url(#clip-0)"
     id="g19">
    <path
       fill="none"
       stroke-width="2"
       stroke-linecap="butt"
       stroke-linejoin="miter"
       stroke="#000000"
       stroke-opacity="1"
       stroke-miterlimit="10"
       d="M 60.497649,87.999432 16.618165,127.48783"
       transform="scale(0.747253)"
       id="path17" />
  </g>
  <path
     fill-rule="nonzero"
     fill="rgb(0%, 0%, 0%)"
     fill-opacity="1"
     d="M 9.085938 98.265625 L 11.53125 92.046875 L 12.417969 95.265625 L 15.527344 96.492188 Z M 9.085938 98.265625 "
     id="path21" />
  <g
     clip-path="url(#clip-1)"
     id="g25">
    <path
       fill="none"
       stroke-width="2"
       stroke-linecap="butt"
       stroke-linejoin="miter"
       stroke="#000000"
       stroke-opacity="1"
       stroke-miterlimit="10"
       d="m 12.159123,131.50254 3.272404,-8.32215 1.186638,4.30744 4.161076,1.64143 z m 0,0"
       transform="scale(0.747253)"
       id="path23" />
  </g>
  <path
     fill="none"
     stroke-width="2"
     stroke-linecap="butt"
     stroke-linejoin="miter"
     stroke="rgb(0%, 0%, 0%)"
     stroke-opacity="1"
     stroke-miterlimit="10"
     d="M 60.497649 87.999432 L 162.261042 87.999432 "
     transform="matrix(0.747253, 0, 0, 0.747253, 0, 0)"
     id="path27" />
  <path
     fill-rule="nonzero"
     fill="rgb(0%, 0%, 0%)"
     fill-opacity="1"
     d="M 125.734375 65.757813 L 119.753906 68.746094 L 121.25 65.757813 L 119.753906 62.769531 Z M 125.734375 65.757813 "
     id="path29" />
  <g
     clip-path="url(#clip-2)"
     id="g33">
    <path
       fill="none"
       stroke-width="2"
       stroke-linecap="butt"
       stroke-linejoin="miter"
       stroke="#000000"
       stroke-opacity="1"
       stroke-miterlimit="10"
       d="m 168.26219,87.999432 -8.00327,3.999024 2.00212,-3.999024 -2.00212,-3.999023 z m 0,0"
       transform="scale(0.747253)"
       id="path31" />
  </g>
  <path
     fill-rule="nonzero"
     fill="rgb(85.488892%, 90.979004%, 98.81897%)"
     fill-opacity="1"
     stroke-width="1"
     stroke-linecap="butt"
     stroke-linejoin="miter"
     stroke="rgb(42.349243%, 55.688477%, 74.899292%)"
     stroke-opacity="1"
     stroke-miterlimit="10"
     d="M 50.497814 93.000573 L 70.498866 63.000368 L 120.500541 62.996883 L 100.502102 93.001615 Z M 50.497814 93.000573 "
     transform="matrix(0.64714, 0.373626, -0.373626, 0.64714, 38.076132, -23.762623)"
     id="path35" />
  <path
     fill-rule="nonzero"
     fill="rgb(0%, 0%, 0%)"
     fill-opacity="1"
     d="M 94.378906 35.042969 L 92.597656 36.40625 L 92.144531 35.808594 L 93.925781 34.449219 M 90.816406 37.765625 L 89.035156 39.125 L 88.582031 38.53125 L 90.363281 37.171875 M 87.253906 40.484375 L 85.472656 41.84375 L 85.015625 41.25 L 86.800781 39.890625 M 83.6875 43.207031 L 81.90625 44.566406 L 81.453125 43.972656 L 83.234375 42.613281 M 80.125 45.925781 L 78.34375 47.285156 L 77.890625 46.691406 L 79.671875 45.332031 M 76.5625 48.644531 L 74.777344 50.007813 L 74.324219 49.414063 L 76.109375 48.050781 M 72.996094 51.367188 L 71.214844 52.726563 L 70.761719 52.132813 L 72.542969 50.773438 M 69.433594 54.085938 L 67.652344 55.445313 L 67.199219 54.851563 L 68.980469 53.492188 M 65.871094 56.808594 L 64.085938 58.167969 L 63.632813 57.574219 L 65.414063 56.214844 "
     id="path37" />
  <path
     fill-rule="nonzero"
     fill="rgb(0%, 0%, 0%)"
     fill-opacity="1"
     d="M 96.394531 34.746094 C 96.394531 35.042969 96.339844 35.332031 96.226563 35.605469 C 96.109375 35.878906 95.949219 36.121094 95.738281 36.332031 C 95.527344 36.542969 95.285156 36.703125 95.011719 36.820313 C 94.738281 36.933594 94.449219 36.988281 94.152344 36.988281 C 93.855469 36.988281 93.570313 36.933594 93.296875 36.820313 C 93.019531 36.703125 92.777344 36.542969 92.570313 36.332031 C 92.359375 36.121094 92.195313 35.878906 92.082031 35.605469 C 91.96875 35.332031 91.910156 35.042969 91.910156 34.746094 C 91.910156 34.449219 91.96875 34.164063 92.082031 33.890625 C 92.195313 33.613281 92.359375 33.371094 92.570313 33.160156 C 92.777344 32.953125 93.019531 32.789063 93.296875 32.675781 C 93.570313 32.5625 93.855469 32.503906 94.152344 32.503906 C 94.449219 32.503906 94.738281 32.5625 95.011719 32.675781 C 95.285156 32.789063 95.527344 32.953125 95.738281 33.160156 C 95.949219 33.371094 96.109375 33.613281 96.226563 33.890625 C 96.339844 34.164063 96.394531 34.449219 96.394531 34.746094 Z M 96.394531 34.746094 "
     id="path39" />
  <path
     fill-rule="nonzero"
     fill="rgb(0%, 0%, 0%)"
     fill-opacity="1"
     stroke-width="16.155178"
     stroke-linecap="butt"
     stroke-linejoin="miter"
     stroke="rgb(0%, 0%, 0%)"
     stroke-opacity="0.0902"
     stroke-miterlimit="4"
     d="M 23.249766 287.185125 C 23.775651 288.848105 24.301535 291.619738 24.82742 294.945697 C 25.879189 298.271657 27.456843 305.477903 30.086267 317.118762 C 32.71569 328.205295 35.870998 338.737501 40.078076 348.161053 C 43.759269 357.584606 49.018116 368.116811 54.802847 380.866324 C 61.113464 393.615836 67.42408 403.593715 74.786466 410.799961 C 82.148851 418.560534 91.088891 425.76678 101.0807 432.973026 C 111.072509 440.179272 122.116088 443.505232 134.211436 441.842252 C 184.170482 441.842252 216.249448 420.77784 229.92245 378.094691 L 239.914259 386.963917 C 281.45915 423.549474 320.900502 441.842252 358.238315 441.842252 C 401.360859 441.842252 435.543364 426.321107 460.259945 394.724489 C 484.450641 363.682198 497.071873 325.433662 497.071873 281.087532 C 497.071873 209.025071 471.829408 142.505877 420.818593 82.084275 C 370.333663 21.108347 313.012231 -9.379617 248.854299 -9.933944 C 234.129527 -9.933944 221.508295 -8.270964 209.938832 -3.836351 C 202.576446 -0.510391 195.21406 4.478548 186.799905 11.130468 C 178.911635 17.782387 172.601018 23.325653 167.868056 27.760266 L 161.031555 36.075166 C 160.505671 35.520839 153.143285 6.141528 138.944398 -50.954114 C 124.745511 -108.604083 117.90901 -137.429067 117.90901 -137.983393 C 117.90901 -141.86368 120.538434 -144.080986 125.797281 -145.18964 C 131.582012 -145.743966 143.67736 -146.852619 163.135094 -147.961273 L 187.851675 -147.961273 C 192.058752 -152.395886 194.162291 -155.721845 194.162291 -156.830499 C 194.162291 -158.493478 193.110521 -164.591071 191.006983 -175.123277 C 188.903444 -182.88385 186.799905 -187.872789 185.222251 -190.090096 C 183.118712 -191.753076 178.911635 -193.416056 172.075134 -193.970382 C 170.49748 -193.970382 166.816287 -193.970382 161.031555 -193.970382 C 155.246824 -193.970382 143.67736 -193.416056 126.84905 -192.861729 C 110.546625 -192.307402 89.511237 -191.753076 64.794657 -191.753076 C 18.516804 -191.753076 -11.458624 -192.861729 -24.079856 -193.970382 L -31.968127 -193.970382 C -36.701089 -189.535769 -38.804628 -185.655483 -38.804628 -182.88385 C -37.752858 -165.145398 -33.545781 -153.504539 -26.183395 -147.961273 L -6.199777 -147.961273 C 16.413265 -147.406946 29.560382 -143.52666 33.241575 -135.766087 C 34.819229 -131.885801 55.328732 -52.062767 94.244199 103.148687 C 132.633782 258.36014 153.143285 340.40048 155.246824 349.824033 C 155.772708 353.149993 155.772708 358.138932 155.772708 364.236525 C 155.772708 391.39853 147.884438 405.256695 131.056128 405.256695 C 116.331356 405.256695 104.236008 395.833142 94.244199 376.986037 C 84.25239 358.138932 76.36412 338.183174 71.105273 316.010109 C 65.846426 293.837044 61.639348 282.196185 59.009925 279.978879 C 57.432271 278.870225 52.173424 277.761572 43.233384 277.761572 L 29.034498 277.761572 C 24.82742 282.196185 23.249766 284.967818 23.249766 287.185125 Z M 177.859865 102.040033 C 192.584637 51.596311 217.301217 26.097286 252.009607 26.097286 C 271.993225 26.097286 291.450959 33.857859 309.856923 48.824678 C 328.788772 64.345823 344.039428 83.747255 356.134776 107.028973 C 368.230124 129.756364 379.799587 165.787595 391.894935 215.122664 C 403.990283 264.457733 410.300899 301.04329 410.826784 324.879335 L 410.826784 330.976928 C 410.826784 380.311997 390.843166 405.256695 349.82416 405.256695 C 342.461774 405.256695 335.099388 404.148042 328.262887 401.930735 C 320.900502 400.267755 313.538116 396.941796 306.17573 393.061509 C 298.813345 389.181223 291.976844 384.74661 286.192112 379.75767 C 279.881496 375.323058 274.096764 370.334118 268.837917 364.790852 C 263.57907 359.801912 258.846108 354.812973 254.113146 349.824033 C 249.380183 345.38942 245.698991 340.40048 243.069567 335.965867 C 240.440144 331.531254 237.81072 328.205295 235.181297 325.987988 L 232.025989 322.107702 C 232.025989 321.553375 230.974219 316.564436 228.87068 308.249536 C 226.767142 299.38031 223.085949 284.413492 217.827102 263.903407 C 212.568255 243.393322 207.835293 226.209196 204.1541 211.796704 C 186.799905 141.397223 177.859865 104.811666 177.859865 102.040033 Z M 177.859865 102.040033 "
     transform="matrix(0.00742796, 0, 0, -0.00704684, 92.659333, 27.027653)"
     id="path41" />
  <path
     fill-rule="nonzero"
     fill="rgb(0%, 0%, 0%)"
     fill-opacity="1"
     stroke-width="11.929411"
     stroke-linecap="butt"
     stroke-linejoin="miter"
     stroke="rgb(0%, 0%, 0%)"
     stroke-opacity="0.1216"
     stroke-miterlimit="4"
     d="M 365.975714 683.000057 C 366.752368 683.000057 390.828654 684.635677 437.816243 687.906919 C 485.19216 691.178161 509.656772 693.222687 510.821754 694.040498 C 518.976625 694.040498 522.859897 691.178161 522.859897 685.862393 C 522.859897 681.364436 498.783611 580.77375 449.854386 384.090336 C 401.313488 187.406923 376.460548 86.816237 374.907239 83.13609 C 373.742258 79.047038 373.353931 74.140175 374.130585 68.006597 C 374.130585 40.201042 383.450437 25.889359 402.090142 25.889359 C 407.91505 26.707169 414.516612 29.569506 421.894829 34.885274 C 435.874607 48.379146 449.854386 80.273754 463.05751 130.978002 C 466.940782 144.471874 470.435727 151.423263 473.154017 151.832168 C 474.318999 152.649979 477.813943 153.058884 482.862197 153.058884 L 491.017068 153.058884 C 501.113574 153.058884 506.161828 150.196547 506.161828 144.880779 C 506.161828 141.609538 504.996846 136.29377 503.05521 128.933476 C 494.512012 95.812152 484.415505 68.824407 473.154017 47.970241 C 461.504202 27.52498 452.184349 14.031107 444.806133 7.897529 C 437.816243 2.172856 428.496391 -3.142912 416.846575 -8.049775 C 411.798322 -9.276491 403.643451 -10.094301 393.158617 -10.094301 C 370.247313 -10.094301 351.219281 -5.187438 336.074521 5.035192 C 320.541433 14.848918 310.833254 25.480453 306.173328 36.111989 L 299.960093 50.832577 C 299.183438 51.650388 298.018457 51.241483 296.076821 50.014767 C 294.523512 48.788051 293.35853 47.15243 292.193549 45.925715 C 252.584176 8.715339 212.586476 -10.094301 171.812122 -10.094301 C 135.309366 -10.094301 103.07821 3.399571 75.118653 29.978411 C 47.159095 56.557251 33.179317 99.083394 33.179317 157.147936 C 33.179317 189.042544 39.780879 221.754962 52.984003 254.876285 C 66.187127 288.406514 82.496869 317.029879 101.136574 341.155288 C 132.202749 379.183474 163.657251 405.353408 195.111753 420.073996 C 226.177927 434.794584 254.525812 442.154879 280.155406 442.154879 C 317.434816 442.154879 345.394373 427.843196 364.034078 400.03764 C 367.140696 395.948588 369.082332 394.721872 369.082332 395.948588 C 369.858986 398.810925 378.790511 435.20349 395.876907 505.126283 C 413.351631 575.049077 422.671483 611.850547 423.836465 615.9396 C 423.836465 624.526609 421.506501 629.842377 416.846575 631.886903 C 412.186649 633.931429 399.371852 635.56705 378.013857 637.202671 L 357.044189 637.202671 C 353.160917 640.882818 350.830954 643.745155 350.830954 644.971871 C 350.830954 646.198586 351.607608 652.74107 353.160917 664.190416 C 356.267534 676.866478 360.539133 683.000057 365.975714 683.000057 Z M 351.995935 326.025794 C 336.851175 378.774569 311.609908 404.944503 277.048789 404.944503 C 253.749158 404.944503 231.226181 394.721872 209.868186 373.867706 C 188.510191 353.422445 171.812122 326.4347 160.162306 292.904471 C 140.745947 240.155697 127.154495 185.771302 118.999624 128.933476 C 118.999624 126.888949 118.999624 123.208802 118.999624 117.893034 C 118.999624 112.577267 118.611297 108.488214 117.834643 106.034783 C 117.834643 76.184701 124.047878 55.330535 136.086021 43.881189 C 148.124163 32.840748 162.492269 26.707169 179.190338 25.889359 C 214.916439 25.889359 251.807522 50.014767 289.863586 97.856678 L 298.018457 108.89712 Z M 351.995935 326.025794 "
     transform="matrix(0.0100592, 0, 0, -0.00955295, 76.967025, 52.212163)"
     id="path43" />
  <path
     fill-rule="nonzero"
     fill="rgb(0%, 0%, 0%)"
     fill-opacity="1"
     stroke-width="10.206276"
     stroke-linecap="butt"
     stroke-linejoin="miter"
     stroke="rgb(0%, 0%, 0%)"
     stroke-opacity="0.1333"
     stroke-miterlimit="4"
     d="M 51.957279 288.847784 C 56.608576 316.87943 74.549296 349.254007 106.111673 385.971516 C 137.341814 422.689024 175.881137 441.245184 222.061878 442.034808 C 245.318367 442.034808 266.581442 436.112629 285.851103 423.87346 C 305.453001 412.029102 319.739129 397.026249 329.041724 378.864901 C 356.94951 421.109776 390.505301 442.034808 430.041331 442.034808 C 454.626761 442.034808 475.889836 434.533382 494.162791 419.925341 C 512.103511 405.3173 521.406106 385.576704 522.070577 361.098365 C 522.070577 341.752581 517.419279 325.960104 508.116684 314.115747 C 498.814089 301.876577 489.511493 294.769963 480.873369 292.006279 C 472.235245 289.242596 464.593827 288.05816 457.949116 288.05816 C 445.324166 288.05816 435.024864 291.611467 427.051211 299.112894 C 419.077558 306.219508 415.090731 316.089806 415.090731 327.934164 C 415.090731 358.729493 431.702508 379.654525 464.926063 391.104071 C 457.616881 399.789933 444.327459 404.132864 425.057797 404.132864 C 416.419673 404.132864 410.107198 403.34324 406.120371 402.158804 C 380.538234 391.498883 361.933044 369.389415 349.972564 335.830402 C 310.104298 188.565557 289.83793 102.496559 289.83793 78.01822 C 289.83793 59.46206 295.485934 46.038455 306.117472 38.142216 C 316.749009 29.851166 328.377253 25.903047 341.002204 25.903047 C 365.587635 25.903047 389.840829 36.95778 414.094024 59.067248 C 438.014984 81.176715 454.294525 108.023926 462.93265 140.003691 C 464.926063 146.715494 466.919476 150.268801 468.91289 151.058425 C 470.906303 151.848049 476.222072 152.24286 484.860196 153.032484 L 488.847022 153.032484 C 499.146324 153.032484 504.129857 150.268801 504.129857 145.136246 C 504.129857 144.346622 503.465386 140.793315 502.136444 134.081512 C 491.172671 96.179568 470.574067 62.225743 440.008397 33.009661 C 409.442727 3.793579 373.561288 -10.814462 333.028551 -10.814462 C 286.183339 -10.814462 250.966371 10.11057 227.045412 51.960633 C 199.802097 10.505382 168.23972 -10.024838 133.022752 -10.024838 L 127.042512 -10.024838 C 94.483429 -10.024838 70.894705 -1.338976 56.940812 16.032749 C 42.986919 33.404473 35.677737 51.565821 35.013266 70.911605 C 35.013266 92.231449 41.325741 109.603173 53.950692 123.026779 C 66.575643 136.450384 81.526242 143.162186 99.134726 143.162186 C 127.706983 143.162186 141.993112 128.948957 141.993112 100.917311 C 141.993112 87.493706 138.006285 76.04416 130.032632 66.173862 C 122.058979 55.908753 114.417561 49.19695 107.108379 46.038455 C 99.799197 42.485147 95.480135 40.9059 94.151193 40.9059 L 91.161073 40.116276 C 91.161073 39.326652 93.154486 38.142216 97.141313 36.168157 C 101.128139 34.194097 106.443908 31.825226 113.088619 29.061542 C 119.73333 26.297859 126.045805 25.508235 132.026045 25.903047 C 155.947005 25.903047 176.545609 40.9059 194.154093 70.911605 C 200.134332 81.571527 207.77575 104.470618 217.078345 138.819255 C 226.380941 173.562704 235.683536 209.490589 244.986131 246.997721 C 254.288726 284.504853 259.604495 306.219508 260.933437 312.931311 C 264.255793 331.092659 265.916971 344.121452 265.916971 352.017691 C 265.916971 370.573851 260.933437 383.997456 250.966371 391.893695 C 240.999305 400.184745 229.703296 404.132864 217.078345 404.132864 C 190.167266 404.132864 165.2496 393.472942 141.993112 372.153099 C 118.736623 350.833255 102.457082 323.196421 93.154486 290.03222 C 91.825544 284.110041 90.164366 280.556734 87.838718 280.161922 C 85.845304 279.372298 80.529536 278.582674 71.891411 278.187862 L 57.937518 278.187862 C 53.950692 282.135981 51.957279 285.689289 51.957279 288.847784 Z M 51.957279 288.847784 "
     transform="matrix(0.0117575, 0, 0, -0.00989395, 109.846145, 74.615658)"
     id="path45" />
  <path
     fill-rule="nonzero"
     fill="rgb(0%, 0%, 0%)"
     fill-opacity="1"
     stroke-width="11.241176"
     stroke-linecap="butt"
     stroke-linejoin="miter"
     stroke="rgb(0%, 0%, 0%)"
     stroke-opacity="0.1333"
     stroke-miterlimit="4"
     d="M 21.111024 286.918592 C 21.111024 296.324833 25.868032 312.503567 36.113896 335.078545 C 45.993836 357.653523 62.094479 381.357251 84.049901 405.813477 C 106.005323 430.645953 130.522212 442.685942 157.96649 441.933442 C 185.410767 441.933442 207.36619 434.40845 223.832757 418.982214 C 240.665247 403.555979 249.447416 382.486 250.179263 355.019776 C 248.715568 342.227288 247.617797 335.454795 246.88595 333.949796 C 246.88595 332.068548 241.763018 316.642313 231.151231 288.047341 C 220.173519 259.452368 209.195808 227.094899 197.852173 190.974934 C 186.508539 154.854969 181.385607 126.259997 182.117454 104.813767 C 182.117454 76.218795 186.508539 56.277564 196.022555 44.990075 C 205.170648 33.702586 219.441672 27.682592 238.103781 26.930092 C 253.472577 26.930092 267.743601 30.692589 280.916855 37.841332 C 294.456032 45.366324 304.701895 52.891317 312.02037 61.168809 C 319.338844 69.070052 328.486936 79.981291 339.098724 93.902528 C 339.098724 94.655027 340.562419 101.42752 343.855732 113.843758 C 347.514969 126.636246 351.906053 146.201227 358.126756 172.914952 C 363.981536 199.628676 370.202239 224.461152 377.154789 247.03613 C 402.403525 347.118534 416.308626 399.417233 418.870092 403.932229 C 427.65226 421.992211 441.923285 431.022203 462.049089 431.022203 C 470.831258 431.022203 477.783808 428.764705 482.90674 423.87346 C 488.395596 419.358464 492.054833 415.219718 493.884451 411.833471 C 496.079993 408.823474 496.811841 405.813477 496.079993 403.17973 C 496.079993 394.149738 479.613427 324.167306 447.046217 192.856182 C 414.479007 61.545059 395.816898 -10.318622 391.05989 -23.11111 C 372.397781 -78.419806 339.830571 -122.441014 294.090108 -155.174732 C 247.983721 -187.532201 201.877334 -204.463435 156.136871 -204.839684 C 126.131127 -204.839684 99.78462 -197.690941 77.097351 -183.017205 C 54.410081 -168.34347 43.066446 -146.520991 43.066446 -117.173519 C 43.066446 -102.499783 45.261988 -90.083545 50.018996 -79.924805 C 54.776005 -70.142314 60.996708 -62.617321 69.047029 -58.102326 C 77.097351 -53.21108 83.683977 -49.824834 89.172833 -47.943586 C 94.295765 -46.062337 100.150544 -44.933588 106.005323 -44.933588 C 135.27922 -44.933588 149.916168 -58.854825 149.916168 -87.073548 C 149.916168 -100.242285 145.891007 -111.906024 137.840686 -122.064764 C 130.156288 -131.847255 122.47189 -138.619748 115.153416 -142.005995 C 107.834942 -145.392242 103.443857 -146.89724 101.980163 -146.89724 L 99.052773 -148.025989 C 100.150544 -151.412236 106.737171 -155.174732 118.080806 -160.065977 C 129.424441 -164.580973 140.768075 -166.838471 152.11171 -166.838471 L 160.162032 -166.838471 C 171.505667 -166.838471 179.921912 -166.462221 186.142615 -164.957223 C 208.098037 -158.937229 228.223841 -146.520991 246.88595 -126.956009 C 265.548059 -107.767278 279.819083 -87.073548 290.064947 -64.874819 C 299.944887 -43.05234 307.629285 -24.239858 313.118141 -8.813623 C 318.241073 6.236362 321.168462 16.395102 321.168462 20.910098 L 314.947759 17.147602 C 310.922598 14.513854 304.701895 10.751358 295.919726 5.860113 C 287.503481 1.345117 278.721312 -2.793629 269.939143 -6.179876 C 256.76589 -9.189873 243.592637 -11.071121 231.151231 -11.071121 C 200.413639 -11.071121 173.335285 -3.546128 149.916168 11.127607 C 126.497051 25.801343 111.494179 49.505071 104.175705 81.862539 C 103.443857 86.753785 103.077934 96.912525 103.077934 113.091259 C 103.077934 151.092473 114.787492 200.757425 137.840686 262.086116 C 161.259803 323.414806 172.969361 362.168519 172.969361 379.099753 C 172.969361 379.852252 172.969361 380.228502 172.969361 380.981001 C 172.969361 387.000995 172.969361 391.139741 172.969361 393.020989 C 172.969361 394.902238 171.505667 397.159735 168.944201 400.169733 C 166.382735 402.80348 162.723498 403.932229 157.96649 403.932229 L 153.941329 403.932229 C 138.572533 403.932229 124.667432 397.535985 111.860103 385.119747 C 99.418697 372.327259 89.172833 358.782272 81.854359 344.108537 C 74.535885 329.434801 69.047029 315.513564 65.021868 301.968577 C 60.996708 288.79984 58.435242 281.274847 56.971547 280.146098 C 55.507852 278.6411 50.38492 277.8886 40.870904 277.8886 L 26.965803 277.8886 C 22.940642 282.027346 21.111024 285.037343 21.111024 286.918592 Z M 21.111024 286.918592 "
     transform="matrix(0.010675, 0, 0, -0.0103821, 20.923076, 97.252246)"
     id="path47" />
  <path
     fill-rule="nonzero"
     fill="rgb(0%, 0%, 0%)"
     fill-opacity="1"
     stroke-width="10.667648"
     stroke-linecap="butt"
     stroke-linejoin="miter"
     stroke="rgb(0%, 0%, 0%)"
     stroke-opacity="0.1333"
     stroke-miterlimit="4"
     d="M 347.17042 337.855271 C 340.225337 337.855271 322.515375 341.809648 294.040533 348.927528 C 265.218437 356.440845 244.383187 359.999785 230.840275 359.999785 C 217.644617 359.999785 206.185229 358.813472 197.156621 356.045408 C 187.780758 353.277343 180.141167 350.113841 173.890592 346.159464 C 167.987271 341.809648 164.167475 338.250708 162.08395 335.087206 C 160.000425 331.528266 157.569646 327.969327 155.138867 324.014949 L 153.055342 320.060571 C 150.971817 318.083382 146.110259 316.897069 138.123413 316.897069 C 123.885992 316.897069 116.940909 319.665133 116.940909 324.805824 C 116.940909 328.364764 117.982671 333.110017 120.066196 339.041584 C 128.74755 365.140476 142.984971 387.284991 163.125713 405.870566 C 182.9192 424.851578 205.143467 435.923836 229.104004 439.878213 C 237.09085 441.459964 242.646917 441.855402 246.119458 441.855402 C 262.787658 441.855402 277.719587 436.319274 290.915246 424.851578 C 304.458158 413.779321 316.959308 402.707064 329.113204 392.030244 C 340.919845 381.353424 353.76825 375.817296 366.963908 375.02642 C 381.548583 375.02642 396.480512 386.098678 411.065187 407.847755 C 425.649862 429.992269 433.289454 441.064527 433.983962 441.064527 C 434.67847 441.855402 439.540029 441.855402 448.915891 441.855402 L 462.111549 441.855402 C 465.931345 437.901025 468.01487 435.528398 468.01487 433.946647 C 468.01487 431.178583 466.278599 426.828767 463.153312 420.106325 C 459.68077 413.383883 455.166466 406.266004 448.915891 399.148124 C 443.01257 391.634806 437.456504 384.516927 431.900437 377.003609 C 426.691624 369.490292 421.830066 363.163287 418.01027 358.022596 L 411.065187 348.927528 C 382.243091 314.91988 337.10005 269.839975 274.941554 214.083251 C 213.130313 157.931089 174.5851 121.946252 160.000425 106.128742 L 147.846529 93.870171 L 163.125713 93.079295 C 177.710388 93.079295 198.892892 89.520356 227.020479 82.007038 C 255.148067 74.493721 275.983317 70.934781 289.873483 70.934781 C 315.223037 70.934781 338.83632 77.261785 360.018825 89.915793 C 381.201329 102.569802 395.438749 119.178188 402.036579 140.136389 C 404.814612 146.067956 406.898137 149.626896 408.981662 150.813209 C 411.065187 152.39496 415.926745 153.185835 423.913591 153.185835 C 436.761995 153.185835 443.01257 149.626896 443.01257 142.904454 C 443.01257 139.740951 442.665316 136.577449 441.970808 133.809385 C 430.51142 92.683858 408.634408 58.280772 375.992516 30.995567 C 343.350625 3.710361 310.708733 -10.525398 278.066842 -10.920836 C 260.704133 -10.920836 245.42495 -5.384707 231.882038 6.082988 C 218.686379 17.155245 205.837975 28.62294 192.989571 40.090635 C 180.488421 51.162893 167.640017 57.094459 155.138867 57.094459 C 125.622263 57.094459 99.230946 36.927133 75.964917 -3.012081 C 72.145121 -8.152772 66.241801 -10.920836 58.949463 -10.920836 L 40.892246 -10.920836 C 37.072451 -6.966459 34.988926 -3.802956 34.988926 -1.825768 C 34.988926 8.060176 54.435159 36.531695 92.980371 83.984227 C 119.024434 114.037497 163.125713 157.140213 224.936954 214.083251 C 287.09545 270.630851 325.293408 306.615687 339.878083 322.03776 C 347.864929 332.71458 350.295708 337.855271 347.17042 337.855271 Z M 347.17042 337.855271 "
     transform="matrix(0.011249, 0, 0, -0.00987829, 35.86813, 20.81009)"
     id="path49" />
</svg>
