<?xml version="1.0" encoding="UTF-8" standalone="no"?>
<svg 
   width="168pt"
   height="104.879997pt"
   viewBox="0 0 168 104.879997"
   version="1.1"
   id="svg65"
   xmlns="http://www.w3.org/2000/svg"
   xmlns:svg="http://www.w3.org/2000/svg" content="%3Cmxfile%20host%3D%22app.diagrams.net%22%20modified%3D%222022-09-08T10%3A57%3A49.348Z%22%20agent%3D%225.0%20(X11%3B%20Linux%20x86_64)%20AppleWebKit%2F537.36%20(KHTML%2C%20like%20Gecko)%20Chrome%2F104.0.0.0%20Safari%2F537.36%22%20version%3D%2220.2.8%22%20etag%3D%22s2ihhKYP_UrUX2OHoMoJ%22%20type%3D%22device%22%3E%3Cdiagram%20id%3D%22LfcBObEYhQAdBskmr8XN%22%3E7Zlbc9sqEIB%2FjR%2BbAaGbH%2BskbR%2FamcykMz3n6QyRsEUjCw3CidVff0CAJYTcuK2VJtO%2BJGLFRbvfsrvgBbrc7t9zXBefWE7KRQDy%2FQJdLYIgBZH8qwStFgRJkGjJhtNcy2AvuKXfiBECI93RnDROR8FYKWjtCjNWVSQTjgxzzh7dbmtWuqvWeEM8wW2GS1%2F6heaiMHpZLZT8A6Gbwq4M46V%2Bc4ez%2Bw1nu8qsV7GK6DdbbKcxkzcFztmjFnVqo%2BsFuuSMCf203V%2BSUpnVWkzb5t2Rt4dP5qQSpwwI9IAHXO6M1ua7RGvNoDSpTTfCBdlPGR%2Ff2e7A%2FwR4UEz6CmFbIngru9iJguWFcRXjKW9gZH3gsTd8AE2vYmh0ux42sDeH%2BXut5YNRfNoIyNO5g0fUa7BAK8ZFwTaswuVHxmophFL4lQjRGqfFO8GkqBDb0rzNcVN041WjEZzdH3xISUiVv1UeKpudc3SSd1R9Ybci2VPxj3q%2BiBEy7X%2B7dgJs%2B2o%2F6HzVDho3hFNpBMKNTKtHcs%2Fde0QWO9vxzNmGPjZOSizogzvXlPnN0BtG5So9bgAc2MkIoMB8Q4QZNPTc0TypO000mkZr4k3TucJBmZO8I3x6iwxwZiVuGpq53uC606k4fNMPdoPVd7gZrOwXCYWuZb0tdsS0R%2Bd5guxPIIn%2BGCSt6%2Bw%2FiiAYbbbxPOdDEk8gkTsn3Ot%2FHh%2BZR4RLBJd0Uylc0uQqdK1UtqEyHb81L7Y0z9XwFScN%2FWYyjqJXq%2B%2FvNIpWi%2BhKzSUDcqNjcx%2BAL1nJeB9x1zLcjkQymQlMq1HgnMh6JziGHRC5uS3xE1s84TfoDGktOYKk%2FVORPIPNUz8QyaBya5p9IXHdS1e%2Fu9hQw2%2BwkISrbkQA4EsrGkYpab7MsvwuP2O%2B8wKbNr%2BPcS13gpkxPYHqi%2BKXgAuQLtM0iUMQhssQjbLSRRiDOAlhlCCAwrng2kPF9%2BoGeSCr1eMjbrsYplDcE5EVxqwmhMU2xhF%2B%2FUB0qIOTcW8ipg2Dpa5FBBbD4Dmo33XoHVT0q6bC9Wem7aHHz5C2YjdrocjLWnAigsIzRFAIj6Wt%2F%2BrXlLgG2zWeh1HiILKp54mC9BznZTh1a9AVe38RuYjQ0mEUh8%2FHCB1hlL9SQumzBLrQL89nIzR1saDQvNY9NBOh0CUEk%2BcjNHXPoNBgeaqV80vtwF17eMzUk%2BqlDt2vkmBsixHK1NpvEJjpUDy6lkD%2BrkvnYjp1UXH87sjY6OjF0dCeiwDlmKTrzDO%2BfBNnKblbe4V98JIvn2wSg%2B4GHFd5p15GHX4fGVGfodCfuvr4vZCdI99LJw5jF7kt%2F3%2BYeDqqUecjnv4l%2FkvE3RP5T9%2F5jwpeCKIzEZfN%2FldR3b3%2F1Rld%2Fw8%3D%3C%2Fdiagram%3E%3C%2Fmxfile%3E">
  <defs
     id="defs5">
    <clipPath
       id="clip-0">
      <path
         clip-rule="nonzero"
         d="M 7 7 L 154 7 L 154 103.5 L 7 103.5 Z M 7 7 "
         id="path2" />
    </clipPath>
  </defs>
  <path
     fill-rule="nonzero"
     fill="rgb(0%, 0%, 0%)"
     fill-opacity="1"
     d="M 58.765625 36.109375 L 60.355469 37.699219 L 59.824219 38.230469 L 58.234375 36.640625 M 61.945313 39.292969 L 63.539063 40.882813 L 63.007813 41.414063 L 61.417969 39.820313 M 65.128906 42.472656 L 66.71875 44.066406 L 66.191406 44.59375 L 64.597656 43.003906 M 68.3125 45.65625 L 69.902344 47.246094 L 69.371094 47.777344 L 67.78125 46.1875 M 71.492188 48.835938 L 73.085938 50.429688 L 72.554688 50.960938 L 70.960938 49.367188 M 74.675781 52.019531 L 76.265625 53.609375 L 75.734375 54.140625 L 74.144531 52.550781 M 77.855469 55.203125 L 79.449219 56.792969 L 78.917969 57.324219 L 77.328125 55.730469 M 81.039063 58.382813 L 81.265625 58.609375 L 80.734375 59.140625 L 80.507813 58.914063 "
     id="path7" />
  <path
     fill="none"
     stroke-width="1"
     stroke-linecap="butt"
     stroke-linejoin="miter"
     stroke="rgb(0%, 0%, 0%)"
     stroke-opacity="1"
     stroke-miterlimit="10"
     d="M 47.500002 128.000005 L 47.500002 14.369792 "
     transform="matrix(0.75, 0, 0, 0.75, 0.375, 0.375)"
     id="path9" />
  <path
     fill-rule="nonzero"
     fill="rgb(0%, 0%, 0%)"
     fill-opacity="1"
     stroke-width="1"
     stroke-linecap="butt"
     stroke-linejoin="miter"
     stroke="rgb(0%, 0%, 0%)"
     stroke-opacity="1"
     stroke-miterlimit="10"
     d="M 47.500002 9.119792 L 51.000002 16.119792 L 47.500002 14.369792 L 44.000002 16.119792 Z M 47.500002 9.119792 "
     transform="matrix(0.75, 0, 0, 0.75, 0.375, 0.375)"
     id="path11" />
  <path
     fill="none"
     stroke-width="1"
     stroke-linecap="butt"
     stroke-linejoin="miter"
     stroke="rgb(0%, 0%, 0%)"
     stroke-opacity="1"
     stroke-miterlimit="10"
     d="M 7.5 88.000004 L 201.130217 88.000004 "
     transform="matrix(0.75, 0, 0, 0.75, 0.375, 0.375)"
     id="path13" />
  <path
     fill-rule="nonzero"
     fill="rgb(0%, 0%, 0%)"
     fill-opacity="1"
     stroke-width="1"
     stroke-linecap="butt"
     stroke-linejoin="miter"
     stroke="rgb(0%, 0%, 0%)"
     stroke-opacity="1"
     stroke-miterlimit="10"
     d="M 206.380217 88.000004 L 199.380217 91.500004 L 201.130217 88.000004 L 199.380217 84.500004 Z M 206.380217 88.000004 "
     transform="matrix(0.75, 0, 0, 0.75, 0.375, 0.375)"
     id="path15" />
  <path
     fill-rule="nonzero"
     fill="rgb(0%, 0%, 0%)"
     fill-opacity="1"
     stroke-width="10.16889"
     stroke-linecap="butt"
     stroke-linejoin="miter"
     stroke="rgb(0%, 0%, 0%)"
     stroke-opacity="0.1373"
     stroke-miterlimit="4"
     d="M 51.970413 289.059666 C 56.604672 316.988632 74.810692 349.24462 105.926436 385.827631 C 137.373198 422.804007 176.102368 441.292195 222.113947 442.078927 C 245.285245 442.078927 266.801451 436.178441 286.000526 423.984104 C 305.199602 412.183133 319.764418 396.84187 329.032938 379.140413 C 356.838496 420.837179 390.602388 442.078927 429.993595 442.078927 C 454.819986 442.078927 476.005173 434.604978 493.880175 420.050447 C 512.086195 405.495916 521.354715 385.827631 522.016752 361.045591 C 522.016752 341.770671 517.382492 326.036043 508.113973 313.841706 C 498.514435 302.040735 489.576934 294.566786 480.970452 291.813226 C 472.363969 289.453032 464.750543 287.879569 458.130172 287.879569 C 445.220448 287.879569 434.958873 291.813226 427.014428 298.893809 C 419.069983 306.367757 415.09776 315.808534 415.09776 328.002871 C 415.09776 358.685397 431.648688 379.533779 465.081561 390.941385 C 457.799153 399.59543 444.227393 403.922453 425.028317 403.922453 C 416.421835 403.922453 410.132482 403.529087 406.16026 401.955625 C 380.671831 391.33475 362.134793 369.306271 349.887106 335.870186 C 310.164881 188.751411 289.972749 102.60432 289.972749 77.822281 C 289.972749 59.334092 295.269046 45.959658 305.861639 38.092344 C 316.785252 29.831664 328.370901 25.898007 340.949606 25.898007 C 365.775997 25.898007 389.940351 36.912247 414.104705 58.940727 C 437.93804 80.969206 454.488968 108.11144 463.09545 139.974063 C 465.081561 146.66128 467.067673 150.201571 469.053784 150.988303 C 471.039895 151.775034 476.336192 152.1684 484.942674 152.955131 L 488.914897 152.955131 C 498.845453 152.955131 504.14175 150.201571 504.14175 145.087817 C 504.14175 144.301086 503.479713 140.760794 502.155639 134.073577 C 491.232027 95.917103 470.708877 62.481018 439.924152 32.97859 C 409.470445 3.476162 373.720442 -11.078369 333.00516 -11.078369 C 286.331545 -11.078369 250.91256 10.163379 227.079225 51.860144 C 199.604685 10.556745 168.488942 -9.898272 133.069957 -9.898272 L 127.111623 -9.898272 C 94.340787 -9.898272 70.83847 -1.244227 56.935691 16.063865 C 43.032912 33.371956 35.750504 51.860144 35.088467 71.135064 C 35.088467 92.376812 41.377819 109.684903 53.956524 123.059337 C 66.535229 136.433771 81.762082 143.120988 98.975047 143.120988 C 127.77366 143.120988 142.007458 128.959823 142.007458 101.030858 C 142.007458 87.656424 138.035235 75.855452 130.09079 66.02131 C 122.146345 56.187167 114.2019 49.49995 106.919492 45.959658 C 99.637084 42.812733 95.333842 40.845904 94.009768 40.845904 L 91.030601 40.059173 C 91.030601 39.272441 93.016713 38.092344 96.988935 36.125516 C 100.961158 34.158687 106.257455 31.798493 112.877826 29.044933 C 119.829215 26.291373 126.118568 25.504642 132.076901 25.898007 C 155.910237 25.898007 176.764405 40.845904 193.97737 71.135064 C 199.935704 81.755938 207.54913 104.177783 217.148668 139.187331 C 226.417188 173.803514 235.685707 209.599793 244.954226 246.969535 C 254.222746 284.339278 259.519043 306.367757 260.843117 313.054974 C 264.484321 331.149797 266.139414 344.130865 266.139414 351.99818 C 266.139414 370.486368 260.843117 383.860802 250.91256 392.121482 C 240.982004 399.988796 229.727373 403.922453 217.148668 403.922453 C 190.336166 403.922453 165.178756 393.301579 142.007458 372.059831 C 118.505141 350.818082 102.285232 323.282483 93.016713 289.846398 C 91.692638 283.945912 90.037546 280.798986 88.051434 280.012255 C 86.065323 279.225524 80.769026 278.832158 72.162544 278.045426 L 57.928747 278.045426 C 53.956524 281.979083 51.970413 285.519375 51.970413 289.059666 Z M 51.970413 289.059666 "
     transform="matrix(0.0118007, 0, 0, -0.00993033, 141.749994, 72.639988)"
     id="path17" />
  <path
     fill-rule="nonzero"
     fill="rgb(0%, 0%, 0%)"
     fill-opacity="1"
     stroke-width="11.199999"
     stroke-linecap="butt"
     stroke-linejoin="miter"
     stroke="rgb(0%, 0%, 0%)"
     stroke-opacity="0.1333"
     stroke-miterlimit="4"
     d="M 21.145934 286.817276 C 21.145934 296.189062 25.885517 312.308533 36.09385 335.17569 C 45.937599 357.667975 61.979265 381.284875 83.854263 406.026389 C 106.093845 430.767903 130.520927 442.763789 157.864675 442.014046 C 185.208423 442.014046 207.448005 434.516618 223.854254 419.146889 C 240.625086 403.777161 249.375085 382.40949 250.104252 355.043875 C 248.645919 342.298247 247.552169 335.17569 246.823002 334.051076 C 246.823002 332.176718 241.718836 316.80699 231.14592 287.94189 C 220.208421 259.451662 209.270921 226.837848 197.968839 190.850191 C 186.666756 154.862534 181.198007 126.372306 181.927173 105.004635 C 181.927173 76.514406 186.666756 56.271349 196.145922 45.025207 C 205.260505 33.779064 219.479254 27.781121 238.073003 27.031378 C 253.385502 27.031378 267.604251 30.780092 281.093833 37.902649 C 294.218832 45.400078 304.791748 52.897506 312.083414 61.144678 C 319.375081 69.016978 328.489663 79.888249 339.062579 94.133363 C 339.062579 94.508235 340.520913 101.25592 344.166746 114.001549 C 347.447995 126.747177 351.822995 146.240491 358.020911 172.856363 C 363.854244 199.847105 370.416744 224.213748 376.979243 247.080905 C 402.500075 347.171576 416.354241 399.278704 418.906324 404.152032 C 427.656323 422.145861 441.875072 431.142775 461.927154 431.142775 C 470.677154 431.142775 477.604237 428.518675 483.072986 424.020218 C 488.177153 419.146889 491.822986 415.398175 494.010486 412.024332 C 495.833402 408.650489 496.562569 405.651518 495.833402 403.027418 C 495.833402 394.405375 479.791737 324.304419 446.979239 193.09942 C 414.166741 61.519549 395.572992 -10.455764 390.833409 -22.826521 C 372.23966 -78.307492 340.156329 -122.167449 293.854249 -155.156135 C 247.916752 -187.769949 201.979255 -204.264291 156.041758 -205.014034 C 126.145927 -205.014034 99.531345 -197.516606 76.92718 -182.89662 C 54.323015 -168.276635 43.020933 -146.15922 43.020933 -116.919249 C 43.020933 -102.299264 45.208432 -89.928507 49.948015 -80.18185 C 54.687598 -70.060321 60.885515 -62.562893 68.906347 -58.064435 C 76.92718 -53.191107 83.48968 -49.817264 88.958429 -47.942907 C 94.427179 -46.06855 99.895929 -44.943936 106.093845 -44.943936 C 135.26051 -44.943936 149.843842 -58.814178 149.843842 -86.929535 C 149.843842 -100.424907 145.833426 -112.045921 138.177176 -122.167449 C 130.156343 -131.914106 122.500094 -138.661792 114.843844 -142.035635 C 107.552178 -145.409478 103.177178 -146.908963 102.083429 -146.908963 L 99.166762 -148.033578 C 100.260512 -151.40742 106.823012 -155.156135 118.125094 -160.029463 C 129.427177 -164.52792 140.729259 -167.15202 152.031342 -167.15202 L 160.052175 -167.15202 C 171.354257 -167.15202 180.104257 -166.402277 185.93759 -164.902792 C 208.177171 -158.904849 228.229253 -146.15922 246.823002 -127.040778 C 265.781334 -107.547464 280.000083 -86.929535 289.843833 -65.186993 C 300.052165 -43.069578 307.708415 -24.326007 313.177164 -8.956279 C 318.281331 6.41345 320.833414 16.160107 320.833414 21.033435 L 315.000081 16.90985 C 310.989665 14.28575 304.791748 10.537035 296.041749 6.038578 C 287.291749 1.16525 278.54175 -2.583464 270.156334 -5.957307 C 256.666752 -9.33115 243.541752 -10.830636 231.14592 -10.830636 C 200.156339 -10.830636 173.177174 -3.708079 149.843842 10.911907 C 126.51051 25.531892 111.198011 49.148792 103.906345 82.137478 C 103.177178 86.635935 103.177178 97.132335 103.177178 112.876935 C 103.177178 151.11382 114.843844 200.596848 138.177176 262.075762 C 161.510508 323.179804 173.177174 362.166433 173.177174 379.035647 C 173.177174 379.78539 173.177174 380.160261 173.177174 380.910004 C 173.177174 386.907947 173.177174 391.031532 173.177174 392.905889 C 173.177174 395.155118 171.718841 397.404347 169.166757 400.028447 C 166.250091 402.652546 162.604258 404.152032 157.864675 404.152032 L 153.854258 404.152032 C 138.541759 404.152032 124.687594 397.779218 111.927178 385.033589 C 99.166762 372.287961 89.323013 358.79259 82.031347 344.172604 C 74.73968 329.177747 68.906347 315.307504 64.895931 302.187004 C 60.885515 288.691633 58.333432 281.194205 56.875098 280.06959 C 55.781348 278.570105 50.312599 277.820362 40.833433 277.820362 L 26.979267 277.820362 C 22.968851 281.943947 21.145934 284.942919 21.145934 286.817276 Z M 21.145934 286.817276 "
     transform="matrix(0.0107143, 0, 0, -0.0104202, 26.249999, 20.359798)"
     id="path19" />
  <path
     fill-rule="nonzero"
     fill="rgb(0%, 0%, 0%)"
     fill-opacity="1"
     d="M 58.5 36.75 L 57.75 36.75 L 57.75 36 L 58.5 36 M 57 36.75 L 56.25 36.75 L 56.25 36 L 57 36 M 55.5 36.75 L 54.75 36.75 L 54.75 36 L 55.5 36 M 54 36.75 L 53.25 36.75 L 53.25 36 L 54 36 M 52.5 36.75 L 51.75 36.75 L 51.75 36 L 52.5 36 M 51 36.75 L 50.25 36.75 L 50.25 36 L 51 36 M 49.5 36.75 L 48.75 36.75 L 48.75 36 L 49.5 36 M 48 36.75 L 47.25 36.75 L 47.25 36 L 48 36 M 46.5 36.75 L 45.75 36.75 L 45.75 36 L 46.5 36 M 45 36.75 L 44.25 36.75 L 44.25 36 L 45 36 M 43.5 36.75 L 42.75 36.75 L 42.75 36 L 43.5 36 M 42 36.75 L 41.25 36.75 L 41.25 36 L 42 36 M 40.5 36.75 L 39.75 36.75 L 39.75 36 L 40.5 36 M 39 36.75 L 38.25 36.75 L 38.25 36 L 39 36 M 37.5 36.75 L 36.75 36.75 L 36.75 36 L 37.5 36 "
     id="path21" />
  <path
     fill-rule="nonzero"
     fill="rgb(0%, 0%, 0%)"
     fill-opacity="1"
     d="M 58.875 36.375 L 58.875 37.125 L 58.125 37.125 L 58.125 36.375 M 58.878906 37.875 L 58.878906 38.625 L 58.128906 38.625 L 58.128906 37.875 M 58.882813 39.375 L 58.882813 40.125 L 58.132813 40.125 L 58.132813 39.375 M 58.886719 40.875 L 58.886719 41.625 L 58.136719 41.625 L 58.136719 40.875 M 58.886719 42.375 L 58.890625 43.125 L 58.140625 43.125 L 58.136719 42.375 M 58.890625 43.875 L 58.894531 44.625 L 58.144531 44.625 L 58.140625 43.875 M 58.894531 45.375 L 58.898438 46.125 L 58.148438 46.125 L 58.144531 45.375 M 58.898438 46.875 L 58.898438 47.625 L 58.148438 47.625 L 58.148438 46.875 M 58.902344 48.375 L 58.902344 49.125 L 58.152344 49.125 L 58.152344 48.375 M 58.90625 49.875 L 58.90625 50.625 L 58.15625 50.625 L 58.15625 49.875 M 58.910156 51.375 L 58.910156 52.125 L 58.160156 52.125 L 58.160156 51.375 M 58.910156 52.875 L 58.914063 53.625 L 58.164063 53.625 L 58.160156 52.875 M 58.914063 54.375 L 58.917969 55.125 L 58.167969 55.125 L 58.164063 54.375 M 58.917969 55.875 L 58.921875 56.625 L 58.171875 56.625 L 58.167969 55.875 M 58.921875 57.375 L 58.921875 58.125 L 58.171875 58.125 L 58.171875 57.375 M 58.925781 58.875 L 58.925781 59.625 L 58.175781 59.625 L 58.175781 58.875 M 58.929688 60.375 L 58.929688 61.125 L 58.179688 61.125 L 58.179688 60.375 M 58.933594 61.875 L 58.933594 62.625 L 58.183594 62.625 L 58.183594 61.875 M 58.933594 63.375 L 58.9375 64.125 L 58.1875 64.125 L 58.183594 63.375 M 58.9375 64.875 L 58.941406 65.625 L 58.191406 65.625 L 58.1875 64.875 M 58.941406 66.375 L 58.941406 66.71875 L 58.191406 66.722656 L 58.191406 66.375 "
     id="path23" />
  <path
     fill-rule="nonzero"
     fill="rgb(0%, 0%, 0%)"
     fill-opacity="1"
     d="M 60.75 36.375 C 60.75 36.671875 60.691406 36.960938 60.578125 37.234375 C 60.464844 37.511719 60.300781 37.753906 60.089844 37.964844 C 59.878906 38.175781 59.636719 38.339844 59.359375 38.453125 C 59.085938 38.566406 58.796875 38.625 58.5 38.625 C 58.203125 38.625 57.914063 38.566406 57.640625 38.453125 C 57.363281 38.339844 57.121094 38.175781 56.910156 37.964844 C 56.699219 37.753906 56.535156 37.511719 56.421875 37.234375 C 56.308594 36.960938 56.25 36.671875 56.25 36.375 C 56.25 36.078125 56.308594 35.789063 56.421875 35.515625 C 56.535156 35.238281 56.699219 34.996094 56.910156 34.785156 C 57.121094 34.574219 57.363281 34.410156 57.640625 34.296875 C 57.914063 34.183594 58.203125 34.125 58.5 34.125 C 58.796875 34.125 59.085938 34.183594 59.359375 34.296875 C 59.636719 34.410156 59.878906 34.574219 60.089844 34.785156 C 60.300781 34.996094 60.464844 35.238281 60.578125 35.515625 C 60.691406 35.789063 60.75 36.078125 60.75 36.375 Z M 60.75 36.375 "
     id="path25" />
  <path
     fill-rule="nonzero"
     fill="rgb(0%, 0%, 0%)"
     fill-opacity="1"
     stroke-width="20.39939"
     stroke-linecap="butt"
     stroke-linejoin="miter"
     stroke="rgb(0%, 0%, 0%)"
     stroke-opacity="0.0667"
     stroke-miterlimit="4"
     d="M 20.8667 286.850172 C 20.8667 296.17611 26.179041 312.28455 36.139681 335.175489 C 46.10032 358.066429 62.037344 380.957369 83.950751 406.391747 C 105.864158 430.978312 130.433735 442.847688 158.323526 441.999875 C 185.549275 441.999875 207.462682 434.369562 224.063748 419.108935 C 240.664814 403.848309 249.297368 382.652994 249.961411 354.675179 C 248.633325 341.95799 247.969283 335.175489 247.30524 334.327677 C 247.30524 331.784239 241.992899 316.523612 230.704174 287.697985 C 220.079492 259.720169 209.45481 226.655478 198.166085 191.04735 C 186.87736 154.591409 181.565019 126.613593 182.229061 105.418279 C 182.229061 76.592651 186.87736 56.245149 196.173957 45.223585 C 205.470554 33.354209 219.415449 27.419521 238.008643 27.419521 C 253.281624 27.419521 267.890562 30.810771 281.171415 37.593272 C 294.452267 45.223585 304.412907 52.853898 311.717376 61.332024 C 319.021845 68.962338 328.318442 79.983901 338.943124 94.396715 C 338.943124 94.396715 340.935252 101.179216 344.255465 113.896405 C 347.575679 126.613593 352.223977 146.113283 358.200361 173.243286 C 364.176745 199.525476 370.153128 224.112041 376.793555 247.00298 C 402.027175 347.044866 416.636113 399.609246 419.292284 403.848309 C 427.924838 421.652373 441.869733 430.978312 461.791012 430.978312 C 470.423567 430.978312 477.728036 428.434874 483.040377 424.195811 C 488.352718 419.108935 491.672931 415.717685 494.329102 412.326435 C 496.32123 408.935184 496.985272 405.543934 496.32123 403.000496 C 496.32123 394.52237 479.720164 324.153926 447.182074 192.742975 C 414.643985 61.332024 395.386749 -10.732045 390.73845 -22.601422 C 372.145256 -78.557052 340.271209 -122.643307 293.788225 -154.860185 C 247.969283 -187.924876 202.150341 -204.033315 156.331398 -204.881128 C 125.785437 -204.881128 99.887774 -197.250814 77.310324 -182.838 C 54.068832 -168.425186 42.780107 -146.382059 42.780107 -116.708619 C 42.780107 -102.295805 45.436278 -89.578616 50.084576 -80.252677 C 54.732875 -70.078926 60.709258 -62.448613 68.67777 -58.20955 C 77.310324 -53.122675 83.950751 -49.731424 89.263092 -48.035799 C 94.575433 -46.340174 99.887774 -44.644549 105.864158 -44.644549 C 135.082034 -44.644549 149.690972 -59.057363 149.690972 -87.035178 C 149.690972 -100.60018 145.706716 -111.621743 137.738204 -121.795494 C 129.769693 -131.969245 122.465224 -138.751746 115.160755 -142.142996 C 107.856286 -145.534247 103.207987 -147.229872 101.879902 -147.229872 L 99.223731 -148.077684 C 100.551817 -151.468935 106.5282 -155.707998 117.816925 -159.947061 C 129.10565 -165.033936 140.394375 -166.729561 151.6831 -166.729561 L 160.315654 -166.729561 C 171.604379 -166.729561 180.236933 -166.729561 186.213317 -165.033936 C 208.126724 -159.099248 228.048003 -146.382059 247.30524 -126.88237 C 265.898434 -107.38268 279.843329 -87.035178 289.803969 -64.992051 C 299.764608 -42.948924 307.73312 -24.297047 313.045461 -9.03642 C 318.357802 6.224206 321.013973 16.397957 321.013973 20.63702 L 315.037589 17.24577 C 311.053333 14.702332 304.412907 10.463269 295.780353 6.224206 C 287.147798 1.137331 278.515244 -2.25392 269.88269 -5.64517 C 256.601837 -9.03642 243.985027 -10.732045 230.704174 -10.732045 C 200.158213 -10.732045 173.596507 -3.949545 149.690972 11.311082 C 126.44948 25.723896 111.176499 49.462648 103.87203 81.679526 C 103.207987 86.766402 103.207987 96.940153 103.207987 113.048592 C 103.207987 151.200158 114.496712 200.373288 137.738204 262.263607 C 161.64374 323.306113 172.932464 362.305492 172.932464 379.261744 C 172.932464 379.261744 172.932464 380.109556 172.932464 380.957369 C 172.932464 386.892057 172.932464 391.13112 172.932464 392.826745 C 172.932464 395.370183 171.604379 397.065808 168.948209 399.609246 C 166.292038 403.000496 162.971825 403.848309 158.323526 403.848309 L 153.675228 403.848309 C 138.402247 403.848309 124.457352 397.913621 111.840542 385.196432 C 99.223731 372.479243 89.263092 358.914242 81.958623 343.653615 C 74.654154 329.240801 68.67777 315.6758 64.693514 302.110799 C 60.709258 288.545797 58.053088 280.915484 56.725002 280.067671 C 55.396917 278.372046 50.084576 278.372046 40.787979 278.372046 L 26.843084 278.372046 C 22.858828 281.763296 20.8667 285.154547 20.8667 286.850172 Z M 20.8667 286.850172 "
     transform="matrix(0.00588253, 0, 0, -0.00460745, 27.002251, 35.78649)"
     id="path27" />
  <path
     fill-rule="nonzero"
     fill="rgb(0%, 0%, 0%)"
     fill-opacity="1"
     stroke-width="17.878518"
     stroke-linecap="butt"
     stroke-linejoin="miter"
     stroke="rgb(0%, 0%, 0%)"
     stroke-opacity="0.0745"
     stroke-miterlimit="4"
     d="M 23.176557 286.79566 C 23.75854 289.02479 24.340523 291.996964 24.922506 294.969138 C 25.504489 298.684355 27.250438 305.371746 30.160353 317.26044 C 32.488285 328.406092 35.980183 338.8087 40.054064 347.725221 C 44.127945 357.384786 48.783809 368.530437 55.185622 381.162175 C 61.005452 393.793914 67.407265 403.453478 74.973044 410.883913 C 82.538823 418.314347 91.268569 425.744781 101.16228 433.175215 C 111.055991 440.60565 122.113668 443.577823 133.753328 442.091737 C 183.803867 442.091737 215.812932 420.543477 229.780524 378.190002 L 240.256219 387.106523 C 281.577012 423.515651 320.569874 442.091737 357.816786 442.091737 C 401.465512 442.091737 435.220526 426.487825 460.245796 395.280001 C 484.689082 363.329133 496.910725 325.433918 496.910725 280.851312 C 496.910725 208.7761 471.885456 142.645235 421.252934 81.715673 C 370.620412 21.529156 313.004095 -9.678668 248.985964 -9.678668 C 234.436389 -9.678668 221.050779 -8.192581 209.993102 -3.734321 C 202.427323 -0.762147 194.861544 4.439157 186.713782 11.126548 C 179.148003 17.813939 172.74619 23.015243 168.090326 28.216547 L 161.106529 35.646981 C 160.524546 35.646981 152.958767 6.668287 138.991175 -51.2891 C 125.023583 -108.503444 118.039787 -137.482138 118.039787 -138.225181 C 118.039787 -141.940399 120.949702 -144.169529 126.187549 -144.912572 C 131.425396 -145.655616 143.647039 -146.398659 162.852479 -147.884746 L 187.877748 -147.884746 C 191.951629 -152.343007 194.279561 -155.31518 194.279561 -156.801267 C 194.279561 -158.287354 193.115595 -164.231702 190.787663 -174.63431 C 189.041714 -182.807787 186.713782 -188.009091 184.967833 -190.238222 C 183.221884 -191.724308 178.56602 -193.210395 172.164207 -193.953439 C 170.418258 -193.953439 166.92636 -193.953439 161.106529 -193.953439 C 155.286699 -193.953439 143.647039 -193.953439 126.769532 -193.210395 C 110.474008 -192.467352 89.52262 -191.724308 65.079333 -191.724308 C 18.520693 -191.724308 -11.160441 -192.467352 -23.964067 -193.953439 L -32.111829 -193.953439 C -36.767693 -189.495178 -39.095625 -185.779961 -39.095625 -182.807787 C -37.931659 -164.974745 -33.275795 -153.08605 -25.710016 -147.884746 L -5.922594 -147.884746 C 16.774743 -147.141703 29.57837 -143.426486 33.070268 -135.996051 C 34.816217 -132.280834 55.185622 -52.032144 94.178484 103.263933 C 132.589362 258.56001 152.958767 341.03783 155.286699 349.954351 C 155.868682 353.669568 155.868682 358.127829 155.868682 364.072176 C 155.868682 391.564783 147.72092 404.939565 130.843413 404.939565 C 116.293838 404.939565 104.072195 396.023044 94.178484 376.703915 C 84.284772 358.127829 76.13701 338.065656 70.899163 315.774354 C 65.661316 294.226094 61.587435 282.337399 59.259503 280.108269 C 57.513554 278.622182 52.275707 277.879139 42.963979 277.879139 L 28.996387 277.879139 C 24.922506 282.337399 23.176557 285.309573 23.176557 286.79566 Z M 177.984037 101.777846 C 192.533612 51.250893 217.558881 25.987416 251.895879 25.987416 C 272.265284 25.987416 291.470723 33.417851 310.09418 49.021763 C 328.717636 64.625675 343.849194 83.944804 356.070837 106.97915 C 367.710497 130.013496 379.932141 165.679581 392.153784 214.720447 C 403.793444 264.504357 410.195257 300.913485 410.77724 324.690875 L 410.77724 330.635222 C 410.77724 380.419132 390.407835 404.939565 350.251007 404.939565 C 342.685228 404.939565 335.119449 404.196522 328.135653 401.967391 C 320.569874 399.738261 313.586078 396.766087 306.020299 393.05087 C 298.454519 389.335653 292.052706 384.877393 286.232876 379.676088 C 279.831063 375.217828 274.593216 370.016524 268.773386 364.81522 C 263.535539 359.613916 258.879675 354.412612 254.223811 349.954351 C 249.567947 345.496091 245.494066 341.03783 243.166134 335.836526 C 240.256219 331.378266 237.928287 327.663048 235.018372 326.176962 L 232.108456 321.718701 C 232.108456 320.975658 230.94449 316.517397 229.198541 308.343919 C 226.870609 299.427398 223.378711 284.56653 218.140864 263.761314 C 212.903017 243.699141 208.247153 225.866099 204.173272 211.748274 C 186.713782 141.159148 177.984037 104.75002 177.984037 101.777846 Z M 177.984037 101.777846 "
     transform="matrix(0.00671197, 0, 0, -0.0052571, 30.078815, 36.480368)"
     id="path29" />
  <path
     fill-rule="nonzero"
     fill="rgb(0%, 0%, 0%)"
     fill-opacity="1"
     stroke-width="21.862138"
     stroke-linecap="butt"
     stroke-linejoin="miter"
     stroke="rgb(0%, 0%, 0%)"
     stroke-opacity="0.0627"
     stroke-miterlimit="4"
     d="M 52.140585 289.393261 C 56.410534 317.371077 74.913645 349.587955 106.226604 386.043896 C 137.539562 422.499837 175.969102 441.151714 222.226881 441.999527 C 244.999942 441.999527 266.349686 436.064839 286.276114 424.195462 C 305.490884 412.326086 319.724047 397.06546 328.975603 379.261395 C 356.73027 420.804212 390.889861 441.999527 430.031059 441.999527 C 454.939094 441.999527 476.288839 434.369214 494.080292 419.9564 C 511.871746 405.543586 521.123302 386.043896 521.83496 360.609519 C 521.83496 341.957642 517.565011 325.849203 508.313455 313.979826 C 498.350241 302.11045 489.810343 294.480137 481.270446 291.936699 C 472.01889 289.393261 464.902308 287.697636 457.785727 287.697636 C 445.687538 287.697636 435.012666 291.936699 427.184427 298.7192 C 418.644529 306.349513 415.086238 315.675452 415.086238 328.39264 C 415.086238 358.913893 431.454376 379.261395 464.902308 391.130772 C 457.785727 399.608898 444.264222 403.84796 425.049452 403.84796 C 416.509554 403.84796 410.104631 403.000148 405.834682 402.152335 C 380.926647 391.130772 361.711877 369.087644 350.325347 336.022954 C 309.760833 188.503564 289.834405 102.874493 289.834405 78.287928 C 289.834405 59.636051 295.52767 46.071049 306.202542 37.592924 C 316.877414 29.96261 328.263945 25.723547 341.073791 25.723547 C 365.981826 25.723547 390.178203 36.745111 413.662922 58.788238 C 437.859299 80.831365 454.227436 107.961368 462.767334 140.178246 C 464.902308 146.960747 467.037283 150.351997 469.172257 151.19981 C 471.307232 152.047623 476.288839 152.047623 484.828736 152.895435 L 489.098685 152.895435 C 499.061899 152.895435 504.043506 150.351997 504.043506 145.265122 C 504.043506 144.417309 503.331848 141.026059 501.908532 134.243558 C 491.23366 96.091992 470.595573 62.179489 439.994273 33.353861 C 409.392973 3.68042 373.810066 -10.732394 333.245552 -10.732394 C 286.276114 -10.732394 250.693207 9.615108 227.208488 52.005737 C 199.453821 10.462921 168.140862 -9.884581 133.269613 -9.884581 L 126.86469 -9.884581 C 94.128415 -9.884581 71.355355 -1.406455 57.122192 16.397609 C 42.889029 33.353861 35.772447 52.005737 35.060789 70.657614 C 35.060789 92.700742 41.465713 109.656993 54.275559 123.221995 C 66.373748 135.939183 81.318569 142.721684 99.110022 142.721684 C 127.576348 142.721684 141.809511 129.156683 141.809511 101.178867 C 141.809511 87.613866 138.25122 75.74449 129.711322 66.418551 C 121.883083 56.2448 114.054843 49.4623 106.938262 46.071049 C 99.82168 42.679799 95.551732 40.984174 94.128415 40.984174 L 91.281783 40.136361 C 91.281783 39.288549 92.705099 37.592924 96.975048 35.897298 C 101.244997 34.201673 106.226604 31.658235 113.343185 29.114798 C 119.748108 26.57136 126.153032 25.723547 131.846297 25.723547 C 156.042674 25.723547 176.68076 40.984174 193.760555 70.657614 C 200.165479 81.679178 207.993718 104.570118 217.245274 139.330434 C 226.49683 173.242937 235.748386 209.698878 244.999942 247.002632 C 254.251498 284.306386 259.944763 306.349513 260.656421 313.132014 C 264.214712 330.936078 266.349686 343.653267 266.349686 352.131393 C 266.349686 370.78327 260.656421 384.348271 250.693207 391.978584 C 240.729993 399.608898 229.343463 403.84796 217.245274 403.84796 C 190.202265 403.84796 165.29423 393.674209 141.809511 371.631082 C 118.324792 350.435768 102.668313 323.305765 92.705099 290.241074 C 91.993441 284.306386 89.858466 280.915136 87.723492 280.067323 C 86.300176 279.21951 80.60691 278.371698 72.067013 278.371698 L 57.83385 278.371698 C 54.275559 281.762948 52.140585 286.002011 52.140585 289.393261 Z M 52.140585 289.393261 "
     transform="matrix(0.00548894, 0, 0, -0.00460745, 51.002866, 62.786489)"
     id="path31" />
  <path
     fill-rule="nonzero"
     fill="rgb(0%, 0%, 0%)"
     fill-opacity="1"
     stroke-width="19.160505"
     stroke-linecap="butt"
     stroke-linejoin="miter"
     stroke="rgb(0%, 0%, 0%)"
     stroke-opacity="0.0706"
     stroke-miterlimit="4"
     d="M 23.16407 286.796313 C 23.787785 289.025444 24.411499 291.997617 25.035213 294.969791 C 25.658928 298.685008 27.530071 305.372399 30.024928 317.261094 C 32.519786 328.406745 36.262072 338.809353 40.004358 347.725874 C 43.746644 357.385439 48.736359 368.53109 54.973502 381.162829 C 61.210646 393.794567 67.447789 403.454132 74.932361 410.884566 C 82.416934 418.315 91.148934 425.745434 101.128364 433.175869 C 111.107794 440.606303 121.710937 443.578477 134.185224 442.09239 C 184.082372 442.09239 215.891804 420.54413 230.237234 378.190655 L 240.216664 387.107176 C 281.381811 423.516304 320.675815 442.09239 358.098675 442.09239 C 401.134965 442.09239 435.439255 426.488478 459.764114 395.280654 C 484.712688 363.329786 497.186975 325.434572 497.186975 280.851966 C 497.186975 208.776753 471.614687 142.645888 421.093825 81.716327 C 370.572962 21.529809 313.191242 -9.678015 248.948664 -9.678015 C 234.603234 -9.678015 221.505233 -8.191928 210.278375 -3.733667 C 202.793803 -0.761494 195.309231 4.43981 187.200944 11.127201 C 179.092657 17.814592 172.855514 23.015896 167.865799 28.2172 L 161.004941 35.647634 C 160.381227 35.647634 152.896655 6.668941 139.174939 -51.288447 C 124.829509 -108.502791 117.968651 -137.481485 117.968651 -138.224528 C 117.968651 -141.939745 120.463509 -144.168876 126.076938 -144.911919 C 131.066653 -145.654962 143.54094 -146.398006 162.876084 -147.884093 L 187.824658 -147.884093 C 192.190659 -152.342353 194.061802 -155.314527 194.061802 -156.800614 C 194.061802 -158.286701 192.814373 -164.231048 190.94323 -174.633656 C 189.072087 -182.807134 187.200944 -188.008438 184.706087 -190.237568 C 182.834944 -191.723655 178.468943 -193.209742 172.2318 -193.952785 C 170.360657 -193.952785 167.242085 -193.952785 161.004941 -193.952785 C 154.767798 -193.952785 143.54094 -193.952785 126.700652 -193.209742 C 110.484079 -192.466698 89.901506 -191.723655 64.952932 -191.723655 C 18.174356 -191.723655 -11.140219 -192.466698 -24.23822 -193.952785 L -31.722792 -193.952785 C -36.712507 -189.494525 -39.207364 -185.779308 -39.207364 -182.807134 C -37.959936 -164.974092 -33.593935 -153.085397 -26.109363 -147.884093 L -6.150504 -147.884093 C 16.926927 -147.141049 29.401214 -143.425832 33.1435 -135.995398 C 35.014643 -132.280181 55.597217 -52.03149 94.267506 103.264586 C 132.937796 258.560663 152.896655 340.29544 154.767798 349.955005 C 155.391512 353.670222 156.015227 358.128482 156.015227 364.07283 C 156.015227 391.565437 147.90694 404.940218 131.066653 404.940218 C 116.097508 404.940218 104.246936 396.023697 94.267506 376.704568 C 84.288077 358.128482 76.17979 338.06631 71.190075 315.775007 C 65.576646 294.226748 61.83436 282.338053 58.715788 280.108922 C 57.46836 278.622836 52.478645 277.879792 43.12293 277.879792 L 28.7775 277.879792 C 25.035213 282.338053 23.16407 285.310226 23.16407 286.796313 Z M 177.845229 101.778499 C 192.814373 51.251546 217.139233 25.98807 252.067236 25.98807 C 272.026095 25.98807 291.36124 33.418504 310.072671 49.022416 C 328.784101 64.626328 343.753245 83.945457 356.227532 106.979803 C 368.078105 130.01415 379.928678 165.680234 391.77925 214.721101 C 404.253537 264.50501 410.490681 300.914138 411.114395 324.691528 L 411.114395 330.635876 C 411.114395 380.419785 390.531822 404.940218 349.990389 404.940218 C 342.505817 404.940218 335.644959 404.197175 328.160387 401.968045 C 320.675815 399.738914 313.191242 396.766741 305.70667 393.051524 C 298.845812 389.336306 291.984955 384.878046 285.747811 379.676742 C 280.134382 375.218481 274.520953 370.017177 268.907524 364.815873 C 263.917809 359.614569 258.928094 354.413265 253.938379 349.955005 C 249.572379 345.496744 245.830093 340.29544 242.711521 335.83718 C 240.216664 331.378919 237.721806 327.663702 235.226949 326.177615 L 232.108377 321.719354 C 232.108377 320.976311 230.860948 316.51805 228.989805 308.344573 C 227.118662 299.428052 223.376376 284.567183 217.762947 263.761967 C 212.773232 243.699794 207.783518 225.866752 204.041231 211.748927 C 186.57723 141.159801 177.845229 104.750673 177.845229 101.778499 Z M 177.845229 101.778499 "
     transform="matrix(0.00626288, 0, 0, -0.0052571, 54.323676, 63.480372)"
     id="path33" />
  <path
     fill-rule="nonzero"
     fill="rgb(0%, 0%, 0%)"
     fill-opacity="1"
     stroke-width="16.091428"
     stroke-linecap="butt"
     stroke-linejoin="miter"
     stroke="rgb(0%, 0%, 0%)"
     stroke-opacity="0.0902"
     stroke-miterlimit="4"
     d="M 366.268007 683.000198 C 366.810187 683.000198 390.666113 684.571626 437.835783 688.238293 C 485.547634 691.38115 509.40356 693.476388 511.0301 694.000198 C 519.162802 694.000198 522.958063 691.38115 522.958063 686.143055 C 522.958063 681.428769 498.559957 580.857342 449.763746 383.904965 C 401.509715 187.476397 376.569429 86.90497 374.942889 83.238303 C 373.858529 79.047827 373.316349 73.809732 373.858529 68.047827 C 373.858529 39.762113 383.075591 26.143066 402.051895 26.143066 C 408.015877 26.666875 414.522038 29.809733 422.11256 35.047828 C 436.209243 48.143066 449.763746 80.095446 462.776069 130.904969 C 467.11351 144.524016 470.366591 151.33354 473.077491 151.85735 C 474.161852 152.904969 477.414932 152.904969 482.836734 152.904969 L 490.969435 152.904969 C 501.270858 152.904969 506.150479 150.285921 506.150479 145.047826 C 506.150479 141.904969 505.066119 136.143064 502.897398 128.809731 C 494.222516 95.809731 484.463274 68.571637 473.077491 48.143066 C 461.691709 27.190685 452.474647 14.095447 444.884125 7.809733 C 437.835783 2.047828 428.076541 -3.190267 417.232939 -7.904553 C 411.811137 -9.475981 403.678436 -9.999791 392.834833 -9.999791 C 370.063268 -9.999791 351.086964 -4.761695 335.90592 5.190685 C 320.724877 15.143066 310.423454 25.095447 306.086014 36.095447 L 300.122032 50.762113 C 299.579852 51.809732 297.953312 51.285923 295.784591 50.238304 C 294.700231 48.666875 293.073691 47.095447 291.98933 46.047828 C 252.410181 8.857352 212.831032 -9.999791 172.167523 -9.999791 C 135.299275 -9.999791 102.768467 3.095447 75.117281 29.809733 C 46.923915 56.524018 32.827232 98.952589 32.827232 157.095445 C 32.827232 189.047825 39.875573 221.524015 52.887896 255.047824 C 66.442399 288.571633 82.165623 316.857347 101.141927 340.952584 C 132.588374 379.190679 163.492641 405.381155 194.939088 420.047821 C 226.385535 434.714488 254.578902 442.047821 280.061368 442.047821 C 317.471796 442.047821 345.122982 427.904964 364.099287 400.14306 C 367.352367 395.952584 368.978908 394.904965 368.978908 395.952584 C 369.521088 398.571631 378.73815 435.238297 396.087914 504.904963 C 413.437678 575.095438 422.65474 611.762104 423.7391 615.95258 C 423.7391 624.857342 421.57038 630.095437 417.232939 632.190675 C 412.353318 633.762103 399.340995 635.857341 378.19597 636.90496 L 357.050945 636.90496 C 353.255684 641.095437 351.086964 643.714484 351.086964 644.762103 C 351.086964 646.333532 351.629144 652.619246 353.255684 664.143055 C 356.508765 676.714484 360.846206 683.000198 366.268007 683.000198 Z M 352.171324 325.762109 C 336.4481 378.66687 311.507815 404.857345 276.808287 404.857345 C 253.494542 404.857345 231.265157 394.904965 210.120132 373.952584 C 188.432927 353.524013 172.167523 326.285918 160.23956 292.762109 C 140.721076 240.381158 127.166573 185.904968 119.033871 128.809731 C 119.033871 127.238302 119.033871 123.571636 119.033871 117.809731 C 119.033871 112.571636 118.491691 108.904969 117.949511 105.762112 C 117.949511 75.90497 123.913492 55.476399 135.841455 43.952589 C 147.769418 32.42878 162.408281 26.666875 179.215865 26.143066 C 214.999753 26.143066 251.868001 50.238304 289.82061 97.90497 L 297.953312 108.904969 Z M 352.171324 325.762109 "
     transform="matrix(0.00720471, 0, 0, -0.00745739, 72.001771, 45.675428)"
     id="path35" />
  <path
     fill-rule="nonzero"
     fill="rgb(0%, 0%, 0%)"
     fill-opacity="1"
     stroke-width="16.096001"
     stroke-linecap="butt"
     stroke-linejoin="miter"
     stroke="rgb(0%, 0%, 0%)"
     stroke-opacity="0.0902"
     stroke-miterlimit="4"
     d="M 23.054486 286.927135 C 23.578445 289.136319 24.102403 291.897799 25.15032 295.211576 C 25.674278 298.525352 27.246153 305.705201 29.865945 316.751123 C 32.485737 328.349341 36.153445 338.842966 39.821154 348.232 C 44.012821 357.068737 49.252404 368.114659 55.015946 380.817468 C 60.779488 393.520278 67.590947 403.461608 74.926364 411.193753 C 82.261781 418.373602 91.169073 425.553451 101.124282 432.7333 C 111.079491 440.465445 122.082616 443.226926 134.133659 442.122333 C 183.909703 442.122333 215.871163 420.582786 230.018039 378.055988 L 239.973247 386.892725 C 281.365958 423.896563 320.662835 442.122333 357.863878 442.122333 C 401.352422 442.122333 435.409716 426.105747 460.035759 395.177167 C 484.661802 363.69629 497.236802 325.58786 497.236802 280.851878 C 497.236802 209.053387 471.562843 142.777858 420.738882 82.025289 C 370.438879 21.27272 312.80346 -9.103565 248.88054 -10.208157 C 234.209706 -10.208157 221.110747 -7.998973 210.107621 -4.1329 C 202.772204 -0.819124 194.912829 4.151541 187.053453 10.779094 C 179.194078 17.406647 172.906577 23.481904 168.190952 27.900273 L 160.855535 36.184714 C 160.331577 35.080122 152.99616 6.360726 138.849284 -51.078067 C 125.226367 -108.516859 117.89095 -137.236256 117.89095 -137.788552 C 117.89095 -142.20692 120.510741 -144.416105 125.750325 -144.968401 C 131.513867 -145.520697 143.564909 -146.625289 162.951369 -147.729881 L 188.10137 -147.729881 C 191.769078 -152.700546 193.864912 -155.462026 193.864912 -157.118914 C 193.864912 -158.223507 192.816995 -164.298763 191.24512 -174.792389 C 189.149287 -183.07683 187.053453 -188.047495 184.95762 -190.256679 C 182.861786 -191.913568 178.670119 -193.570456 171.858661 -194.122752 C 170.810744 -194.122752 167.143035 -194.122752 160.855535 -194.122752 C 155.091993 -194.122752 143.564909 -193.570456 126.798242 -193.01816 C 110.555533 -192.465864 89.597198 -191.913568 64.971155 -191.913568 C 18.338861 -191.913568 -11.526765 -192.465864 -24.101766 -194.122752 L -31.961141 -194.122752 C -36.676767 -189.152087 -38.7726 -185.838311 -38.7726 -183.07683 C -37.724683 -164.85106 -33.533016 -153.252842 -26.197599 -147.729881 L -5.763223 -147.729881 C 16.766986 -147.177585 29.865945 -143.311512 33.009695 -136.131663 C 35.105529 -132.265591 55.539905 -52.182659 93.788865 103.01254 C 132.561784 258.207738 152.99616 340.499855 155.091993 349.888888 C 155.615952 353.202664 156.13991 358.173329 156.13991 364.248586 C 156.13991 391.311094 147.756576 405.118496 130.989909 405.118496 C 116.319075 405.118496 103.744074 395.729463 93.788865 376.951396 C 83.833656 358.173329 76.498239 337.738374 71.258656 316.198827 C 65.495114 294.106984 61.827405 281.95647 59.207613 279.747286 C 57.635738 278.642693 52.396155 278.090397 42.964904 278.090397 L 28.818028 278.090397 C 25.15032 281.95647 23.054486 285.270246 23.054486 286.927135 Z M 178.146161 101.907948 C 192.816995 51.096708 217.443038 26.243384 252.02429 26.243384 C 271.934707 26.243384 291.321167 33.423233 310.183668 48.887524 C 328.52221 64.351814 344.240961 83.682177 355.768045 106.878612 C 367.819087 129.522752 379.87013 165.421997 391.921172 215.128644 C 403.972214 264.282995 410.259714 300.734537 410.783673 325.035564 L 410.783673 331.110821 C 410.783673 380.265172 390.873255 405.118496 350.004503 405.118496 C 342.669086 405.118496 335.333669 404.013904 327.998252 401.80472 C 320.662835 400.147831 313.327418 396.834055 305.992001 392.967982 C 298.656584 389.10191 291.845125 384.683541 286.081583 380.265172 C 279.794083 375.294508 274.554499 370.323843 268.790957 364.800882 C 263.551374 359.830217 258.835748 354.859553 254.120123 349.888888 C 249.404498 345.470519 245.736789 340.499855 243.116998 336.081486 C 240.497206 331.110821 237.877414 327.797045 235.257622 326.140156 L 232.113872 322.274084 C 232.113872 321.169492 231.065955 316.751123 228.970122 307.914386 C 226.874288 299.077648 223.20658 284.71795 217.966996 263.730699 C 212.727413 243.295744 208.011788 226.174566 203.820121 211.814868 C 186.529495 141.120969 178.146161 104.669428 178.146161 101.907948 Z M 178.146161 101.907948 "
     transform="matrix(0.00745527, 0, 0, -0.00707275, 56.999998, 28.627019)"
     id="path37" />
  <path
     fill-rule="nonzero"
     fill="rgb(0%, 0%, 0%)"
     fill-opacity="1"
     stroke-width="8.387621"
     stroke-linecap="butt"
     stroke-linejoin="miter"
     stroke="rgb(0%, 0%, 0%)"
     stroke-opacity="0.0627"
     stroke-miterlimit="4"
     d="M 32.901365 157.029716 C 33.095986 224.506336 58.165451 288.672287 108.755764 349.137314 C 159.346077 409.602342 216.935351 440.604103 280.131634 441.18097 C 313.90425 441.507678 343.993527 424.231877 370.226367 392.161904 C 380.396551 412.154475 395.981045 421.666191 416.060806 422.153507 C 424.758705 422.306606 432.610722 419.365681 438.970851 413.72099 C 445.703951 408.75224 449.007144 402.250488 448.880428 394.215734 C 449.026747 385.114784 436.95775 332.02157 412.300464 234.260153 C 387.270206 135.822793 374.728299 80.311499 374.028737 68.116525 C 374.04834 50.980821 376.132679 40.709104 380.827822 35.168981 C 385.522965 29.628858 392.728976 27.078189 401.699909 26.165091 C 408.086816 26.813013 414.946632 29.879017 421.906386 34.687159 C 436.398741 48.463665 449.57948 80.156385 462.840553 130.726949 C 466.970024 144.454924 470.053738 151.604599 472.737702 151.785717 C 474.129653 152.747345 477.832596 153.21415 482.827552 152.900444 L 487.176501 152.976993 C 499.204371 152.920955 506.037409 149.694344 506.383603 144.077671 C 505.810756 139.917451 504.292089 130.921069 500.808625 116.802838 C 497.698133 103.36055 490.957857 84.900981 480.687736 63.166271 C 471.063621 41.041306 460.074333 24.247327 448.738852 13.070021 C 440.560244 4.491913 429.79761 -2.525173 417.096956 -8.371494 C 411.356055 -9.409672 403.304163 -9.953026 392.941279 -10.001556 C 370.550526 -9.994047 351.143549 -4.579003 335.63939 4.787123 C 320.508203 14.829192 310.744944 25.233496 306.349613 36.000036 L 299.843166 50.745679 C 299.570131 51.811876 297.532174 51.240503 296.140223 50.278874 C 294.3753 48.641304 293.629356 47.28942 291.864433 45.65185 C 252.663158 8.949358 212.796272 -10.227174 171.717708 -9.745353 C 135.261128 -10.253179 102.934018 2.96697 74.73638 29.915095 C 47.184748 56.472964 32.933396 99.329989 32.901365 157.029716 Z M 351.170838 327.967934 C 350.724706 331.842467 349.459471 338.915592 346.083119 349.967819 C 342.706767 361.020046 334.981466 371.995724 323.007153 384.636992 C 311.032839 397.278259 296.07475 404.511991 277.386939 404.986304 C 253.3312 405.098381 231.3598 394.938742 210.080788 373.545758 C 188.528741 353.21897 171.944872 326.285863 159.683175 293.13669 C 140.954236 240.461751 127.120316 185.730967 119.200393 129.230025 C 118.727483 126.811944 119.173615 122.937411 118.873802 117.710994 C 118.573989 112.484576 119.020121 108.610043 117.528232 105.906275 C 118.140286 75.795087 123.973949 55.147085 136.0482 44.247957 C 147.749478 32.672887 162.434534 26.505351 179.457359 26.135607 C 204.532077 26.309216 229.187441 36.649974 253.523389 58.900018 C 278.505344 80.759807 293.197574 98.020591 298.246087 110.292114 C 299.365003 112.31994 308.123633 148.486586 325.068045 216.659659 C 341.739423 285.898928 350.225019 323.131772 351.170838 327.967934 Z M 351.170838 327.967934 "
     transform="matrix(0.00453507, -0.00261833, -0.00250237, -0.00433423, 96.622642, 45.497218)"
     id="path39" />
  <path
     fill-rule="nonzero"
     fill="rgb(0%, 0%, 0%)"
     fill-opacity="1"
     stroke-width="8.387621"
     stroke-linecap="butt"
     stroke-linejoin="miter"
     stroke="rgb(0%, 0%, 0%)"
     stroke-opacity="0.0627"
     stroke-miterlimit="4"
     d="M 52.203344 289.043598 C 56.486308 317.098942 74.388969 349.544153 105.911324 386.379233 C 137.060708 422.538371 175.908614 441.429216 222.082072 442.375828 C 245.118832 441.978064 266.836801 436.068196 285.844028 423.684596 C 305.224226 411.976938 319.409594 397.098708 329.046137 378.65965 C 356.892328 421.320539 390.845216 442.26723 430.258795 441.889977 C 454.314534 441.7779 476.305537 434.801835 493.820875 419.714467 C 511.709186 405.303041 521.618764 385.797786 521.884623 361.30327 C 522.077323 341.35923 517.201908 326.27937 507.804447 313.931298 C 498.779957 302.259168 489.309336 294.461571 481.157506 292.176078 C 472.632705 289.214643 464.853847 287.605091 458.193906 288.023366 C 445.147057 287.793718 434.984048 291.229466 427.058872 298.720866 C 419.133695 306.212265 415.011399 315.912608 414.691983 327.821895 C 415.098909 358.21877 431.382965 379.925461 465.1092 391.095259 C 457.929967 399.938542 444.436988 403.583428 424.730198 403.772054 C 416.405272 404.294897 410.018365 403.646975 405.569478 401.828286 C 380.914114 391.487529 361.946094 369.59972 350.330403 336.060292 C 310.101052 188.223135 289.846272 103.123495 289.73916 77.953038 C 290.031797 59.751136 295.246232 45.786004 305.855372 38.475723 C 316.737547 30.099244 328.192569 25.882985 341.239418 26.112633 C 365.295156 26.000556 390.323493 37.017256 413.640462 58.981613 C 437.97641 81.231658 454.560279 108.164765 462.746062 140.171191 C 464.810798 147.035179 466.675658 150.414889 468.713615 150.986262 C 470.751573 151.557635 476.492473 152.595813 485.190372 152.748912 L 488.893314 153.215716 C 499.256199 153.264247 503.778245 150.53246 504.124439 144.915787 C 503.751467 144.239845 503.551592 140.755567 502.132863 133.501324 C 490.963303 96.087363 470.649714 62.394836 439.900081 33.204254 C 409.150447 4.013673 373.559352 -10.535835 332.753822 -11.12021 C 286.30733 -11.000624 251.422972 10.07316 227.08177 51.815458 C 199.981524 10.506452 168.066593 -9.868865 132.628991 -10.091005 L 126.615057 -10.062986 C 93.861419 -10.104007 70.951374 -1.67149 56.59291 16.015077 C 42.880452 33.311388 35.927873 51.931564 35.362201 71.199663 C 34.896466 92.209901 41.263769 109.993527 53.718167 123.19866 C 66.818571 136.013537 81.930155 143.107172 98.952981 142.737428 C 127.730641 143.377842 142.288981 129.175553 142.354965 101.196759 C 141.928437 87.935589 137.898903 75.949752 129.99333 66.305448 C 121.714785 55.985201 114.655093 49.434919 106.776298 46.083229 C 99.54351 42.341283 95.467595 41.198537 93.802609 41.303105 L 91.39168 40.05579 C 91.018708 39.379848 92.956728 38.209083 96.832767 35.867551 C 101.081779 34.201961 106.622804 31.755861 112.809836 28.919505 C 120.015846 26.368836 126.302816 25.27462 132.043716 26.312798 C 156.099455 26.200721 176.33271 41.015404 193.762461 71.042535 C 199.730014 81.857605 207.689143 104.087139 216.720808 139.187588 C 226.398479 173.897782 235.803115 209.674173 245.307689 247.192703 C 254.439291 284.035291 259.714457 306.083707 261.133186 313.33795 C 264.170519 331.330714 265.88906 343.811374 266.015776 351.846128 C 266.09611 370.723971 261.15471 383.622906 250.918542 391.609129 C 241.055346 400.271295 229.600323 404.487553 217.199482 403.86765 C 190.459779 403.798609 165.804415 393.457852 141.841439 371.883749 C 118.897441 350.595333 102.313572 323.662226 93.008873 289.627974 C 91.690082 284.11587 89.825222 280.73616 87.787264 280.164787 C 85.749307 279.593414 81.027385 278.840923 71.956514 278.011882 L 58.26366 278.172489 C 54.114585 281.580218 52.003469 285.55932 52.203344 289.043598 Z M 52.203344 289.043598 "
     transform="matrix(0.00453507, -0.00261833, -0.00250237, -0.00433423, 99.021704, 44.112123)"
     id="path41" />
  <path
     fill-rule="nonzero"
     fill="rgb(0%, 0%, 0%)"
     fill-opacity="1"
     stroke-width="8.387621"
     stroke-linecap="butt"
     stroke-linejoin="miter"
     stroke="rgb(0%, 0%, 0%)"
     stroke-opacity="0.0627"
     stroke-miterlimit="4"
     d="M 56.078135 236.8228 C 56.078135 236.8228 56.004976 241.373276 55.858657 250.474226 C 55.985373 258.50898 60.734072 265.554086 70.004818 269.867404 L 369.136506 270.313148 L 369.033237 419.984011 L 369.948946 569.94056 C 376.462568 578.623236 383.04935 582.755437 389.063285 582.727418 C 397.761184 582.880517 404.494285 577.911767 409.262587 567.821168 L 408.550085 269.935895 L 706.662794 270.095951 C 716.725866 264.918064 722.34005 257.921489 722.213335 249.886735 C 722.086619 241.851982 716.691913 235.197131 707.048195 230.20787 L 408.935486 230.047814 L 408.86899 -68.227715 C 403.647381 -77.690902 397.706606 -82.213358 391.046664 -81.795083 L 389.008707 -82.366456 L 386.697715 -81.871633 C 379.018795 -81.739045 372.931701 -77.16055 369.455411 -67.850462 L 369.148935 229.749125 L 70.390219 229.979323 C 60.973154 234.766955 56.004976 241.373276 55.858657 250.474226 Z M 56.078135 236.8228 "
     transform="matrix(0.00453507, -0.00261833, -0.00250237, -0.00433423, 102.623456, 42.03265)"
     id="path43" />
  <path
     fill-rule="nonzero"
     fill="rgb(0%, 0%, 0%)"
     fill-opacity="1"
     stroke-width="8.387621"
     stroke-linecap="butt"
     stroke-linejoin="miter"
     stroke="rgb(0%, 0%, 0%)"
     stroke-opacity="0.0627"
     stroke-miterlimit="4"
     d="M 72.980853 647.114306 C 73.007631 653.406921 74.153325 661.727361 76.964005 669.943232 C 79.774685 678.159104 83.404468 683.176384 89.418403 683.148365 C 89.418403 683.148365 113.574079 684.778426 160.866453 687.752864 C 208.531799 691.403243 232.687476 693.033305 234.079427 693.994933 C 241.758347 693.862345 246.280393 691.130558 246.253615 684.837944 C 245.58083 678.935585 234.830624 631.354475 212.338012 542.199185 C 206.689874 519.474827 200.668764 496.074528 194.920689 471.608031 C 188.89958 448.207732 184.197262 430.319536 180.167728 418.3337 L 176.384451 398.989052 C 176.284513 397.246913 178.322471 397.818286 182.225289 401.769369 C 214.53997 429.113242 248.366142 442.02518 282.784765 441.961633 C 324.236301 442.155753 357.755486 426.412954 383.069286 395.799433 C 408.383085 365.185912 421.542299 326.593676 421.900921 280.412981 C 422.325528 206.253491 395.764175 139.383773 342.86287 79.413569 C 290.607572 19.053111 233.39127 -11.272709 173.251923 -10.992516 C 139.479307 -11.319224 109.463189 1.406101 82.184592 26.897774 C 54.905995 52.389446 40.554705 93.504331 39.77673 149.852175 L 39.630411 158.953125 C 39.783905 173.280493 42.548203 192.339455 48.296278 216.805951 C 53.398346 241.662703 69.869849 307.417695 96.691808 413.785239 C 130.653793 545.580909 147.325171 614.820179 146.80588 623.245187 C 146.932595 631.279941 134.458594 635.210513 108.837808 637.169298 C 105.507837 637.378435 102.823873 637.197317 101.158888 637.301886 L 95.79096 636.93965 C 89.131018 637.357924 84.782069 637.281375 82.744112 636.710002 C 81.079126 636.81457 78.4951 638.375591 75.911073 639.936612 C 73.700019 642.173576 72.134971 644.020283 72.980853 647.114306 Z M 336.228296 324.958121 L 336.255075 331.250735 C 335.723355 380.239767 315.750706 404.922909 275.318148 405.014476 C 263.290279 405.070514 252.081513 401.927961 239.753831 396.757583 C 228.072156 391.196949 216.663515 384.570117 206.819922 376.096579 C 196.976329 367.62304 188.151714 359.435187 180.719051 352.208964 C 173.932394 344.592485 167.518709 337.651948 163.043044 329.540645 L 157.275365 322.209852 L 136.274641 235.758329 C 121.321805 178.99972 114.301319 138.178029 113.921172 114.073769 C 114.060316 81.544499 121.732062 57.983593 137.855449 41.934596 C 148.264715 31.140037 162.030729 26.428954 178.034575 25.773523 C 199.779322 26.15627 222.123695 36.991851 245.067692 58.280267 C 261.970977 73.304088 274.725187 91.735637 285.368281 114.146289 C 294.992395 136.271254 306.335052 170.876879 318.104236 218.743675 C 330.246393 267.286413 335.948087 302.595999 336.228296 324.958121 Z M 336.228296 324.958121 "
     transform="matrix(0.00453507, -0.00261833, -0.00250237, -0.00433423, 107.159439, 39.413798)"
     id="path45" />
  <path
     fill-rule="nonzero"
     fill="rgb(0%, 0%, 0%)"
     fill-opacity="1"
     stroke-width="8.387621"
     stroke-linecap="butt"
     stroke-linejoin="miter"
     stroke="rgb(0%, 0%, 0%)"
     stroke-opacity="0.0627"
     stroke-miterlimit="4"
     d="M 20.687474 287.059997 C 20.541155 296.160947 26.162515 312.592691 35.786629 334.717655 C 45.783716 357.518562 62.16771 380.967392 83.646597 405.844654 C 106.144463 431.007604 130.526793 442.414558 157.912502 442.093344 C 185.298212 441.772129 207.289215 434.796065 224.431581 419.032755 C 240.927941 403.659701 249.072596 382.516875 250.157559 354.823767 C 248.439017 342.343107 248.039267 335.374551 247.293323 334.022667 C 247.193386 332.280528 241.944998 316.524727 231.275127 287.821461 C 220.605255 259.118195 209.089502 227.320906 197.646908 190.973142 C 186.577286 155.301319 180.90237 126.284347 182.014112 104.883854 C 181.707124 76.229118 186.89478 55.971372 196.285067 44.891125 C 205.675354 33.810879 219.34143 27.357657 238.029241 26.883344 C 253.387081 26.618168 267.652783 30.617781 281.099381 37.815986 C 294.54598 45.01419 305.03558 53.097474 311.822237 60.713953 C 318.981866 69.006374 328.27939 79.612307 338.795768 93.988205 C 339.16874 94.664147 340.214496 101.242448 343.970995 114.294481 C 347.354522 126.670573 352.156778 146.300908 358.377763 173.185485 C 364.225775 199.394121 370.346823 224.536559 376.640967 246.870662 C 402.417169 346.659905 416.151151 399.64855 419.407963 403.989888 C 427.813224 422.344888 442.005766 430.894976 462.085528 431.382292 C 470.410454 430.859448 477.616465 428.308779 483.057552 424.12054 C 488.125668 419.256359 491.90177 415.172688 493.739852 412.259783 C 496.223941 408.956623 497.043045 405.758031 496.197163 402.664008 C 496.070447 394.629255 479.672104 324.323788 446.729098 192.813805 C 414.159064 61.979764 395.622826 -10.639215 391.22032 -23.300994 C 372.018472 -78.394013 340.096366 -122.197649 293.789018 -154.607333 C 248.127676 -187.407272 201.700787 -204.423391 155.900301 -204.69406 C 125.830627 -204.553964 99.490675 -197.654448 77.253415 -183.319572 C 54.370149 -168.59444 43.268495 -146.566535 43.302448 -116.845602 C 42.809935 -102.127979 45.174484 -90.037574 49.750086 -80.184132 C 54.698661 -69.654748 61.112346 -62.714211 69.091079 -57.620382 C 76.696839 -53.202494 83.556656 -50.136491 89.024521 -48.032116 C 94.492387 -45.92774 100.233287 -44.889563 106.247222 -44.917582 C 135.297917 -45.343365 150.229228 -58.869712 150.295213 -86.848506 C 149.868685 -100.109676 145.839151 -112.095513 137.933578 -121.739818 C 129.655032 -132.060064 122.595341 -138.610346 114.716546 -141.962036 C 107.856729 -145.02804 103.407842 -146.846728 101.742857 -146.74216 L 99.331928 -147.989475 C 100.151031 -151.188066 106.611097 -155.090619 117.693148 -159.98282 C 129.794176 -164.589334 140.70313 -166.673198 151.71202 -167.014923 L 160.409919 -166.861824 C 171.41881 -167.20355 179.843674 -165.984254 186.230581 -165.336331 C 208.002106 -158.66097 228.408458 -146.654623 246.903569 -127.184895 C 265.398679 -107.715168 280.290785 -86.970106 289.914899 -64.845141 C 300.185021 -43.110431 307.944275 -24.365176 312.819691 -9.285317 C 318.068078 6.470484 320.978695 16.428495 320.905536 20.97897 L 315.337732 17.132456 C 311.16188 14.247571 304.94807 10.791312 296.323331 6.087738 C 287.698592 1.384164 278.427846 -2.929155 269.903044 -5.89059 C 256.656321 -9.604516 243.882507 -10.900362 230.835659 -11.13001 C 200.765985 -10.989913 173.134019 -3.309887 149.877781 10.739303 C 126.348508 25.85469 111.643849 49.157929 103.825785 81.819786 C 103.106619 86.760517 102.687266 96.927665 102.940697 112.997172 C 103.101366 150.752859 114.324482 200.752049 137.902057 262.214232 C 161.479633 323.676416 173.395137 362.442261 173.002561 378.902024 C 173.375533 379.577965 173.102499 380.644163 173.102499 380.644163 C 173.129277 386.936777 172.683146 390.811311 173.156055 393.229392 C 173.255993 394.971531 172.063917 397.49418 169.206856 400.121399 C 166.349795 402.748617 162.74679 404.023951 158.39784 403.947402 L 154.048891 403.870853 C 138.691051 404.136028 124.598446 397.328079 111.871014 385.189144 C 99.416616 371.984012 89.27321 358.284056 82.086803 343.699021 C 74.900396 329.113985 69.105939 315.490578 64.976468 301.762603 C 61.219969 288.710569 58.136255 281.560895 57.390311 280.209011 C 55.625388 278.571441 50.25746 278.209205 40.913555 278.446361 L 26.847728 277.931027 C 23.071625 282.014697 21.233543 284.927602 20.687474 287.059997 Z M 20.687474 287.059997 "
     transform="matrix(0.00453507, -0.00261833, -0.00250237, -0.00433423, 109.104979, 38.290538)"
     id="path47" />
  <path
     fill-rule="nonzero"
     fill="rgb(0%, 0%, 0%)"
     fill-opacity="1"
     stroke-width="8.387621"
     stroke-linecap="butt"
     stroke-linejoin="miter"
     stroke="rgb(0%, 0%, 0%)"
     stroke-opacity="0.0627"
     stroke-miterlimit="4"
     d="M 56.13805 237.300513 C 56.13805 237.300513 55.691919 241.175046 56.191607 249.885742 C 56.045288 258.986693 60.421015 265.355856 70.064733 270.345117 L 368.823449 270.114919 L 368.72018 419.785782 L 370.008861 570.418273 C 376.522483 579.100949 383.109265 583.23315 389.1232 583.205131 C 397.448127 582.682287 404.181227 577.713538 408.94953 567.622939 L 409.256007 270.023352 L 707.368716 270.183409 C 717.058815 264.32958 722.026993 257.723259 721.900277 249.688506 C 722.146534 242.329694 717.397834 235.284589 706.735138 230.009641 L 408.622428 229.849585 L 408.928905 -67.750002 C 403.707296 -77.213189 397.76652 -81.735645 390.733607 -81.993312 L 389.068622 -81.888744 L 387.030664 -82.460117 C 378.705738 -81.937274 372.618643 -77.358779 369.142354 -68.048691 L 369.208849 230.226838 L 70.077162 229.781094 C 60.660097 234.568726 55.691919 241.175046 56.191607 249.885742 Z M 56.13805 237.300513 "
     transform="matrix(0.00453507, -0.00261833, -0.00250237, -0.00433423, 112.335317, 36.425503)"
     id="path49" />
  <path
     fill-rule="nonzero"
     fill="rgb(0%, 0%, 0%)"
     fill-opacity="1"
     stroke-width="8.387621"
     stroke-linecap="butt"
     stroke-linejoin="miter"
     stroke="rgb(0%, 0%, 0%)"
     stroke-opacity="0.0627"
     stroke-miterlimit="4"
     d="M 34.323237 159.068206 C 33.798693 231.485556 62.944072 296.794254 120.094389 355.098867 C 177.244706 413.403481 239.356026 441.673455 305.88228 442.041185 C 343.630873 441.768501 372.927825 433.983906 394.046168 417.621204 C 415.537484 401.934443 426.366103 380.972736 426.904997 355.412023 C 427.097697 335.467982 420.830331 319.426494 408.375933 306.221362 C 395.548563 292.340288 379.144966 286.027163 359.711211 285.149592 C 347.683342 285.205631 337.520333 288.641379 329.868191 295.066581 C 322.216049 301.491784 319.112732 311.477814 318.893253 325.12924 C 319.319782 338.39041 322.976343 349.700305 329.862938 359.058923 C 337.395539 368.027286 344.828202 375.253509 351.787956 380.061652 C 359.393717 384.47954 364.215576 386.97417 366.153596 385.803404 L 367.172575 386.089091 C 366.89954 387.155288 364.688486 389.392251 360.812446 391.733783 C 357.309378 394.751256 350.103368 397.301925 340.213393 399.671476 C 329.677412 402.431282 318.395487 403.839205 306.367618 403.895243 C 285.64185 403.798183 267.027198 399.722021 248.758741 390.029186 C 235.039108 383.897179 220.746628 373.604951 205.881301 359.152504 C 176.796653 329.857354 155.710341 288.520329 141.603386 234.855742 C 128.51541 181.476843 121.967835 143.073233 120.941681 119.359228 C 121.180762 88.572098 129.871486 65.296878 147.386825 50.20951 C 161.845227 34.265082 181.425301 26.041702 204.835033 26.31988 L 208.81101 25.720488 C 283.662191 25.565374 345.127504 54.225604 393.852957 111.310922 C 399.89367 117.575517 404.442494 121.136344 406.10748 121.031776 C 408.791444 121.212894 412.940518 117.805165 419.300647 112.160473 C 425.287803 105.839839 428.044927 101.470482 428.86403 98.27189 C 429.683134 95.073299 426.699357 89.665764 419.639666 83.115482 C 413.225981 76.174945 403.655422 66.635209 391.300962 55.172215 C 378.57353 43.03328 363.635043 33.131308 346.11253 24.790357 C 328.962989 17.125348 307.091526 8.707848 281.890093 0.499485 C 256.961694 -8.775075 230.022116 -12.328394 202.363372 -10.940983 C 152.213937 -11.288202 111.388804 5.263127 80.807014 37.256551 C 50.225225 69.249975 34.481984 109.403232 34.323237 159.068206 Z M 34.323237 159.068206 "
     transform="matrix(0.00453507, -0.00261833, -0.00250237, -0.00433423, 116.871295, 33.806651)"
     id="path51" />
  <path
     fill-rule="nonzero"
     fill="rgb(0%, 0%, 0%)"
     fill-opacity="1"
     stroke-width="8.387621"
     stroke-linecap="butt"
     stroke-linejoin="miter"
     stroke="rgb(0%, 0%, 0%)"
     stroke-opacity="0.0627"
     stroke-miterlimit="4"
     d="M 55.815049 346.665634 C 55.66873 355.766584 61.063436 362.421435 69.688176 367.125009 L 706.992158 366.963301 C 717.05523 361.785413 722.023408 355.179093 721.896692 347.14434 C 722.142948 339.785528 717.767221 333.416364 707.750531 327.751162 L 390.204067 326.713534 L 71.738561 327.132359 C 61.575552 330.568107 55.588396 336.888741 55.815049 346.665634 Z M 55.730872 152.94647 C 55.957525 162.723362 61.352231 169.378213 71.91499 172.911021 L 707.553988 172.853881 C 717.517122 165.933855 721.839293 159.71779 721.812515 153.425176 C 721.958834 144.324225 717.210134 137.279119 706.920409 132.680114 L 69.616427 132.841822 C 60.845368 137.239199 56.250163 144.521461 55.730872 152.94647 Z M 55.730872 152.94647 "
     transform="matrix(0.00453507, -0.00261833, -0.00250237, -0.00433423, 120.094829, 31.945545)"
     id="path53" />
  <path
     fill-rule="nonzero"
     fill="rgb(0%, 0%, 0%)"
     fill-opacity="1"
     stroke-width="8.387621"
     stroke-linecap="butt"
     stroke-linejoin="miter"
     stroke="rgb(0%, 0%, 0%)"
     stroke-opacity="0.0627"
     stroke-miterlimit="4"
     d="M 96.243489 584.844832 C 133.114169 639.177852 184.116661 666.047413 248.604958 665.843769 C 281.358595 665.884791 312.966538 657.605372 344.720801 640.225003 C 377.121069 622.454378 403.453847 592.126544 422.97319 547.889616 C 447.53387 492.495893 459.886409 416.538226 460.030806 320.016615 C 459.775453 216.526447 445.561386 137.691403 417.015632 82.83554 C 403.388762 55.017353 385.066749 32.739289 362.049592 16.001349 C 339.032435 -0.736592 318.72602 -11.0008 301.130347 -14.791275 C 283.534675 -18.581751 266.684946 -21.020343 249.935155 -21.716795 C 232.539358 -22.022993 215.61647 -19.911109 198.147513 -15.666831 C 180.305584 -12.098495 160.552413 -1.066779 137.123078 15.790747 C 114.066714 33.324215 95.286141 55.484708 82.173308 83.233854 C 53.536713 137.484831 38.700086 216.745658 38.955438 320.235826 C 38.891375 435.63528 57.681045 524.323766 96.243489 584.844832 Z M 320.850587 596.964721 C 300.678063 618.163585 277.221949 628.728497 249.83624 629.049711 C 222.077558 628.694984 198.068201 617.963971 177.808167 596.856673 C 161.450952 579.700458 150.061914 555.937923 144.933067 524.788556 C 139.531186 494.705387 136.852476 430.531928 137.269908 332.944119 C 136.914617 227.711813 139.950029 158.283917 144.711157 124.764999 C 150.491263 91.531769 162.685055 65.239075 181.292531 45.886919 C 199.527035 25.85882 222.710114 16.360106 250.095824 16.038891 C 276.835527 16.107932 299.452934 25.877316 318.321016 46.022986 C 337.189099 66.168655 349.150984 94.09141 354.206671 129.791252 C 358.616351 165.881349 361.494937 233.539087 362.196421 333.154721 C 362.052024 429.676332 359.362807 493.487556 353.755797 523.91245 C 348.521759 555.013286 337.520044 578.78333 320.850587 596.964721 Z M 320.850587 596.964721 "
     transform="matrix(0.00453507, -0.00261833, -0.00250237, -0.00433423, 124.882495, 29.18138)"
     id="path55" />
  <g
     clip-path="url(#clip-0)"
     id="g59">
    <path
       fill="none"
       stroke-width="2"
       stroke-linecap="butt"
       stroke-linejoin="miter"
       stroke="#6c8ebf"
       stroke-opacity="1"
       stroke-miterlimit="10"
       d="M 38.500002,118.00001 176.50001,38.000002"
       transform="scale(0.75)"
       id="path57" />
  </g>
  <path
     fill-rule="nonzero"
     fill="rgb(42.349243%, 55.688477%, 74.899292%)"
     fill-opacity="1"
     d="M 126 31.601563 L 129.898438 29.351563 L 130.648438 30.652344 L 126.75 32.898438 M 133.796875 27.101563 L 137.695313 24.855469 L 138.441406 26.152344 L 134.546875 28.402344 M 141.589844 22.605469 L 145.488281 20.355469 L 146.238281 21.65625 L 142.339844 23.90625 "
     id="path61" />
  <path
     fill-rule="nonzero"
     fill="rgb(42.349243%, 55.688477%, 74.899292%)"
     fill-opacity="1"
     d="M 15 95.351563 L 18.898438 93.101563 L 19.648438 94.402344 L 15.75 96.648438 M 22.796875 90.851563 L 26.695313 88.605469 L 27.441406 89.902344 L 23.546875 92.152344 M 30.589844 86.355469 L 34.488281 84.105469 L 35.238281 85.40625 L 31.339844 87.65625 "
     id="path63" />
</svg>
