<?xml version="1.0" encoding="utf-8" standalone="no"?>
<!DOCTYPE svg PUBLIC "-//W3C//DTD SVG 1.1//EN"
  "http://www.w3.org/Graphics/SVG/1.1/DTD/svg11.dtd">
<svg xmlns:xlink="http://www.w3.org/1999/xlink" width="431.50125pt" height="440.394375pt" viewBox="0 0 431.50125 440.394375" xmlns="http://www.w3.org/2000/svg" version="1.1">
 <metadata>
  <rdf:RDF xmlns:dc="http://purl.org/dc/elements/1.1/" xmlns:cc="http://creativecommons.org/ns#" xmlns:rdf="http://www.w3.org/1999/02/22-rdf-syntax-ns#">
   <cc:Work>
    <dc:type rdf:resource="http://purl.org/dc/dcmitype/StillImage"/>
    <dc:date>2022-08-25T13:08:57.862722</dc:date>
    <dc:format>image/svg+xml</dc:format>
    <dc:creator>
     <cc:Agent>
      <dc:title>Matplotlib v3.5.1, https://matplotlib.org/</dc:title>
     </cc:Agent>
    </dc:creator>
   </cc:Work>
  </rdf:RDF>
 </metadata>
 <defs>
  <style type="text/css">*{stroke-linejoin: round; stroke-linecap: butt}</style>
 </defs>
 <g id="figure_1">
  <g id="patch_1">
   <path d="M 0 440.394375 
L 431.50125 440.394375 
L 431.50125 0 
L 0 0 
L 0 440.394375 
z
" style="fill: none"/>
  </g>
  <g id="axes_1">
   <g id="patch_2">
    <path d="M 30.103125 402.838125 
L 410.623125 402.838125 
L 410.623125 22.318125 
L 30.103125 22.318125 
z
" style="fill: #ffffff"/>
   </g>
   <g id="matplotlib.axis_1">
    <g id="xtick_1">
     <g id="line2d_1">
      <defs>
       <path id="m2d0d290f70" d="M 0 0 
L 0 3.5 
" style="stroke: #000000; stroke-width: 0.8"/>
      </defs>
      <g>
       <use xlink:href="#m2d0d290f70" x="47.399489" y="402.838125" style="stroke: #000000; stroke-width: 0.8"/>
      </g>
     </g>
     <g id="text_1">
      <!-- 0.0 -->
      <g transform="translate(39.447926 417.436562)scale(0.1 -0.1)">
       <defs>
        <path id="DejaVuSans-30" d="M 2034 4250 
Q 1547 4250 1301 3770 
Q 1056 3291 1056 2328 
Q 1056 1369 1301 889 
Q 1547 409 2034 409 
Q 2525 409 2770 889 
Q 3016 1369 3016 2328 
Q 3016 3291 2770 3770 
Q 2525 4250 2034 4250 
z
M 2034 4750 
Q 2819 4750 3233 4129 
Q 3647 3509 3647 2328 
Q 3647 1150 3233 529 
Q 2819 -91 2034 -91 
Q 1250 -91 836 529 
Q 422 1150 422 2328 
Q 422 3509 836 4129 
Q 1250 4750 2034 4750 
z
" transform="scale(0.015625)"/>
        <path id="DejaVuSans-2e" d="M 684 794 
L 1344 794 
L 1344 0 
L 684 0 
L 684 794 
z
" transform="scale(0.015625)"/>
       </defs>
       <use xlink:href="#DejaVuSans-30"/>
       <use xlink:href="#DejaVuSans-2e" x="63.623047"/>
       <use xlink:href="#DejaVuSans-30" x="95.410156"/>
      </g>
     </g>
    </g>
    <g id="xtick_2">
     <g id="line2d_2">
      <g>
       <use xlink:href="#m2d0d290f70" x="116.584943" y="402.838125" style="stroke: #000000; stroke-width: 0.8"/>
      </g>
     </g>
     <g id="text_2">
      <!-- 0.2 -->
      <g transform="translate(108.633381 417.436562)scale(0.1 -0.1)">
       <defs>
        <path id="DejaVuSans-32" d="M 1228 531 
L 3431 531 
L 3431 0 
L 469 0 
L 469 531 
Q 828 903 1448 1529 
Q 2069 2156 2228 2338 
Q 2531 2678 2651 2914 
Q 2772 3150 2772 3378 
Q 2772 3750 2511 3984 
Q 2250 4219 1831 4219 
Q 1534 4219 1204 4116 
Q 875 4013 500 3803 
L 500 4441 
Q 881 4594 1212 4672 
Q 1544 4750 1819 4750 
Q 2544 4750 2975 4387 
Q 3406 4025 3406 3419 
Q 3406 3131 3298 2873 
Q 3191 2616 2906 2266 
Q 2828 2175 2409 1742 
Q 1991 1309 1228 531 
z
" transform="scale(0.015625)"/>
       </defs>
       <use xlink:href="#DejaVuSans-30"/>
       <use xlink:href="#DejaVuSans-2e" x="63.623047"/>
       <use xlink:href="#DejaVuSans-32" x="95.410156"/>
      </g>
     </g>
    </g>
    <g id="xtick_3">
     <g id="line2d_3">
      <g>
       <use xlink:href="#m2d0d290f70" x="185.770398" y="402.838125" style="stroke: #000000; stroke-width: 0.8"/>
      </g>
     </g>
     <g id="text_3">
      <!-- 0.4 -->
      <g transform="translate(177.818835 417.436562)scale(0.1 -0.1)">
       <defs>
        <path id="DejaVuSans-34" d="M 2419 4116 
L 825 1625 
L 2419 1625 
L 2419 4116 
z
M 2253 4666 
L 3047 4666 
L 3047 1625 
L 3713 1625 
L 3713 1100 
L 3047 1100 
L 3047 0 
L 2419 0 
L 2419 1100 
L 313 1100 
L 313 1709 
L 2253 4666 
z
" transform="scale(0.015625)"/>
       </defs>
       <use xlink:href="#DejaVuSans-30"/>
       <use xlink:href="#DejaVuSans-2e" x="63.623047"/>
       <use xlink:href="#DejaVuSans-34" x="95.410156"/>
      </g>
     </g>
    </g>
    <g id="xtick_4">
     <g id="line2d_4">
      <g>
       <use xlink:href="#m2d0d290f70" x="254.955852" y="402.838125" style="stroke: #000000; stroke-width: 0.8"/>
      </g>
     </g>
     <g id="text_4">
      <!-- 0.6 -->
      <g transform="translate(247.00429 417.436562)scale(0.1 -0.1)">
       <defs>
        <path id="DejaVuSans-36" d="M 2113 2584 
Q 1688 2584 1439 2293 
Q 1191 2003 1191 1497 
Q 1191 994 1439 701 
Q 1688 409 2113 409 
Q 2538 409 2786 701 
Q 3034 994 3034 1497 
Q 3034 2003 2786 2293 
Q 2538 2584 2113 2584 
z
M 3366 4563 
L 3366 3988 
Q 3128 4100 2886 4159 
Q 2644 4219 2406 4219 
Q 1781 4219 1451 3797 
Q 1122 3375 1075 2522 
Q 1259 2794 1537 2939 
Q 1816 3084 2150 3084 
Q 2853 3084 3261 2657 
Q 3669 2231 3669 1497 
Q 3669 778 3244 343 
Q 2819 -91 2113 -91 
Q 1303 -91 875 529 
Q 447 1150 447 2328 
Q 447 3434 972 4092 
Q 1497 4750 2381 4750 
Q 2619 4750 2861 4703 
Q 3103 4656 3366 4563 
z
" transform="scale(0.015625)"/>
       </defs>
       <use xlink:href="#DejaVuSans-30"/>
       <use xlink:href="#DejaVuSans-2e" x="63.623047"/>
       <use xlink:href="#DejaVuSans-36" x="95.410156"/>
      </g>
     </g>
    </g>
    <g id="xtick_5">
     <g id="line2d_5">
      <g>
       <use xlink:href="#m2d0d290f70" x="324.141307" y="402.838125" style="stroke: #000000; stroke-width: 0.8"/>
      </g>
     </g>
     <g id="text_5">
      <!-- 0.8 -->
      <g transform="translate(316.189744 417.436562)scale(0.1 -0.1)">
       <defs>
        <path id="DejaVuSans-38" d="M 2034 2216 
Q 1584 2216 1326 1975 
Q 1069 1734 1069 1313 
Q 1069 891 1326 650 
Q 1584 409 2034 409 
Q 2484 409 2743 651 
Q 3003 894 3003 1313 
Q 3003 1734 2745 1975 
Q 2488 2216 2034 2216 
z
M 1403 2484 
Q 997 2584 770 2862 
Q 544 3141 544 3541 
Q 544 4100 942 4425 
Q 1341 4750 2034 4750 
Q 2731 4750 3128 4425 
Q 3525 4100 3525 3541 
Q 3525 3141 3298 2862 
Q 3072 2584 2669 2484 
Q 3125 2378 3379 2068 
Q 3634 1759 3634 1313 
Q 3634 634 3220 271 
Q 2806 -91 2034 -91 
Q 1263 -91 848 271 
Q 434 634 434 1313 
Q 434 1759 690 2068 
Q 947 2378 1403 2484 
z
M 1172 3481 
Q 1172 3119 1398 2916 
Q 1625 2713 2034 2713 
Q 2441 2713 2670 2916 
Q 2900 3119 2900 3481 
Q 2900 3844 2670 4047 
Q 2441 4250 2034 4250 
Q 1625 4250 1398 4047 
Q 1172 3844 1172 3481 
z
" transform="scale(0.015625)"/>
       </defs>
       <use xlink:href="#DejaVuSans-30"/>
       <use xlink:href="#DejaVuSans-2e" x="63.623047"/>
       <use xlink:href="#DejaVuSans-38" x="95.410156"/>
      </g>
     </g>
    </g>
    <g id="xtick_6">
     <g id="line2d_6">
      <g>
       <use xlink:href="#m2d0d290f70" x="393.326761" y="402.838125" style="stroke: #000000; stroke-width: 0.8"/>
      </g>
     </g>
     <g id="text_6">
      <!-- 1.0 -->
      <g transform="translate(385.375199 417.436562)scale(0.1 -0.1)">
       <defs>
        <path id="DejaVuSans-31" d="M 794 531 
L 1825 531 
L 1825 4091 
L 703 3866 
L 703 4441 
L 1819 4666 
L 2450 4666 
L 2450 531 
L 3481 531 
L 3481 0 
L 794 0 
L 794 531 
z
" transform="scale(0.015625)"/>
       </defs>
       <use xlink:href="#DejaVuSans-31"/>
       <use xlink:href="#DejaVuSans-2e" x="63.623047"/>
       <use xlink:href="#DejaVuSans-30" x="95.410156"/>
      </g>
     </g>
    </g>
    <g id="text_7">
     <!-- Recall -->
     <g transform="translate(205.445938 431.114687)scale(0.1 -0.1)">
      <defs>
       <path id="DejaVuSans-52" d="M 2841 2188 
Q 3044 2119 3236 1894 
Q 3428 1669 3622 1275 
L 4263 0 
L 3584 0 
L 2988 1197 
Q 2756 1666 2539 1819 
Q 2322 1972 1947 1972 
L 1259 1972 
L 1259 0 
L 628 0 
L 628 4666 
L 2053 4666 
Q 2853 4666 3247 4331 
Q 3641 3997 3641 3322 
Q 3641 2881 3436 2590 
Q 3231 2300 2841 2188 
z
M 1259 4147 
L 1259 2491 
L 2053 2491 
Q 2509 2491 2742 2702 
Q 2975 2913 2975 3322 
Q 2975 3731 2742 3939 
Q 2509 4147 2053 4147 
L 1259 4147 
z
" transform="scale(0.015625)"/>
       <path id="DejaVuSans-65" d="M 3597 1894 
L 3597 1613 
L 953 1613 
Q 991 1019 1311 708 
Q 1631 397 2203 397 
Q 2534 397 2845 478 
Q 3156 559 3463 722 
L 3463 178 
Q 3153 47 2828 -22 
Q 2503 -91 2169 -91 
Q 1331 -91 842 396 
Q 353 884 353 1716 
Q 353 2575 817 3079 
Q 1281 3584 2069 3584 
Q 2775 3584 3186 3129 
Q 3597 2675 3597 1894 
z
M 3022 2063 
Q 3016 2534 2758 2815 
Q 2500 3097 2075 3097 
Q 1594 3097 1305 2825 
Q 1016 2553 972 2059 
L 3022 2063 
z
" transform="scale(0.015625)"/>
       <path id="DejaVuSans-63" d="M 3122 3366 
L 3122 2828 
Q 2878 2963 2633 3030 
Q 2388 3097 2138 3097 
Q 1578 3097 1268 2742 
Q 959 2388 959 1747 
Q 959 1106 1268 751 
Q 1578 397 2138 397 
Q 2388 397 2633 464 
Q 2878 531 3122 666 
L 3122 134 
Q 2881 22 2623 -34 
Q 2366 -91 2075 -91 
Q 1284 -91 818 406 
Q 353 903 353 1747 
Q 353 2603 823 3093 
Q 1294 3584 2113 3584 
Q 2378 3584 2631 3529 
Q 2884 3475 3122 3366 
z
" transform="scale(0.015625)"/>
       <path id="DejaVuSans-61" d="M 2194 1759 
Q 1497 1759 1228 1600 
Q 959 1441 959 1056 
Q 959 750 1161 570 
Q 1363 391 1709 391 
Q 2188 391 2477 730 
Q 2766 1069 2766 1631 
L 2766 1759 
L 2194 1759 
z
M 3341 1997 
L 3341 0 
L 2766 0 
L 2766 531 
Q 2569 213 2275 61 
Q 1981 -91 1556 -91 
Q 1019 -91 701 211 
Q 384 513 384 1019 
Q 384 1609 779 1909 
Q 1175 2209 1959 2209 
L 2766 2209 
L 2766 2266 
Q 2766 2663 2505 2880 
Q 2244 3097 1772 3097 
Q 1472 3097 1187 3025 
Q 903 2953 641 2809 
L 641 3341 
Q 956 3463 1253 3523 
Q 1550 3584 1831 3584 
Q 2591 3584 2966 3190 
Q 3341 2797 3341 1997 
z
" transform="scale(0.015625)"/>
       <path id="DejaVuSans-6c" d="M 603 4863 
L 1178 4863 
L 1178 0 
L 603 0 
L 603 4863 
z
" transform="scale(0.015625)"/>
      </defs>
      <use xlink:href="#DejaVuSans-52"/>
      <use xlink:href="#DejaVuSans-65" x="64.982422"/>
      <use xlink:href="#DejaVuSans-63" x="126.505859"/>
      <use xlink:href="#DejaVuSans-61" x="181.486328"/>
      <use xlink:href="#DejaVuSans-6c" x="242.765625"/>
      <use xlink:href="#DejaVuSans-6c" x="270.548828"/>
     </g>
    </g>
   </g>
   <g id="matplotlib.axis_2">
    <g id="ytick_1">
     <g id="line2d_7">
      <defs>
       <path id="m29f826447d" d="M 0 0 
L -3.5 0 
" style="stroke: #000000; stroke-width: 0.8"/>
      </defs>
      <g>
       <use xlink:href="#m29f826447d" x="30.103125" y="385.541761" style="stroke: #000000; stroke-width: 0.8"/>
      </g>
     </g>
     <g id="text_8">
      <!-- 0.0 -->
      <g transform="translate(7.2 389.34098)scale(0.1 -0.1)">
       <use xlink:href="#DejaVuSans-30"/>
       <use xlink:href="#DejaVuSans-2e" x="63.623047"/>
       <use xlink:href="#DejaVuSans-30" x="95.410156"/>
      </g>
     </g>
    </g>
    <g id="ytick_2">
     <g id="line2d_8">
      <g>
       <use xlink:href="#m29f826447d" x="30.103125" y="316.356307" style="stroke: #000000; stroke-width: 0.8"/>
      </g>
     </g>
     <g id="text_9">
      <!-- 0.2 -->
      <g transform="translate(7.2 320.155526)scale(0.1 -0.1)">
       <use xlink:href="#DejaVuSans-30"/>
       <use xlink:href="#DejaVuSans-2e" x="63.623047"/>
       <use xlink:href="#DejaVuSans-32" x="95.410156"/>
      </g>
     </g>
    </g>
    <g id="ytick_3">
     <g id="line2d_9">
      <g>
       <use xlink:href="#m29f826447d" x="30.103125" y="247.170852" style="stroke: #000000; stroke-width: 0.8"/>
      </g>
     </g>
     <g id="text_10">
      <!-- 0.4 -->
      <g transform="translate(7.2 250.970071)scale(0.1 -0.1)">
       <use xlink:href="#DejaVuSans-30"/>
       <use xlink:href="#DejaVuSans-2e" x="63.623047"/>
       <use xlink:href="#DejaVuSans-34" x="95.410156"/>
      </g>
     </g>
    </g>
    <g id="ytick_4">
     <g id="line2d_10">
      <g>
       <use xlink:href="#m29f826447d" x="30.103125" y="177.985398" style="stroke: #000000; stroke-width: 0.8"/>
      </g>
     </g>
     <g id="text_11">
      <!-- 0.6 -->
      <g transform="translate(7.2 181.784616)scale(0.1 -0.1)">
       <use xlink:href="#DejaVuSans-30"/>
       <use xlink:href="#DejaVuSans-2e" x="63.623047"/>
       <use xlink:href="#DejaVuSans-36" x="95.410156"/>
      </g>
     </g>
    </g>
    <g id="ytick_5">
     <g id="line2d_11">
      <g>
       <use xlink:href="#m29f826447d" x="30.103125" y="108.799943" style="stroke: #000000; stroke-width: 0.8"/>
      </g>
     </g>
     <g id="text_12">
      <!-- 0.8 -->
      <g transform="translate(7.2 112.599162)scale(0.1 -0.1)">
       <use xlink:href="#DejaVuSans-30"/>
       <use xlink:href="#DejaVuSans-2e" x="63.623047"/>
       <use xlink:href="#DejaVuSans-38" x="95.410156"/>
      </g>
     </g>
    </g>
    <g id="ytick_6">
     <g id="line2d_12">
      <g>
       <use xlink:href="#m29f826447d" x="30.103125" y="39.614489" style="stroke: #000000; stroke-width: 0.8"/>
      </g>
     </g>
     <g id="text_13">
      <!-- 1.0 -->
      <g transform="translate(7.2 43.413707)scale(0.1 -0.1)">
       <use xlink:href="#DejaVuSans-31"/>
       <use xlink:href="#DejaVuSans-2e" x="63.623047"/>
       <use xlink:href="#DejaVuSans-30" x="95.410156"/>
      </g>
     </g>
    </g>
    <g id="text_14">
     <!-- Precision -->
     <g transform="translate(422.221563 234.885156)rotate(-90)scale(0.1 -0.1)">
      <defs>
       <path id="DejaVuSans-50" d="M 1259 4147 
L 1259 2394 
L 2053 2394 
Q 2494 2394 2734 2622 
Q 2975 2850 2975 3272 
Q 2975 3691 2734 3919 
Q 2494 4147 2053 4147 
L 1259 4147 
z
M 628 4666 
L 2053 4666 
Q 2838 4666 3239 4311 
Q 3641 3956 3641 3272 
Q 3641 2581 3239 2228 
Q 2838 1875 2053 1875 
L 1259 1875 
L 1259 0 
L 628 0 
L 628 4666 
z
" transform="scale(0.015625)"/>
       <path id="DejaVuSans-72" d="M 2631 2963 
Q 2534 3019 2420 3045 
Q 2306 3072 2169 3072 
Q 1681 3072 1420 2755 
Q 1159 2438 1159 1844 
L 1159 0 
L 581 0 
L 581 3500 
L 1159 3500 
L 1159 2956 
Q 1341 3275 1631 3429 
Q 1922 3584 2338 3584 
Q 2397 3584 2469 3576 
Q 2541 3569 2628 3553 
L 2631 2963 
z
" transform="scale(0.015625)"/>
       <path id="DejaVuSans-69" d="M 603 3500 
L 1178 3500 
L 1178 0 
L 603 0 
L 603 3500 
z
M 603 4863 
L 1178 4863 
L 1178 4134 
L 603 4134 
L 603 4863 
z
" transform="scale(0.015625)"/>
       <path id="DejaVuSans-73" d="M 2834 3397 
L 2834 2853 
Q 2591 2978 2328 3040 
Q 2066 3103 1784 3103 
Q 1356 3103 1142 2972 
Q 928 2841 928 2578 
Q 928 2378 1081 2264 
Q 1234 2150 1697 2047 
L 1894 2003 
Q 2506 1872 2764 1633 
Q 3022 1394 3022 966 
Q 3022 478 2636 193 
Q 2250 -91 1575 -91 
Q 1294 -91 989 -36 
Q 684 19 347 128 
L 347 722 
Q 666 556 975 473 
Q 1284 391 1588 391 
Q 1994 391 2212 530 
Q 2431 669 2431 922 
Q 2431 1156 2273 1281 
Q 2116 1406 1581 1522 
L 1381 1569 
Q 847 1681 609 1914 
Q 372 2147 372 2553 
Q 372 3047 722 3315 
Q 1072 3584 1716 3584 
Q 2034 3584 2315 3537 
Q 2597 3491 2834 3397 
z
" transform="scale(0.015625)"/>
       <path id="DejaVuSans-6f" d="M 1959 3097 
Q 1497 3097 1228 2736 
Q 959 2375 959 1747 
Q 959 1119 1226 758 
Q 1494 397 1959 397 
Q 2419 397 2687 759 
Q 2956 1122 2956 1747 
Q 2956 2369 2687 2733 
Q 2419 3097 1959 3097 
z
M 1959 3584 
Q 2709 3584 3137 3096 
Q 3566 2609 3566 1747 
Q 3566 888 3137 398 
Q 2709 -91 1959 -91 
Q 1206 -91 779 398 
Q 353 888 353 1747 
Q 353 2609 779 3096 
Q 1206 3584 1959 3584 
z
" transform="scale(0.015625)"/>
       <path id="DejaVuSans-6e" d="M 3513 2113 
L 3513 0 
L 2938 0 
L 2938 2094 
Q 2938 2591 2744 2837 
Q 2550 3084 2163 3084 
Q 1697 3084 1428 2787 
Q 1159 2491 1159 1978 
L 1159 0 
L 581 0 
L 581 3500 
L 1159 3500 
L 1159 2956 
Q 1366 3272 1645 3428 
Q 1925 3584 2291 3584 
Q 2894 3584 3203 3211 
Q 3513 2838 3513 2113 
z
" transform="scale(0.015625)"/>
      </defs>
      <use xlink:href="#DejaVuSans-50"/>
      <use xlink:href="#DejaVuSans-72" x="58.552734"/>
      <use xlink:href="#DejaVuSans-65" x="97.416016"/>
      <use xlink:href="#DejaVuSans-63" x="158.939453"/>
      <use xlink:href="#DejaVuSans-69" x="213.919922"/>
      <use xlink:href="#DejaVuSans-73" x="241.703125"/>
      <use xlink:href="#DejaVuSans-69" x="293.802734"/>
      <use xlink:href="#DejaVuSans-6f" x="321.585938"/>
      <use xlink:href="#DejaVuSans-6e" x="382.767578"/>
     </g>
    </g>
   </g>
   <g id="line2d_13">
    <path d="M 47.399489 39.614489 
L 393.326761 39.614489 
L 393.326761 385.541761 
" clip-path="url(#pd90c3149de)" style="fill: none; stroke: #2e8b57; stroke-width: 2; stroke-linecap: square"/>
   </g>
   <g id="line2d_14">
    <path d="M 47.399489 385.541761 
L 393.326761 39.614489 
" clip-path="url(#pd90c3149de)" style="fill: none; stroke-dasharray: 7.4,3.2; stroke-dashoffset: 0; stroke: #000080; stroke-width: 2"/>
   </g>
   <g id="line2d_15">
    <path d="M 393.326761 385.541761 
L 392.697803 193.40146 
L 392.068844 193.373616 
L 392.068844 193.259297 
L 390.810927 192.99952 
L 390.181968 192.871822 
L 390.181968 191.759446 
L 389.553009 191.65071 
L 388.924051 191.494629 
L 388.924051 191.389347 
L 387.666133 191.199601 
L 387.666133 191.155365 
L 385.150299 191.044942 
L 385.150299 190.822748 
L 384.52134 190.780715 
L 384.52134 190.512113 
L 382.634464 190.364372 
L 380.118629 190.187164 
L 380.118629 190.144461 
L 378.231753 189.888006 
L 378.231753 189.801233 
L 377.602794 189.691436 
L 377.602794 189.610914 
L 374.458001 189.409787 
L 374.458001 189.340431 
L 371.313208 189.156819 
L 371.313208 189.097085 
L 368.797373 188.976005 
L 368.797373 188.915934 
L 366.910497 188.792067 
L 366.910497 188.772247 
L 362.507786 188.572158 
L 362.507786 188.490173 
L 359.991951 188.359933 
L 359.991951 188.34379 
L 356.218199 188.249832 
L 345.525902 187.792184 
L 341.123191 187.65672 
L 341.123191 187.619808 
L 338.607356 187.500809 
L 338.607356 187.462562 
L 330.430894 187.263542 
L 330.430894 187.240353 
L 329.172976 187.148731 
L 329.172976 187.118162 
L 318.480679 186.774515 
L 314.706927 186.605111 
L 310.304216 186.479075 
L 310.304216 186.44458 
L 304.643588 186.299104 
L 304.643588 186.286005 
L 301.498794 186.144022 
L 301.498794 186.124699 
L 293.322332 185.963192 
L 293.322332 185.848496 
L 283.887951 185.54098 
L 283.887951 185.481499 
L 282.001075 185.370121 
L 278.856282 185.265467 
L 256.842728 184.796967 
L 256.842728 184.733576 
L 250.553142 184.618954 
L 243.634596 184.433221 
L 241.74772 184.346088 
L 239.860844 184.266335 
L 237.973968 184.200779 
L 227.28167 183.936225 
L 224.765836 183.807096 
L 220.992084 183.705637 
L 218.476249 183.563853 
L 212.186662 183.432512 
L 212.186662 183.420715 
L 205.897075 183.309681 
L 192.688943 183.067543 
L 154.322464 182.070512 
L 148.032877 181.910858 
L 143.001208 181.723799 
L 138.598497 181.597504 
L 131.679951 181.390524 
L 131.679951 181.356598 
L 127.277241 181.229983 
L 122.245571 181.106476 
L 115.327026 180.893509 
L 109.666398 180.775614 
L 106.521604 180.693639 
L 99.603059 180.466504 
L 98.345142 180.384587 
L 91.426596 180.141969 
L 88.281803 179.874823 
L 80.734299 179.657942 
L 73.815753 179.325241 
L 71.299918 179.229059 
L 68.155125 179.117461 
L 66.897208 178.928957 
L 54.946993 178.143363 
L 54.318034 177.918934 
L 51.802199 177.543604 
L 51.173241 177.372655 
L 50.544282 177.359215 
L 49.915323 177.091029 
L 49.286365 176.968668 
L 48.657406 176.962791 
L 48.028447 176.797769 
L 47.399489 175.911089 
L 47.399489 175.911089 
" clip-path="url(#pd90c3149de)" style="fill: none; stroke-dasharray: 2,3.3; stroke-dashoffset: 0; stroke: #708090; stroke-width: 2"/>
   </g>
   <g id="line2d_16">
    <path d="M 393.326761 385.541761 
L 393.326761 210.509563 
L 392.697803 210.666925 
L 392.697803 208.877508 
L 392.068844 209.035108 
L 392.068844 208.87061 
L 391.439885 209.028498 
L 391.439885 208.698567 
L 390.181968 209.015204 
L 390.181968 203.562646 
L 389.553009 203.72105 
L 389.553009 202.838425 
L 388.924051 202.997049 
L 388.924051 201.566728 
L 388.295092 201.725505 
L 388.295092 201.183274 
L 387.666133 201.342298 
L 387.666133 200.614237 
L 386.408216 200.933048 
L 386.408216 200.750086 
L 385.779257 200.909943 
L 385.779257 200.726595 
L 385.150299 200.886746 
L 385.150299 197.712696 
L 384.52134 197.872715 
L 384.52134 194.390196 
L 383.263423 194.709981 
L 383.263423 194.314884 
L 382.634464 194.475195 
L 382.634464 192.676451 
L 381.376546 192.997336 
L 381.376546 192.186623 
L 380.747588 192.347394 
L 380.747588 191.734727 
L 380.118629 191.895701 
L 380.118629 191.072551 
L 379.48967 191.233676 
L 379.48967 190.819373 
L 378.860712 190.980745 
L 378.860712 190.77288 
L 378.231753 190.934547 
L 378.231753 187.976348 
L 377.602794 188.137611 
L 377.602794 183.974816 
L 376.973836 184.135216 
L 376.973836 183.911182 
L 376.344877 184.071869 
L 376.344877 183.847265 
L 375.715918 184.008239 
L 375.715918 183.557381 
L 375.08696 183.718571 
L 375.08696 183.265545 
L 374.458001 183.42695 
L 374.458001 180.664561 
L 373.829042 180.825394 
L 373.829042 179.887403 
L 373.200084 180.048267 
L 373.200084 179.575868 
L 371.942166 179.89836 
L 371.942166 179.423433 
L 371.313208 179.585061 
L 371.313208 178.868275 
L 370.684249 179.03001 
L 370.684249 178.307941 
L 369.426332 178.631991 
L 369.426332 177.904289 
L 368.797373 178.066601 
L 368.797373 175.352895 
L 368.168414 175.514489 
L 368.168414 175.264158 
L 367.539456 175.426031 
L 367.539456 173.14492 
L 366.910497 173.306188 
L 366.910497 172.792301 
L 365.023621 173.27776 
L 365.023621 172.501185 
L 364.394662 172.66344 
L 364.394662 171.618638 
L 363.136745 171.943372 
L 363.136745 170.355279 
L 362.507786 170.517489 
L 362.507786 168.361857 
L 361.249869 168.685343 
L 361.249869 167.864953 
L 359.991951 168.189227 
L 359.991951 165.968512 
L 359.362993 166.13009 
L 359.362993 165.002009 
L 358.734034 165.163383 
L 358.734034 164.87939 
L 358.105075 165.041022 
L 358.105075 164.184154 
L 357.476117 164.345723 
L 357.476117 164.058456 
L 354.960282 164.708294 
L 354.960282 164.419622 
L 354.331323 164.58298 
L 354.331323 162.833966 
L 353.702365 162.996739 
L 353.702365 162.111281 
L 353.073406 162.27396 
L 353.073406 160.480644 
L 351.815489 160.805117 
L 351.815489 159.896478 
L 351.18653 160.058802 
L 351.18653 159.142205 
L 350.557571 159.304386 
L 350.557571 158.688774 
L 349.928613 158.851001 
L 349.928613 156.98267 
L 349.299654 157.144112 
L 349.299654 156.829515 
L 348.670695 156.991191 
L 348.670695 156.358962 
L 346.783819 156.845398 
L 346.783819 156.527322 
L 346.154861 156.690153 
L 346.154861 155.729937 
L 344.896943 156.055646 
L 344.896943 155.733334 
L 343.639026 156.06043 
L 343.639026 155.736761 
L 342.381108 156.065254 
L 342.381108 155.087371 
L 341.75215 155.251628 
L 341.75215 154.92358 
L 341.123191 155.088072 
L 341.123191 153.432514 
L 339.865274 153.76052 
L 339.865274 151.398848 
L 339.236315 151.561798 
L 339.236315 150.877647 
L 338.607356 151.04055 
L 338.607356 149.6591 
L 336.72048 150.147463 
L 336.72048 149.448964 
L 335.462563 149.775852 
L 335.462563 149.424487 
L 334.204646 149.752768 
L 334.204646 148.334489 
L 332.31777 148.827177 
L 332.31777 148.469062 
L 330.430894 148.965359 
L 330.430894 148.605273 
L 329.801935 148.771418 
L 329.801935 145.477858 
L 329.172976 145.641733 
L 329.172976 145.269795 
L 327.915059 145.598428 
L 327.915059 145.224684 
L 327.2861 145.389443 
L 327.2861 145.014205 
L 326.657142 145.179149 
L 326.657142 144.802405 
L 326.028183 144.967536 
L 326.028183 144.209821 
L 324.770265 144.540296 
L 324.770265 142.621495 
L 322.883389 143.115929 
L 322.883389 142.337676 
L 321.625472 142.668507 
L 321.625472 141.883779 
L 320.996513 142.049264 
L 320.996513 141.258704 
L 320.367555 141.423979 
L 320.367555 140.62751 
L 319.738596 140.792564 
L 319.738596 139.990107 
L 318.480679 140.32029 
L 318.480679 139.916301 
L 317.85172 140.081815 
L 317.85172 138.860622 
L 316.593803 139.190892 
L 316.593803 138.780307 
L 315.335885 139.111965 
L 315.335885 138.699185 
L 314.706927 138.865434 
L 314.706927 136.778494 
L 314.077968 136.943179 
L 314.077968 135.24626 
L 312.191092 135.738362 
L 312.191092 134.878454 
L 311.562133 135.042702 
L 311.562133 132.864449 
L 310.304216 133.189929 
L 310.304216 131.861761 
L 309.675257 132.023883 
L 309.675257 131.577549 
L 309.046299 131.739741 
L 309.046299 131.291328 
L 307.159423 131.779837 
L 307.159423 129.505984 
L 306.530464 129.667369 
L 306.530464 127.81656 
L 304.643588 128.297662 
L 304.643588 127.829094 
L 302.756712 128.313789 
L 302.756712 126.415428 
L 302.127753 126.575873 
L 302.127753 123.181189 
L 301.498794 123.337975 
L 301.498794 122.845111 
L 300.240877 123.159188 
L 300.240877 122.165315 
L 299.611918 122.321958 
L 299.611918 121.82154 
L 298.98296 121.978125 
L 298.98296 120.970233 
L 298.354001 121.126087 
L 298.354001 119.084268 
L 297.725042 119.237981 
L 297.725042 118.721888 
L 295.209208 119.339915 
L 295.209208 118.818972 
L 293.322332 119.286715 
L 293.322332 113.940228 
L 292.693373 114.089777 
L 292.693373 113.542495 
L 292.064414 113.691844 
L 292.064414 112.589005 
L 291.435456 112.737327 
L 291.435456 111.623839 
L 289.54858 112.067429 
L 289.54858 111.504724 
L 288.919621 111.652952 
L 288.919621 111.087066 
L 288.290662 111.235042 
L 287.661704 110.813657 
L 287.661704 109.666567 
L 285.774827 110.108072 
L 285.774827 109.528211 
L 285.145869 109.675708 
L 285.145869 107.327912 
L 283.887951 107.617286 
L 283.887951 100.303484 
L 282.630034 100.570836 
L 282.630034 98.037761 
L 282.001075 98.16788 
L 282.001075 96.882091 
L 280.114199 97.269034 
L 280.114199 96.618306 
L 276.969406 97.269034 
L 276.969406 96.609371 
L 276.340447 96.740093 
L 276.340447 95.40921 
L 275.711489 95.538066 
L 275.711489 93.514785 
L 273.195654 94.020891 
L 273.195654 93.334959 
L 272.566695 93.461658 
L 272.566695 92.771162 
L 267.535026 93.795869 
L 267.535026 93.091168 
L 265.64815 93.481509 
L 265.64815 92.053342 
L 265.019191 92.181868 
L 265.019191 90.736746 
L 261.874398 91.37418 
L 261.874398 90.638761 
L 259.987522 91.024335 
L 259.987522 90.280604 
L 258.729604 90.537793 
L 258.729604 89.03267 
L 256.842728 89.413788 
L 256.842728 88.650571 
L 254.955852 89.03267 
L 254.955852 88.260511 
L 254.326894 88.387524 
L 254.326894 87.609634 
L 248.037307 88.899826 
L 248.037307 87.296356 
L 247.408348 87.425575 
L 247.408348 86.615477 
L 244.892513 87.131971 
L 244.892513 84.652111 
L 243.634596 84.903017 
L 243.634596 84.063244 
L 241.118761 84.56549 
L 241.118761 82.855398 
L 240.489803 82.978591 
L 240.489803 81.244705 
L 237.973968 81.727374 
L 237.973968 80.844193 
L 237.345009 80.964396 
L 237.345009 80.073819 
L 236.716051 80.192468 
L 236.716051 79.294382 
L 227.910629 80.998426 
L 227.910629 80.06137 
L 226.023753 80.438204 
L 226.023753 77.568892 
L 222.87896 78.173261 
L 222.87896 77.191253 
L 220.363125 77.677684 
L 220.363125 76.678125 
L 218.476249 77.042685 
L 218.476249 76.027886 
L 216.589373 76.39081 
L 216.589373 75.360307 
L 214.702497 75.721376 
L 214.702497 74.674685 
L 212.815621 75.033663 
L 212.815621 72.899587 
L 212.186662 73.014363 
L 212.186662 69.747526 
L 211.557704 69.852887 
L 211.557704 68.745206 
L 209.041869 69.159878 
L 209.041869 68.029943 
L 208.41291 68.131791 
L 208.41291 65.840022 
L 197.091654 67.662646 
L 194.575819 68.102617 
L 194.575819 66.852857 
L 193.317902 67.069034 
L 193.317902 65.800218 
L 190.802067 66.224279 
L 190.802067 64.92624 
L 188.915191 65.238731 
L 188.915191 62.580615 
L 185.770398 63.067185 
L 185.770398 61.694953 
L 182.625604 62.174963 
L 182.625604 60.762881 
L 181.996646 60.855637 
L 181.996646 59.425302 
L 178.851852 59.871491 
L 178.851852 56.910852 
L 168.788513 58.26743 
L 168.788513 56.655241 
L 166.272679 56.997769 
L 166.272679 55.338456 
L 165.014761 55.498904 
L 165.014761 53.806377 
L 158.096216 54.654805 
L 158.096216 52.846679 
L 148.032877 54.114434 
L 145.517042 54.470261 
L 145.517042 52.42661 
L 139.227456 53.269513 
L 139.227456 51.069034 
L 135.453704 51.543015 
L 135.453704 49.22358 
L 131.679951 49.641366 
L 131.679951 47.189538 
L 129.793075 47.359129 
L 129.793075 44.816403 
L 129.164117 44.855811 
L 129.164117 42.255155 
L 114.069108 42.847454 
L 107.779522 43.180749 
L 107.779522 39.614489 
L 47.399489 39.614489 
L 47.399489 39.614489 
" clip-path="url(#pd90c3149de)" style="fill: none; stroke: #b22222; stroke-width: 2; stroke-linecap: square"/>
   </g>
   <g id="patch_3">
    <path d="M 30.103125 402.838125 
L 30.103125 22.318125 
" style="fill: none; stroke: #000000; stroke-width: 0.8; stroke-linejoin: miter; stroke-linecap: square"/>
   </g>
   <g id="patch_4">
    <path d="M 410.623125 402.838125 
L 410.623125 22.318125 
" style="fill: none; stroke: #000000; stroke-width: 0.8; stroke-linejoin: miter; stroke-linecap: square"/>
   </g>
   <g id="patch_5">
    <path d="M 30.103125 402.838125 
L 410.623125 402.838125 
" style="fill: none; stroke: #000000; stroke-width: 0.8; stroke-linejoin: miter; stroke-linecap: square"/>
   </g>
   <g id="patch_6">
    <path d="M 30.103125 22.318125 
L 410.623125 22.318125 
" style="fill: none; stroke: #000000; stroke-width: 0.8; stroke-linejoin: miter; stroke-linecap: square"/>
   </g>
   <g id="text_15">
    <!-- Precision-recall curve -->
    <g transform="translate(156.37875 16.318125)scale(0.12 -0.12)">
     <defs>
      <path id="DejaVuSans-2d" d="M 313 2009 
L 1997 2009 
L 1997 1497 
L 313 1497 
L 313 2009 
z
" transform="scale(0.015625)"/>
      <path id="DejaVuSans-20" transform="scale(0.015625)"/>
      <path id="DejaVuSans-75" d="M 544 1381 
L 544 3500 
L 1119 3500 
L 1119 1403 
Q 1119 906 1312 657 
Q 1506 409 1894 409 
Q 2359 409 2629 706 
Q 2900 1003 2900 1516 
L 2900 3500 
L 3475 3500 
L 3475 0 
L 2900 0 
L 2900 538 
Q 2691 219 2414 64 
Q 2138 -91 1772 -91 
Q 1169 -91 856 284 
Q 544 659 544 1381 
z
M 1991 3584 
L 1991 3584 
z
" transform="scale(0.015625)"/>
      <path id="DejaVuSans-76" d="M 191 3500 
L 800 3500 
L 1894 563 
L 2988 3500 
L 3597 3500 
L 2284 0 
L 1503 0 
L 191 3500 
z
" transform="scale(0.015625)"/>
     </defs>
     <use xlink:href="#DejaVuSans-50"/>
     <use xlink:href="#DejaVuSans-72" x="58.552734"/>
     <use xlink:href="#DejaVuSans-65" x="97.416016"/>
     <use xlink:href="#DejaVuSans-63" x="158.939453"/>
     <use xlink:href="#DejaVuSans-69" x="213.919922"/>
     <use xlink:href="#DejaVuSans-73" x="241.703125"/>
     <use xlink:href="#DejaVuSans-69" x="293.802734"/>
     <use xlink:href="#DejaVuSans-6f" x="321.585938"/>
     <use xlink:href="#DejaVuSans-6e" x="382.767578"/>
     <use xlink:href="#DejaVuSans-2d" x="446.146484"/>
     <use xlink:href="#DejaVuSans-72" x="482.230469"/>
     <use xlink:href="#DejaVuSans-65" x="521.09375"/>
     <use xlink:href="#DejaVuSans-63" x="582.617188"/>
     <use xlink:href="#DejaVuSans-61" x="637.597656"/>
     <use xlink:href="#DejaVuSans-6c" x="698.876953"/>
     <use xlink:href="#DejaVuSans-6c" x="726.660156"/>
     <use xlink:href="#DejaVuSans-20" x="754.443359"/>
     <use xlink:href="#DejaVuSans-63" x="786.230469"/>
     <use xlink:href="#DejaVuSans-75" x="841.210938"/>
     <use xlink:href="#DejaVuSans-72" x="904.589844"/>
     <use xlink:href="#DejaVuSans-76" x="945.703125"/>
     <use xlink:href="#DejaVuSans-65" x="1004.882812"/>
    </g>
   </g>
   <g id="legend_1">
    <g id="patch_7">
     <path d="M 272.471563 397.838125 
L 403.623125 397.838125 
Q 405.623125 397.838125 405.623125 395.838125 
L 405.623125 338.125625 
Q 405.623125 336.125625 403.623125 336.125625 
L 272.471563 336.125625 
Q 270.471563 336.125625 270.471563 338.125625 
L 270.471563 395.838125 
Q 270.471563 397.838125 272.471563 397.838125 
z
" style="fill: #ffffff; opacity: 0.8; stroke: #cccccc; stroke-linejoin: miter"/>
    </g>
    <g id="line2d_17">
     <path d="M 274.471563 344.224062 
L 284.471563 344.224062 
L 294.471563 344.224062 
" style="fill: none; stroke: #2e8b57; stroke-width: 2; stroke-linecap: square"/>
    </g>
    <g id="text_16">
     <!-- Ideal -->
     <g transform="translate(302.471563 347.724062)scale(0.1 -0.1)">
      <defs>
       <path id="DejaVuSans-49" d="M 628 4666 
L 1259 4666 
L 1259 0 
L 628 0 
L 628 4666 
z
" transform="scale(0.015625)"/>
       <path id="DejaVuSans-64" d="M 2906 2969 
L 2906 4863 
L 3481 4863 
L 3481 0 
L 2906 0 
L 2906 525 
Q 2725 213 2448 61 
Q 2172 -91 1784 -91 
Q 1150 -91 751 415 
Q 353 922 353 1747 
Q 353 2572 751 3078 
Q 1150 3584 1784 3584 
Q 2172 3584 2448 3432 
Q 2725 3281 2906 2969 
z
M 947 1747 
Q 947 1113 1208 752 
Q 1469 391 1925 391 
Q 2381 391 2643 752 
Q 2906 1113 2906 1747 
Q 2906 2381 2643 2742 
Q 2381 3103 1925 3103 
Q 1469 3103 1208 2742 
Q 947 2381 947 1747 
z
" transform="scale(0.015625)"/>
      </defs>
      <use xlink:href="#DejaVuSans-49"/>
      <use xlink:href="#DejaVuSans-64" x="29.492188"/>
      <use xlink:href="#DejaVuSans-65" x="92.96875"/>
      <use xlink:href="#DejaVuSans-61" x="154.492188"/>
      <use xlink:href="#DejaVuSans-6c" x="215.771484"/>
     </g>
    </g>
    <g id="line2d_18">
     <path d="M 274.471563 358.902187 
L 284.471563 358.902187 
L 294.471563 358.902187 
" style="fill: none; stroke-dasharray: 7.4,3.2; stroke-dashoffset: 0; stroke: #000080; stroke-width: 2"/>
    </g>
    <g id="text_17">
     <!-- Baseline -->
     <g transform="translate(302.471563 362.402187)scale(0.1 -0.1)">
      <defs>
       <path id="DejaVuSans-42" d="M 1259 2228 
L 1259 519 
L 2272 519 
Q 2781 519 3026 730 
Q 3272 941 3272 1375 
Q 3272 1813 3026 2020 
Q 2781 2228 2272 2228 
L 1259 2228 
z
M 1259 4147 
L 1259 2741 
L 2194 2741 
Q 2656 2741 2882 2914 
Q 3109 3088 3109 3444 
Q 3109 3797 2882 3972 
Q 2656 4147 2194 4147 
L 1259 4147 
z
M 628 4666 
L 2241 4666 
Q 2963 4666 3353 4366 
Q 3744 4066 3744 3513 
Q 3744 3084 3544 2831 
Q 3344 2578 2956 2516 
Q 3422 2416 3680 2098 
Q 3938 1781 3938 1306 
Q 3938 681 3513 340 
Q 3088 0 2303 0 
L 628 0 
L 628 4666 
z
" transform="scale(0.015625)"/>
      </defs>
      <use xlink:href="#DejaVuSans-42"/>
      <use xlink:href="#DejaVuSans-61" x="68.603516"/>
      <use xlink:href="#DejaVuSans-73" x="129.882812"/>
      <use xlink:href="#DejaVuSans-65" x="181.982422"/>
      <use xlink:href="#DejaVuSans-6c" x="243.505859"/>
      <use xlink:href="#DejaVuSans-69" x="271.289062"/>
      <use xlink:href="#DejaVuSans-6e" x="299.072266"/>
      <use xlink:href="#DejaVuSans-65" x="362.451172"/>
     </g>
    </g>
    <g id="line2d_19">
     <path d="M 274.471563 373.580312 
L 284.471563 373.580312 
L 294.471563 373.580312 
" style="fill: none; stroke-dasharray: 2,3.3; stroke-dashoffset: 0; stroke: #708090; stroke-width: 2"/>
    </g>
    <g id="text_18">
     <!-- Threshold -->
     <g transform="translate(302.471563 377.080312)scale(0.1 -0.1)">
      <defs>
       <path id="DejaVuSans-54" d="M -19 4666 
L 3928 4666 
L 3928 4134 
L 2272 4134 
L 2272 0 
L 1638 0 
L 1638 4134 
L -19 4134 
L -19 4666 
z
" transform="scale(0.015625)"/>
       <path id="DejaVuSans-68" d="M 3513 2113 
L 3513 0 
L 2938 0 
L 2938 2094 
Q 2938 2591 2744 2837 
Q 2550 3084 2163 3084 
Q 1697 3084 1428 2787 
Q 1159 2491 1159 1978 
L 1159 0 
L 581 0 
L 581 4863 
L 1159 4863 
L 1159 2956 
Q 1366 3272 1645 3428 
Q 1925 3584 2291 3584 
Q 2894 3584 3203 3211 
Q 3513 2838 3513 2113 
z
" transform="scale(0.015625)"/>
      </defs>
      <use xlink:href="#DejaVuSans-54"/>
      <use xlink:href="#DejaVuSans-68" x="61.083984"/>
      <use xlink:href="#DejaVuSans-72" x="124.462891"/>
      <use xlink:href="#DejaVuSans-65" x="163.326172"/>
      <use xlink:href="#DejaVuSans-73" x="224.849609"/>
      <use xlink:href="#DejaVuSans-68" x="276.949219"/>
      <use xlink:href="#DejaVuSans-6f" x="340.328125"/>
      <use xlink:href="#DejaVuSans-6c" x="401.509766"/>
      <use xlink:href="#DejaVuSans-64" x="429.292969"/>
     </g>
    </g>
    <g id="line2d_20">
     <path d="M 274.471563 388.258437 
L 284.471563 388.258437 
L 294.471563 388.258437 
" style="fill: none; stroke: #b22222; stroke-width: 2; stroke-linecap: square"/>
    </g>
    <g id="text_19">
     <!-- Model (AUC = 0.85) -->
     <g transform="translate(302.471563 391.758437)scale(0.1 -0.1)">
      <defs>
       <path id="DejaVuSans-4d" d="M 628 4666 
L 1569 4666 
L 2759 1491 
L 3956 4666 
L 4897 4666 
L 4897 0 
L 4281 0 
L 4281 4097 
L 3078 897 
L 2444 897 
L 1241 4097 
L 1241 0 
L 628 0 
L 628 4666 
z
" transform="scale(0.015625)"/>
       <path id="DejaVuSans-28" d="M 1984 4856 
Q 1566 4138 1362 3434 
Q 1159 2731 1159 2009 
Q 1159 1288 1364 580 
Q 1569 -128 1984 -844 
L 1484 -844 
Q 1016 -109 783 600 
Q 550 1309 550 2009 
Q 550 2706 781 3412 
Q 1013 4119 1484 4856 
L 1984 4856 
z
" transform="scale(0.015625)"/>
       <path id="DejaVuSans-41" d="M 2188 4044 
L 1331 1722 
L 3047 1722 
L 2188 4044 
z
M 1831 4666 
L 2547 4666 
L 4325 0 
L 3669 0 
L 3244 1197 
L 1141 1197 
L 716 0 
L 50 0 
L 1831 4666 
z
" transform="scale(0.015625)"/>
       <path id="DejaVuSans-55" d="M 556 4666 
L 1191 4666 
L 1191 1831 
Q 1191 1081 1462 751 
Q 1734 422 2344 422 
Q 2950 422 3222 751 
Q 3494 1081 3494 1831 
L 3494 4666 
L 4128 4666 
L 4128 1753 
Q 4128 841 3676 375 
Q 3225 -91 2344 -91 
Q 1459 -91 1007 375 
Q 556 841 556 1753 
L 556 4666 
z
" transform="scale(0.015625)"/>
       <path id="DejaVuSans-43" d="M 4122 4306 
L 4122 3641 
Q 3803 3938 3442 4084 
Q 3081 4231 2675 4231 
Q 1875 4231 1450 3742 
Q 1025 3253 1025 2328 
Q 1025 1406 1450 917 
Q 1875 428 2675 428 
Q 3081 428 3442 575 
Q 3803 722 4122 1019 
L 4122 359 
Q 3791 134 3420 21 
Q 3050 -91 2638 -91 
Q 1578 -91 968 557 
Q 359 1206 359 2328 
Q 359 3453 968 4101 
Q 1578 4750 2638 4750 
Q 3056 4750 3426 4639 
Q 3797 4528 4122 4306 
z
" transform="scale(0.015625)"/>
       <path id="DejaVuSans-3d" d="M 678 2906 
L 4684 2906 
L 4684 2381 
L 678 2381 
L 678 2906 
z
M 678 1631 
L 4684 1631 
L 4684 1100 
L 678 1100 
L 678 1631 
z
" transform="scale(0.015625)"/>
       <path id="DejaVuSans-35" d="M 691 4666 
L 3169 4666 
L 3169 4134 
L 1269 4134 
L 1269 2991 
Q 1406 3038 1543 3061 
Q 1681 3084 1819 3084 
Q 2600 3084 3056 2656 
Q 3513 2228 3513 1497 
Q 3513 744 3044 326 
Q 2575 -91 1722 -91 
Q 1428 -91 1123 -41 
Q 819 9 494 109 
L 494 744 
Q 775 591 1075 516 
Q 1375 441 1709 441 
Q 2250 441 2565 725 
Q 2881 1009 2881 1497 
Q 2881 1984 2565 2268 
Q 2250 2553 1709 2553 
Q 1456 2553 1204 2497 
Q 953 2441 691 2322 
L 691 4666 
z
" transform="scale(0.015625)"/>
       <path id="DejaVuSans-29" d="M 513 4856 
L 1013 4856 
Q 1481 4119 1714 3412 
Q 1947 2706 1947 2009 
Q 1947 1309 1714 600 
Q 1481 -109 1013 -844 
L 513 -844 
Q 928 -128 1133 580 
Q 1338 1288 1338 2009 
Q 1338 2731 1133 3434 
Q 928 4138 513 4856 
z
" transform="scale(0.015625)"/>
      </defs>
      <use xlink:href="#DejaVuSans-4d"/>
      <use xlink:href="#DejaVuSans-6f" x="86.279297"/>
      <use xlink:href="#DejaVuSans-64" x="147.460938"/>
      <use xlink:href="#DejaVuSans-65" x="210.9375"/>
      <use xlink:href="#DejaVuSans-6c" x="272.460938"/>
      <use xlink:href="#DejaVuSans-20" x="300.244141"/>
      <use xlink:href="#DejaVuSans-28" x="332.03125"/>
      <use xlink:href="#DejaVuSans-41" x="371.044922"/>
      <use xlink:href="#DejaVuSans-55" x="439.453125"/>
      <use xlink:href="#DejaVuSans-43" x="512.646484"/>
      <use xlink:href="#DejaVuSans-20" x="582.470703"/>
      <use xlink:href="#DejaVuSans-3d" x="614.257812"/>
      <use xlink:href="#DejaVuSans-20" x="698.046875"/>
      <use xlink:href="#DejaVuSans-30" x="729.833984"/>
      <use xlink:href="#DejaVuSans-2e" x="793.457031"/>
      <use xlink:href="#DejaVuSans-38" x="825.244141"/>
      <use xlink:href="#DejaVuSans-35" x="888.867188"/>
      <use xlink:href="#DejaVuSans-29" x="952.490234"/>
     </g>
    </g>
   </g>
  </g>
 </g>
 <defs>
  <clipPath id="pd90c3149de">
   <rect x="30.103125" y="22.318125" width="380.52" height="380.52"/>
  </clipPath>
 </defs>
</svg>
