<?xml version="1.0" encoding="utf-8" standalone="no"?>
<!DOCTYPE svg PUBLIC "-//W3C//DTD SVG 1.1//EN"
  "http://www.w3.org/Graphics/SVG/1.1/DTD/svg11.dtd">
<svg height="443.090197pt" version="1.1" viewBox="0 0 432.745406 443.090197" width="432.745406pt" xmlns="http://www.w3.org/2000/svg" xmlns:xlink="http://www.w3.org/1999/xlink">
 <metadata>
  <rdf:RDF xmlns:cc="http://creativecommons.org/ns#" xmlns:dc="http://purl.org/dc/elements/1.1/" xmlns:rdf="http://www.w3.org/1999/02/22-rdf-syntax-ns#">
   <cc:Work>
    <dc:type rdf:resource="http://purl.org/dc/dcmitype/StillImage"/>
    <dc:date>2022-09-10T17:08:59.160566</dc:date>
    <dc:format>image/svg+xml</dc:format>
    <dc:creator>
     <cc:Agent>
      <dc:title>Matplotlib v3.4.2, https://matplotlib.org/</dc:title>
     </cc:Agent>
    </dc:creator>
   </cc:Work>
  </rdf:RDF>
 </metadata>
 <defs>
  <style type="text/css">*{stroke-linecap:butt;stroke-linejoin:round;}</style>
 </defs>
 <g id="figure_1">
  <g id="patch_1">
   <path d="M 0 443.090197 
L 432.745406 443.090197 
L 432.745406 0 
L 0 0 
z
" style="fill:#ffffff;"/>
  </g>
  <g id="axes_1">
   <g id="patch_2">
    <path d="M 30.39863 402.02218 
L 410.91863 402.02218 
L 410.91863 21.50218 
L 30.39863 21.50218 
z
" style="fill:#eaeaf2;fill-opacity:0.35;"/>
   </g>
   <g id="matplotlib.axis_1">
    <g id="xtick_1">
     <g id="line2d_1">
      <path clip-path="url(#p87188c7762)" d="M 47.694994 402.02218 
L 47.694994 21.50218 
" style="fill:none;stroke:#ffffff;stroke-linecap:round;"/>
     </g>
     <g id="text_1">
      <!-- $\mathdefault{0.0}$ -->
      <g style="fill:#262626;" transform="translate(40.845679 419.132527)scale(0.11 -0.11)">
       <defs>
        <path d="M 1683 4416 
C 691 4416 186 3628 186 2076 
C 186 1326 320 679 544 365 
C 768 51 1126 -128 1523 -128 
C 2490 -128 2976 704 2976 2345 
C 2976 3749 2560 4416 1683 4416 
z
M 1568 4191 
C 2189 4191 2438 3563 2438 2025 
C 2438 660 2195 96 1606 96 
C 986 96 723 743 723 2307 
C 723 3660 960 4191 1568 4191 
z
" id="URWPalladioL-Roma-30" transform="scale(0.015625)"/>
        <path d="M 794 678 
C 602 678 429 499 429 307 
C 429 115 602 -64 787 -64 
C 992 -64 1171 108 1171 307 
C 1171 499 992 678 794 678 
z
" id="URWPalladioL-Roma-2e" transform="scale(0.015625)"/>
       </defs>
       <use transform="scale(0.996264)" xlink:href="#URWPalladioL-Roma-30"/>
       <use transform="translate(49.8132 0)scale(0.996264)" xlink:href="#URWPalladioL-Roma-2e"/>
       <use transform="translate(74.719801 0)scale(0.996264)" xlink:href="#URWPalladioL-Roma-30"/>
      </g>
     </g>
    </g>
    <g id="xtick_2">
     <g id="line2d_2">
      <path clip-path="url(#p87188c7762)" d="M 116.880448 402.02218 
L 116.880448 21.50218 
" style="fill:none;stroke:#ffffff;stroke-linecap:round;"/>
     </g>
     <g id="text_2">
      <!-- $\mathdefault{0.2}$ -->
      <g style="fill:#262626;" transform="translate(110.031133 419.132527)scale(0.11 -0.11)">
       <defs>
        <path d="M 102 166 
L 102 0 
C 1299 0 1299 0 1530 0 
C 1760 19 1760 19 2995 0 
C 2982 134 2982 198 2982 287 
C 2982 370 2982 434 2995 574 
C 2259 542 1965 536 781 510 
L 1946 1741 
C 2566 2398 2758 2749 2758 3228 
C 2758 3961 2259 4416 1446 4416 
C 986 4416 672 4287 358 3967 
L 250 3100 
L 435 3100 
L 518 3394 
C 621 3763 851 3923 1280 3923 
C 1830 3923 2182 3578 2182 3036 
C 2182 2558 1914 2086 1190 1320 
L 102 166 
z
" id="URWPalladioL-Roma-32" transform="scale(0.015625)"/>
       </defs>
       <use transform="scale(0.996264)" xlink:href="#URWPalladioL-Roma-30"/>
       <use transform="translate(49.8132 0)scale(0.996264)" xlink:href="#URWPalladioL-Roma-2e"/>
       <use transform="translate(74.719801 0)scale(0.996264)" xlink:href="#URWPalladioL-Roma-32"/>
      </g>
     </g>
    </g>
    <g id="xtick_3">
     <g id="line2d_3">
      <path clip-path="url(#p87188c7762)" d="M 186.065903 402.02218 
L 186.065903 21.50218 
" style="fill:none;stroke:#ffffff;stroke-linecap:round;"/>
     </g>
     <g id="text_3">
      <!-- $\mathdefault{0.4}$ -->
      <g style="fill:#262626;" transform="translate(179.216588 419.132527)scale(0.11 -0.11)">
       <defs>
        <path d="M 1792 1152 
L 1792 684 
C 1792 310 1722 223 1408 210 
L 1011 192 
L 1011 0 
C 1862 0 1862 0 2016 0 
C 2170 19 2170 19 3021 0 
L 3021 192 
L 2714 210 
C 2400 229 2330 310 2330 684 
L 2330 1152 
C 2707 1152 2842 1145 3021 1127 
L 3021 1580 
C 2720 1555 2598 1555 2502 1561 
L 2483 1561 
L 2330 1561 
L 2330 2445 
C 2330 3576 2342 4122 2374 4383 
L 2298 4416 
L 1824 4243 
L 13 1299 
L 83 1152 
L 1792 1152 
z
M 1792 1561 
L 416 1561 
L 1792 3798 
L 1792 1561 
z
" id="URWPalladioL-Roma-34" transform="scale(0.015625)"/>
       </defs>
       <use transform="scale(0.996264)" xlink:href="#URWPalladioL-Roma-30"/>
       <use transform="translate(49.8132 0)scale(0.996264)" xlink:href="#URWPalladioL-Roma-2e"/>
       <use transform="translate(74.719801 0)scale(0.996264)" xlink:href="#URWPalladioL-Roma-34"/>
      </g>
     </g>
    </g>
    <g id="xtick_4">
     <g id="line2d_4">
      <path clip-path="url(#p87188c7762)" d="M 255.251357 402.02218 
L 255.251357 21.50218 
" style="fill:none;stroke:#ffffff;stroke-linecap:round;"/>
     </g>
     <g id="text_4">
      <!-- $\mathdefault{0.6}$ -->
      <g style="fill:#262626;" transform="translate(248.402042 419.132527)scale(0.11 -0.11)">
       <defs>
        <path d="M 2662 4287 
L 2426 4396 
C 1811 4193 1549 4066 1222 3788 
C 563 3237 205 2463 205 1585 
C 205 526 717 -128 1542 -128 
C 2374 -128 2995 532 2995 1405 
C 2995 2143 2554 2624 1875 2624 
C 1555 2624 1363 2540 986 2239 
C 915 2182 909 2175 838 2124 
C 973 3275 1510 3895 2662 4237 
L 2662 4287 
z
M 1632 2239 
C 2118 2239 2445 1816 2445 1180 
C 2445 513 2118 83 1626 83 
C 1082 83 787 551 787 1411 
C 787 1636 813 1758 883 1867 
C 1024 2085 1325 2239 1632 2239 
z
" id="URWPalladioL-Roma-36" transform="scale(0.015625)"/>
       </defs>
       <use transform="scale(0.996264)" xlink:href="#URWPalladioL-Roma-30"/>
       <use transform="translate(49.8132 0)scale(0.996264)" xlink:href="#URWPalladioL-Roma-2e"/>
       <use transform="translate(74.719801 0)scale(0.996264)" xlink:href="#URWPalladioL-Roma-36"/>
      </g>
     </g>
    </g>
    <g id="xtick_5">
     <g id="line2d_5">
      <path clip-path="url(#p87188c7762)" d="M 324.436812 402.02218 
L 324.436812 21.50218 
" style="fill:none;stroke:#ffffff;stroke-linecap:round;"/>
     </g>
     <g id="text_5">
      <!-- $\mathdefault{0.8}$ -->
      <g style="fill:#262626;" transform="translate(317.587497 419.132527)scale(0.11 -0.11)">
       <defs>
        <path d="M 1075 2211 
C 813 2089 704 2019 563 1884 
C 320 1640 192 1352 192 1019 
C 192 358 723 -128 1446 -128 
C 2278 -128 2970 525 2970 1320 
C 2970 1833 2733 2108 2003 2442 
C 2586 2839 2790 3108 2790 3493 
C 2790 4044 2336 4416 1658 4416 
C 896 4416 339 3929 339 3256 
C 339 2820 512 2576 1075 2211 
z
M 1818 1890 
C 2221 1711 2464 1397 2464 1051 
C 2464 512 2061 89 1542 89 
C 998 89 646 474 646 1070 
C 646 1538 832 1833 1306 2121 
L 1818 1890 
z
M 1427 2711 
C 1024 2910 819 3166 819 3486 
C 819 3910 1126 4198 1581 4198 
C 2048 4198 2355 3890 2355 3422 
C 2355 3057 2195 2807 1779 2538 
L 1427 2711 
z
" id="URWPalladioL-Roma-38" transform="scale(0.015625)"/>
       </defs>
       <use transform="scale(0.996264)" xlink:href="#URWPalladioL-Roma-30"/>
       <use transform="translate(49.8132 0)scale(0.996264)" xlink:href="#URWPalladioL-Roma-2e"/>
       <use transform="translate(74.719801 0)scale(0.996264)" xlink:href="#URWPalladioL-Roma-38"/>
      </g>
     </g>
    </g>
    <g id="xtick_6">
     <g id="line2d_6">
      <path clip-path="url(#p87188c7762)" d="M 393.622267 402.02218 
L 393.622267 21.50218 
" style="fill:none;stroke:#ffffff;stroke-linecap:round;"/>
     </g>
     <g id="text_6">
      <!-- $\mathdefault{1.0}$ -->
      <g style="fill:#262626;" transform="translate(386.772951 419.132527)scale(0.11 -0.11)">
       <defs>
        <path d="M 429 3571 
L 493 3571 
L 1318 3942 
C 1325 3949 1331 3949 1338 3949 
C 1376 3949 1389 3891 1389 3737 
L 1389 633 
C 1389 300 1318 230 973 211 
L 614 192 
L 614 0 
C 1600 0 1600 0 1670 0 
C 1754 0 1894 0 2112 -7 
C 2189 6 2413 6 2675 0 
L 2675 192 
L 2342 211 
C 1990 229 1926 299 1926 628 
L 1926 4383 
L 1837 4416 
C 1421 4199 966 4009 384 3807 
L 429 3571 
z
" id="URWPalladioL-Roma-31" transform="scale(0.015625)"/>
       </defs>
       <use transform="scale(0.996264)" xlink:href="#URWPalladioL-Roma-31"/>
       <use transform="translate(49.8132 0)scale(0.996264)" xlink:href="#URWPalladioL-Roma-2e"/>
       <use transform="translate(74.719801 0)scale(0.996264)" xlink:href="#URWPalladioL-Roma-30"/>
      </g>
     </g>
    </g>
    <g id="text_7">
     <!-- False Positive Rate -->
     <g style="fill:#262626;" transform="translate(174.411791 433.565601)scale(0.12 -0.12)">
      <defs>
       <path d="M 2918 1984 
L 2918 2374 
L 1101 2374 
L 1101 3993 
L 1882 3993 
C 1958 3993 2035 3987 2112 3987 
L 3168 3987 
L 3168 4403 
L 563 4403 
L 563 0 
L 1101 0 
L 1101 1984 
L 2918 1984 
z
" id="CMSS17-46" transform="scale(0.015625)"/>
       <path d="M 2406 1789 
C 2406 2399 1978 2816 1402 2816 
C 1120 2816 813 2764 461 2559 
L 499 2133 
C 659 2250 934 2438 1395 2438 
C 1722 2438 1920 2185 1920 1782 
L 1920 1536 
C 896 1504 256 1209 256 711 
C 256 452 416 -64 947 -64 
C 1043 -64 1562 -52 1933 224 
L 1933 -13 
L 2406 -13 
L 2406 1789 
z
M 1920 824 
C 1920 711 1920 559 1728 446 
C 1562 339 1350 326 1261 326 
C 941 326 723 503 723 723 
C 723 1165 1722 1209 1920 1216 
L 1920 824 
z
" id="CMSS17-61" transform="scale(0.015625)"/>
       <path d="M 947 4416 
L 474 4416 
L 474 0 
L 947 0 
L 947 4416 
z
" id="CMSS17-6c" transform="scale(0.015625)"/>
       <path d="M 2061 2623 
C 1683 2803 1389 2816 1197 2816 
C 742 2816 198 2655 198 2009 
C 198 1363 902 1222 1094 1183 
C 1389 1126 1715 1062 1715 742 
C 1715 339 1254 339 1171 339 
C 915 339 563 409 243 639 
L 166 211 
C 531 0 883 -64 1178 -64 
C 1965 -64 2163 416 2163 780 
C 2163 1094 1984 1305 1862 1401 
C 1651 1567 1574 1587 1050 1695 
C 960 1708 646 1779 646 2067 
C 646 2431 1050 2431 1139 2431 
C 1555 2431 1811 2303 1984 2207 
L 2061 2623 
z
" id="CMSS17-73" transform="scale(0.015625)"/>
       <path d="M 2502 1375 
C 2502 1587 2490 2001 2285 2347 
C 2061 2713 1696 2816 1421 2816 
C 755 2816 192 2184 192 1363 
C 192 579 774 -64 1510 -64 
C 1798 -64 2150 19 2470 249 
C 2470 275 2458 414 2451 421 
C 2451 433 2432 629 2432 655 
C 2125 408 1773 326 1517 326 
C 1107 326 666 667 646 1375 
L 2502 1375 
z
M 698 1728 
C 781 2086 1062 2425 1421 2425 
C 1517 2425 1965 2412 2080 1728 
L 698 1728 
z
" id="CMSS17-65" transform="scale(0.015625)"/>
       <path d="M 2106 1856 
C 2874 1856 3501 2447 3501 3139 
C 3501 3818 2899 4416 2067 4416 
L 570 4416 
L 570 0 
L 1107 0 
L 1107 1856 
L 2106 1856 
z
M 1926 4057 
C 2669 4057 2995 3598 2995 3139 
C 2995 2711 2694 2227 1926 2227 
L 1094 2227 
L 1094 4057 
L 1926 4057 
z
" id="CMSS17-50" transform="scale(0.015625)"/>
       <path d="M 2829 1356 
C 2829 2175 2221 2816 1504 2816 
C 768 2816 173 2156 173 1356 
C 173 544 787 -64 1498 -64 
C 2227 -64 2829 563 2829 1356 
z
M 1504 339 
C 1050 339 659 710 659 1407 
C 659 2150 1114 2425 1498 2425 
C 1914 2425 2342 2124 2342 1407 
C 2342 684 1926 339 1504 339 
z
" id="CMSS17-6f" transform="scale(0.015625)"/>
       <path d="M 979 4224 
L 442 4224 
L 442 3686 
L 979 3686 
L 979 4224 
z
M 947 2752 
L 474 2752 
L 474 0 
L 947 0 
L 947 2752 
z
" id="CMSS17-69" transform="scale(0.015625)"/>
       <path d="M 1069 2380 
L 1901 2380 
L 1901 2752 
L 1069 2752 
L 1069 3520 
L 614 3520 
L 614 2752 
L 109 2752 
L 109 2380 
L 602 2380 
L 602 751 
C 602 384 685 -64 1107 -64 
C 1427 -64 1722 25 2003 172 
L 1901 551 
C 1747 416 1562 339 1363 339 
C 1082 339 1069 699 1069 860 
L 1069 2380 
z
" id="CMSS17-74" transform="scale(0.015625)"/>
       <path d="M 2675 2752 
L 2176 2752 
L 1747 1555 
C 1613 1164 1421 627 1389 352 
L 1382 352 
C 1370 467 1318 633 1286 748 
C 1248 889 1197 1056 1158 1171 
L 595 2752 
L 83 2752 
L 1094 0 
L 1664 0 
L 2675 2752 
z
" id="CMSS17-76" transform="scale(0.015625)"/>
       <path d="M 2522 2099 
L 2534 2105 
C 3533 2450 3539 3125 3539 3244 
C 3539 3838 2925 4416 2003 4416 
L 570 4416 
L 570 0 
L 1094 0 
L 1094 2041 
L 2035 2041 
L 3168 0 
L 3706 0 
L 2522 2099 
z
M 1094 2432 
L 1094 4057 
L 1933 4057 
C 2746 4057 3034 3607 3034 3244 
C 3034 2907 2778 2432 1933 2432 
L 1094 2432 
z
" id="CMSS17-52" transform="scale(0.015625)"/>
      </defs>
      <use transform="scale(0.996264)" xlink:href="#CMSS17-46"/>
      <use transform="translate(50.687105 0)scale(0.996264)" xlink:href="#CMSS17-61"/>
      <use transform="translate(95.609026 0)scale(0.996264)" xlink:href="#CMSS17-6c"/>
      <use transform="translate(117.789749 0)scale(0.996264)" xlink:href="#CMSS17-73"/>
      <use transform="translate(153.703291 0)scale(0.996264)" xlink:href="#CMSS17-65"/>
      <use transform="translate(226.571226 0)scale(0.996264)" xlink:href="#CMSS17-50"/>
      <use transform="translate(283.704358 0)scale(0.996264)" xlink:href="#CMSS17-6f"/>
      <use transform="translate(330.547982 0)scale(0.996264)" xlink:href="#CMSS17-73"/>
      <use transform="translate(366.461524 0)scale(0.996264)" xlink:href="#CMSS17-69"/>
      <use transform="translate(388.642247 0)scale(0.996264)" xlink:href="#CMSS17-74"/>
      <use transform="translate(422.473813 0)scale(0.996264)" xlink:href="#CMSS17-69"/>
      <use transform="translate(444.654536 0)scale(0.996264)" xlink:href="#CMSS17-76"/>
      <use transform="translate(487.654678 0)scale(0.996264)" xlink:href="#CMSS17-65"/>
      <use transform="translate(560.522613 0)scale(0.996264)" xlink:href="#CMSS17-52"/>
      <use transform="translate(620.938768 0)scale(0.996264)" xlink:href="#CMSS17-61"/>
      <use transform="translate(665.860688 0)scale(0.996264)" xlink:href="#CMSS17-74"/>
      <use transform="translate(699.692255 0)scale(0.996264)" xlink:href="#CMSS17-65"/>
     </g>
    </g>
   </g>
   <g id="matplotlib.axis_2">
    <g id="ytick_1">
     <g id="line2d_7">
      <path clip-path="url(#p87188c7762)" d="M 30.39863 384.725816 
L 410.91863 384.725816 
" style="fill:none;stroke:#ffffff;stroke-linecap:round;"/>
     </g>
     <g id="text_8">
      <!-- $\mathdefault{0.0}$ -->
      <g style="fill:#262626;" transform="translate(7.2 388.53099)scale(0.11 -0.11)">
       <use transform="scale(0.996264)" xlink:href="#URWPalladioL-Roma-30"/>
       <use transform="translate(49.8132 0)scale(0.996264)" xlink:href="#URWPalladioL-Roma-2e"/>
       <use transform="translate(74.719801 0)scale(0.996264)" xlink:href="#URWPalladioL-Roma-30"/>
      </g>
     </g>
    </g>
    <g id="ytick_2">
     <g id="line2d_8">
      <path clip-path="url(#p87188c7762)" d="M 30.39863 315.540362 
L 410.91863 315.540362 
" style="fill:none;stroke:#ffffff;stroke-linecap:round;"/>
     </g>
     <g id="text_9">
      <!-- $\mathdefault{0.2}$ -->
      <g style="fill:#262626;" transform="translate(7.2 319.345535)scale(0.11 -0.11)">
       <use transform="scale(0.996264)" xlink:href="#URWPalladioL-Roma-30"/>
       <use transform="translate(49.8132 0)scale(0.996264)" xlink:href="#URWPalladioL-Roma-2e"/>
       <use transform="translate(74.719801 0)scale(0.996264)" xlink:href="#URWPalladioL-Roma-32"/>
      </g>
     </g>
    </g>
    <g id="ytick_3">
     <g id="line2d_9">
      <path clip-path="url(#p87188c7762)" d="M 30.39863 246.354907 
L 410.91863 246.354907 
" style="fill:none;stroke:#ffffff;stroke-linecap:round;"/>
     </g>
     <g id="text_10">
      <!-- $\mathdefault{0.4}$ -->
      <g style="fill:#262626;" transform="translate(7.2 250.16008)scale(0.11 -0.11)">
       <use transform="scale(0.996264)" xlink:href="#URWPalladioL-Roma-30"/>
       <use transform="translate(49.8132 0)scale(0.996264)" xlink:href="#URWPalladioL-Roma-2e"/>
       <use transform="translate(74.719801 0)scale(0.996264)" xlink:href="#URWPalladioL-Roma-34"/>
      </g>
     </g>
    </g>
    <g id="ytick_4">
     <g id="line2d_10">
      <path clip-path="url(#p87188c7762)" d="M 30.39863 177.169453 
L 410.91863 177.169453 
" style="fill:none;stroke:#ffffff;stroke-linecap:round;"/>
     </g>
     <g id="text_11">
      <!-- $\mathdefault{0.6}$ -->
      <g style="fill:#262626;" transform="translate(7.2 180.974626)scale(0.11 -0.11)">
       <use transform="scale(0.996264)" xlink:href="#URWPalladioL-Roma-30"/>
       <use transform="translate(49.8132 0)scale(0.996264)" xlink:href="#URWPalladioL-Roma-2e"/>
       <use transform="translate(74.719801 0)scale(0.996264)" xlink:href="#URWPalladioL-Roma-36"/>
      </g>
     </g>
    </g>
    <g id="ytick_5">
     <g id="line2d_11">
      <path clip-path="url(#p87188c7762)" d="M 30.39863 107.983998 
L 410.91863 107.983998 
" style="fill:none;stroke:#ffffff;stroke-linecap:round;"/>
     </g>
     <g id="text_12">
      <!-- $\mathdefault{0.8}$ -->
      <g style="fill:#262626;" transform="translate(7.2 111.789171)scale(0.11 -0.11)">
       <use transform="scale(0.996264)" xlink:href="#URWPalladioL-Roma-30"/>
       <use transform="translate(49.8132 0)scale(0.996264)" xlink:href="#URWPalladioL-Roma-2e"/>
       <use transform="translate(74.719801 0)scale(0.996264)" xlink:href="#URWPalladioL-Roma-38"/>
      </g>
     </g>
    </g>
    <g id="ytick_6">
     <g id="line2d_12">
      <path clip-path="url(#p87188c7762)" d="M 30.39863 38.798543 
L 410.91863 38.798543 
" style="fill:none;stroke:#ffffff;stroke-linecap:round;"/>
     </g>
     <g id="text_13">
      <!-- $\mathdefault{1.0}$ -->
      <g style="fill:#262626;" transform="translate(7.2 42.603717)scale(0.11 -0.11)">
       <use transform="scale(0.996264)" xlink:href="#URWPalladioL-Roma-31"/>
       <use transform="translate(49.8132 0)scale(0.996264)" xlink:href="#URWPalladioL-Roma-2e"/>
       <use transform="translate(74.719801 0)scale(0.996264)" xlink:href="#URWPalladioL-Roma-30"/>
      </g>
     </g>
    </g>
    <g id="text_14">
     <!-- True Positive Rate -->
     <g style="fill:#262626;" transform="translate(423.22081 256.920762)rotate(-90)scale(0.12 -0.12)">
      <defs>
       <path d="M 2317 3987 
L 2848 3987 
C 2925 3987 3002 3980 3078 3980 
L 3878 3980 
L 3878 4396 
L 218 4396 
L 218 3980 
L 1018 3980 
C 1094 3980 1171 3987 1248 3987 
L 1779 3987 
L 1779 0 
L 2317 0 
L 2317 3987 
z
" id="CMSS17-54" transform="scale(0.015625)"/>
       <path d="M 954 1369 
C 954 1974 1395 2379 1958 2392 
L 1958 2816 
C 1549 2809 1165 2604 934 2270 
L 934 2783 
L 480 2783 
L 480 0 
L 954 0 
L 954 1369 
z
" id="CMSS17-72" transform="scale(0.015625)"/>
       <path d="M 2618 2752 
L 2131 2752 
L 2131 976 
C 2131 500 1786 307 1421 307 
C 998 307 960 448 960 712 
L 960 2752 
L 474 2752 
L 474 680 
C 474 179 646 -64 1088 -64 
C 1306 -64 1798 -13 2144 307 
L 2144 -13 
L 2618 -13 
L 2618 2752 
z
" id="CMSS17-75" transform="scale(0.015625)"/>
      </defs>
      <use transform="scale(0.996264)" xlink:href="#CMSS17-54"/>
      <use transform="translate(56.012199 0)scale(0.996264)" xlink:href="#CMSS17-72"/>
      <use transform="translate(87.921971 0)scale(0.996264)" xlink:href="#CMSS17-75"/>
      <use transform="translate(136.126914 0)scale(0.996264)" xlink:href="#CMSS17-65"/>
      <use transform="translate(208.994849 0)scale(0.996264)" xlink:href="#CMSS17-50"/>
      <use transform="translate(266.127981 0)scale(0.996264)" xlink:href="#CMSS17-6f"/>
      <use transform="translate(312.971605 0)scale(0.996264)" xlink:href="#CMSS17-73"/>
      <use transform="translate(348.885147 0)scale(0.996264)" xlink:href="#CMSS17-69"/>
      <use transform="translate(371.06587 0)scale(0.996264)" xlink:href="#CMSS17-74"/>
      <use transform="translate(404.897437 0)scale(0.996264)" xlink:href="#CMSS17-69"/>
      <use transform="translate(427.07816 0)scale(0.996264)" xlink:href="#CMSS17-76"/>
      <use transform="translate(470.078301 0)scale(0.996264)" xlink:href="#CMSS17-65"/>
      <use transform="translate(542.946236 0)scale(0.996264)" xlink:href="#CMSS17-52"/>
      <use transform="translate(603.362391 0)scale(0.996264)" xlink:href="#CMSS17-61"/>
      <use transform="translate(648.284312 0)scale(0.996264)" xlink:href="#CMSS17-74"/>
      <use transform="translate(682.115878 0)scale(0.996264)" xlink:href="#CMSS17-65"/>
     </g>
    </g>
   </g>
   <g id="line2d_13">
    <path clip-path="url(#p87188c7762)" d="M 47.694994 384.725816 
L 47.694994 38.798543 
L 393.622267 38.798543 
" style="fill:none;stroke:#4c72b0;stroke-linecap:round;stroke-width:1.5;"/>
   </g>
   <g id="line2d_14">
    <path clip-path="url(#p87188c7762)" d="M 47.694994 152.221983 
L 47.694994 195.828237 
L 49.42463 195.999692 
L 49.42463 202.500645 
L 51.154267 202.912917 
L 51.154267 205.784103 
L 56.343176 206.114978 
L 56.343176 206.199088 
L 58.072812 206.352726 
L 58.072812 206.976899 
L 59.802448 207.266047 
L 59.802448 207.854613 
L 64.991357 208.173291 
L 64.991357 208.526793 
L 68.45063 208.824601 
L 68.45063 208.876059 
L 70.180267 208.961863 
L 70.180267 209.01123 
L 71.909903 209.069717 
L 71.909903 209.39688 
L 73.639539 209.445333 
L 73.639539 209.628058 
L 80.558085 210.46174 
L 80.558085 210.754686 
L 82.287721 210.775845 
L 82.287721 211.042041 
L 87.47663 211.243145 
L 87.47663 212.542878 
L 89.206267 212.692213 
L 89.206267 213.131438 
L 92.665539 213.698244 
L 92.665539 213.701064 
L 94.395176 213.935571 
L 94.395176 214.123925 
L 99.584085 214.517551 
L 99.584085 214.753855 
L 103.043357 215.058319 
L 103.043357 215.398287 
L 104.772994 215.490438 
L 104.772994 216.027526 
L 106.50263 216.067457 
L 106.50263 216.560992 
L 108.232267 216.607686 
L 108.232267 216.772097 
L 109.961903 216.794548 
L 109.961903 216.847566 
L 115.150812 217.425536 
L 115.150812 217.577892 
L 123.798994 218.256943 
L 123.798994 218.314075 
L 130.717539 218.615322 
L 130.717539 218.648849 
L 132.447176 218.750723 
L 132.447176 218.75237 
L 135.906448 218.775447 
L 135.906448 218.861989 
L 137.636085 218.947401 
L 137.636085 219.159577 
L 141.095357 219.320221 
L 141.095357 219.392889 
L 144.55463 219.57109 
L 144.55463 219.795199 
L 146.284267 219.812922 
L 146.284267 219.939221 
L 148.013903 219.971363 
L 148.013903 220.033054 
L 151.473176 220.170507 
L 151.473176 220.547688 
L 158.391721 220.83031 
L 158.391721 220.929677 
L 163.58063 221.308319 
L 163.58063 221.315088 
L 165.310267 221.406453 
L 165.310267 221.461106 
L 172.228812 221.899006 
L 172.228812 222.391957 
L 175.688085 222.665204 
L 175.688085 222.921408 
L 179.147357 223.083726 
L 179.147357 223.171522 
L 203.362267 223.992959 
L 203.362267 224.003795 
L 208.551176 224.434419 
L 208.551176 224.664977 
L 225.847539 225.51414 
L 225.847539 225.553386 
L 232.766085 225.910709 
L 232.766085 226.547185 
L 236.225357 226.670558 
L 236.225357 226.732782 
L 241.414267 226.994001 
L 241.414267 227.090654 
L 243.143903 227.325237 
L 243.143903 227.328225 
L 246.603176 227.720845 
L 246.603176 227.804728 
L 260.440267 228.487439 
L 260.440267 228.605489 
L 265.629176 228.947384 
L 265.629176 228.993131 
L 277.73663 229.900494 
L 277.73663 230.636116 
L 284.655176 231.757372 
L 284.655176 231.765679 
L 296.76263 232.356767 
L 296.76263 232.368096 
L 303.681176 232.654027 
L 303.681176 232.709 
L 305.410812 232.841046 
L 305.410812 232.877931 
L 326.166448 233.56265 
L 326.166448 233.811938 
L 393.622267 238.854235 
" style="fill:none;stroke:#3cb371;stroke-dasharray:7.4,3.2;stroke-dashoffset:0;stroke-width:2;"/>
   </g>
   <g id="line2d_15">
    <path clip-path="url(#p87188c7762)" d="M 47.694994 384.725816 
L 47.694994 382.99618 
L 47.694994 218.680725 
L 49.42463 218.680725 
L 49.42463 187.547271 
L 51.154267 187.547271 
L 51.154267 180.628725 
L 56.343176 180.628725 
L 56.343176 178.899089 
L 58.072812 178.899089 
L 58.072812 171.980543 
L 59.802448 171.980543 
L 59.802448 168.521271 
L 64.991357 168.521271 
L 64.991357 159.873089 
L 68.45063 159.873089 
L 68.45063 158.143453 
L 70.180267 158.143453 
L 70.180267 154.68418 
L 71.909903 154.68418 
L 71.909903 152.954543 
L 73.639539 152.954543 
L 73.639539 151.224907 
L 80.558085 151.224907 
L 80.558085 147.765634 
L 82.287721 147.765634 
L 82.287721 144.306362 
L 87.47663 144.306362 
L 87.47663 139.117453 
L 89.206267 139.117453 
L 89.206267 133.928543 
L 92.665539 133.928543 
L 92.665539 132.198907 
L 94.395176 132.198907 
L 94.395176 130.469271 
L 99.584085 130.469271 
L 99.584085 128.739634 
L 103.043357 128.739634 
L 103.043357 125.280362 
L 104.772994 125.280362 
L 104.772994 121.821089 
L 106.50263 121.821089 
L 106.50263 118.361816 
L 108.232267 118.361816 
L 108.232267 114.902543 
L 109.961903 114.902543 
L 109.961903 111.443271 
L 115.150812 111.443271 
L 115.150812 109.713634 
L 123.798994 109.713634 
L 123.798994 107.983998 
L 130.717539 107.983998 
L 130.717539 106.254362 
L 132.447176 106.254362 
L 132.447176 104.524725 
L 135.906448 104.524725 
L 135.906448 101.065453 
L 137.636085 101.065453 
L 137.636085 99.335816 
L 141.095357 99.335816 
L 141.095357 97.60618 
L 144.55463 97.60618 
L 144.55463 92.417271 
L 146.284267 92.417271 
L 146.284267 90.687634 
L 148.013903 90.687634 
L 148.013903 88.957998 
L 151.473176 88.957998 
L 151.473176 87.228362 
L 158.391721 87.228362 
L 158.391721 83.769089 
L 163.58063 83.769089 
L 163.58063 82.039453 
L 165.310267 82.039453 
L 165.310267 80.309816 
L 172.228812 80.309816 
L 172.228812 78.58018 
L 175.688085 78.58018 
L 175.688085 73.391271 
L 179.147357 73.391271 
L 179.147357 71.661634 
L 203.362267 71.661634 
L 203.362267 69.931998 
L 208.551176 69.931998 
L 208.551176 68.202362 
L 225.847539 68.202362 
L 225.847539 66.472725 
L 232.766085 66.472725 
L 232.766085 63.013453 
L 236.225357 63.013453 
L 236.225357 61.283816 
L 241.414267 61.283816 
L 241.414267 59.55418 
L 243.143903 59.55418 
L 243.143903 57.824543 
L 246.603176 57.824543 
L 246.603176 56.094907 
L 260.440267 56.094907 
L 260.440267 54.365271 
L 265.629176 54.365271 
L 265.629176 52.635634 
L 277.73663 52.635634 
L 277.73663 47.446725 
L 284.655176 47.446725 
L 284.655176 45.717089 
L 296.76263 45.717089 
L 296.76263 43.987453 
L 303.681176 43.987453 
L 303.681176 42.257816 
L 305.410812 42.257816 
L 305.410812 40.52818 
L 326.166448 40.52818 
L 326.166448 38.798543 
L 393.622267 38.798543 
" style="fill:none;stroke:#ff8c00;stroke-linecap:round;stroke-width:2;"/>
   </g>
   <g id="line2d_16">
    <path clip-path="url(#p87188c7762)" d="M 47.694994 384.725816 
L 393.622267 38.798543 
" style="fill:none;stroke:#000080;stroke-dasharray:7.4,3.2;stroke-dashoffset:0;stroke-width:2;"/>
   </g>
   <g id="patch_3">
    <path d="M 30.39863 402.02218 
L 30.39863 21.50218 
" style="fill:none;stroke:#ffffff;stroke-linecap:square;stroke-linejoin:miter;stroke-width:1.25;"/>
   </g>
   <g id="patch_4">
    <path d="M 410.91863 402.02218 
L 410.91863 21.50218 
" style="fill:none;stroke:#ffffff;stroke-linecap:square;stroke-linejoin:miter;stroke-width:1.25;"/>
   </g>
   <g id="patch_5">
    <path d="M 30.39863 402.02218 
L 410.91863 402.02218 
" style="fill:none;stroke:#ffffff;stroke-linecap:square;stroke-linejoin:miter;stroke-width:1.25;"/>
   </g>
   <g id="patch_6">
    <path d="M 30.39863 21.50218 
L 410.91863 21.50218 
" style="fill:none;stroke:#ffffff;stroke-linecap:square;stroke-linejoin:miter;stroke-width:1.25;"/>
   </g>
   <g id="text_15">
    <!-- Receiver Operating Characteristic curve -->
    <g style="fill:#262626;" transform="translate(124.234553 15.50218)scale(0.12 -0.12)">
     <defs>
      <path d="M 2464 2540 
C 2464 2585 2170 2713 2093 2739 
C 1882 2816 1613 2816 1542 2816 
C 710 2816 211 2092 211 1363 
C 211 595 768 -64 1517 -64 
C 1946 -64 2253 76 2502 243 
L 2464 665 
C 2189 454 1869 339 1523 339 
C 1024 339 698 774 698 1369 
C 698 1830 909 2412 1549 2412 
C 1901 2412 2099 2342 2394 2143 
L 2464 2540 
z
" id="CMSS17-63" transform="scale(0.015625)"/>
      <path d="M 4096 2201 
C 4096 3541 3219 4544 2214 4544 
C 1210 4544 333 3535 333 2201 
C 333 855 1222 -128 2214 -128 
C 3206 -128 4096 855 4096 2201 
z
M 2214 275 
C 1510 275 870 1067 870 2285 
C 870 3470 1549 4140 2214 4140 
C 2880 4140 3558 3470 3558 2285 
C 3558 1061 2912 275 2214 275 
z
" id="CMSS17-4f" transform="scale(0.015625)"/>
      <path d="M 966 275 
C 1178 70 1466 -64 1773 -64 
C 2368 -64 2880 553 2880 1382 
C 2880 2147 2496 2816 1946 2816 
C 1626 2816 1242 2700 954 2470 
L 954 2764 
L 480 2764 
L 480 -1280 
L 966 -1280 
L 966 275 
z
M 966 2088 
C 1018 2166 1235 2412 1587 2412 
C 2035 2412 2394 1946 2394 1382 
C 2394 741 1958 326 1530 326 
C 1402 326 1267 358 1139 468 
C 966 624 966 721 966 812 
L 966 2088 
z
" id="CMSS17-70" transform="scale(0.015625)"/>
      <path d="M 2618 1878 
C 2618 2283 2522 2816 1798 2816 
C 1389 2816 1120 2604 941 2386 
L 941 2783 
L 474 2783 
L 474 0 
L 960 0 
L 960 1556 
C 960 1962 1114 2425 1549 2425 
C 2112 2425 2131 2045 2131 1826 
L 2131 0 
L 2618 0 
L 2618 1878 
z
" id="CMSS17-6e" transform="scale(0.015625)"/>
      <path d="M 2848 2816 
C 2483 2809 2170 2739 1914 2617 
C 1702 2783 1485 2816 1338 2816 
C 781 2816 358 2356 358 1824 
C 358 1481 550 1222 563 1209 
C 448 1049 384 876 384 684 
C 384 460 474 300 544 211 
C 211 6 166 -308 166 -429 
C 166 -896 749 -1280 1498 -1280 
C 2253 -1280 2835 -896 2835 -423 
C 2835 460 1856 467 1587 467 
L 1069 467 
C 973 467 717 467 717 793 
C 717 921 774 1004 781 1011 
C 877 940 1075 832 1338 832 
C 1869 832 2310 1279 2310 1824 
C 2310 2128 2170 2349 2112 2425 
L 2131 2425 
C 2150 2425 2419 2444 2515 2444 
C 2720 2444 2739 2438 2918 2419 
L 2848 2816 
z
M 1338 1184 
C 1120 1184 813 1317 813 1824 
C 813 2375 1165 2463 1331 2463 
C 1549 2463 1856 2330 1856 1824 
C 1856 1272 1504 1184 1338 1184 
z
M 1581 0 
C 1734 0 2381 0 2381 -436 
C 2381 -711 1984 -928 1504 -928 
C 1018 -928 621 -717 621 -429 
C 621 -397 621 0 1062 0 
L 1581 0 
z
" id="CMSS17-67" transform="scale(0.015625)"/>
      <path d="M 3501 705 
C 3072 416 2874 332 2355 332 
C 1459 332 934 1304 934 2191 
C 934 3137 1472 4070 2381 4070 
C 2790 4070 3059 3954 3386 3748 
L 3475 4255 
C 3168 4409 2778 4480 2387 4480 
C 1158 4480 397 3343 397 2191 
C 397 924 1299 -77 2323 -77 
C 2874 -77 3066 -32 3539 268 
L 3501 705 
z
" id="CMSS17-43" transform="scale(0.015625)"/>
      <path d="M 2618 1878 
C 2618 2283 2522 2816 1798 2816 
C 1395 2816 1133 2617 947 2399 
L 947 4416 
L 474 4416 
L 474 0 
L 960 0 
L 960 1556 
C 960 1962 1114 2425 1549 2425 
C 2112 2425 2131 2045 2131 1826 
L 2131 0 
L 2618 0 
L 2618 1878 
z
" id="CMSS17-68" transform="scale(0.015625)"/>
     </defs>
     <use transform="scale(0.996264)" xlink:href="#CMSS17-52"/>
     <use transform="translate(60.416155 0)scale(0.996264)" xlink:href="#CMSS17-65"/>
     <use transform="translate(102.054977 0)scale(0.996264)" xlink:href="#CMSS17-63"/>
     <use transform="translate(143.693799 0)scale(0.996264)" xlink:href="#CMSS17-65"/>
     <use transform="translate(185.332621 0)scale(0.996264)" xlink:href="#CMSS17-69"/>
     <use transform="translate(207.513344 0)scale(0.996264)" xlink:href="#CMSS17-76"/>
     <use transform="translate(250.513486 0)scale(0.996264)" xlink:href="#CMSS17-65"/>
     <use transform="translate(292.152308 0)scale(0.996264)" xlink:href="#CMSS17-72"/>
     <use transform="translate(355.291193 0)scale(0.996264)" xlink:href="#CMSS17-4f"/>
     <use transform="translate(424.315449 0)scale(0.996264)" xlink:href="#CMSS17-70"/>
     <use transform="translate(475.12283 0)scale(0.996264)" xlink:href="#CMSS17-65"/>
     <use transform="translate(516.761652 0)scale(0.996264)" xlink:href="#CMSS17-72"/>
     <use transform="translate(548.671425 0)scale(0.996264)" xlink:href="#CMSS17-61"/>
     <use transform="translate(593.593346 0)scale(0.996264)" xlink:href="#CMSS17-74"/>
     <use transform="translate(627.424912 0)scale(0.996264)" xlink:href="#CMSS17-69"/>
     <use transform="translate(649.605635 0)scale(0.996264)" xlink:href="#CMSS17-6e"/>
     <use transform="translate(697.810578 0)scale(0.996264)" xlink:href="#CMSS17-67"/>
     <use transform="translate(775.883315 0)scale(0.996264)" xlink:href="#CMSS17-43"/>
     <use transform="translate(835.739086 0)scale(0.996264)" xlink:href="#CMSS17-68"/>
     <use transform="translate(883.944029 0)scale(0.996264)" xlink:href="#CMSS17-61"/>
     <use transform="translate(926.263496 0)scale(0.996264)" xlink:href="#CMSS17-72"/>
     <use transform="translate(958.173269 0)scale(0.996264)" xlink:href="#CMSS17-61"/>
     <use transform="translate(1003.095189 0)scale(0.996264)" xlink:href="#CMSS17-63"/>
     <use transform="translate(1044.734011 0)scale(0.996264)" xlink:href="#CMSS17-74"/>
     <use transform="translate(1078.565578 0)scale(0.996264)" xlink:href="#CMSS17-65"/>
     <use transform="translate(1120.2044 0)scale(0.996264)" xlink:href="#CMSS17-72"/>
     <use transform="translate(1152.114173 0)scale(0.996264)" xlink:href="#CMSS17-69"/>
     <use transform="translate(1174.294896 0)scale(0.996264)" xlink:href="#CMSS17-73"/>
     <use transform="translate(1210.208438 0)scale(0.996264)" xlink:href="#CMSS17-74"/>
     <use transform="translate(1244.040004 0)scale(0.996264)" xlink:href="#CMSS17-69"/>
     <use transform="translate(1266.220727 0)scale(0.996264)" xlink:href="#CMSS17-63"/>
     <use transform="translate(1339.088662 0)scale(0.996264)" xlink:href="#CMSS17-63"/>
     <use transform="translate(1380.727484 0)scale(0.996264)" xlink:href="#CMSS17-75"/>
     <use transform="translate(1428.932427 0)scale(0.996264)" xlink:href="#CMSS17-72"/>
     <use transform="translate(1460.8422 0)scale(0.996264)" xlink:href="#CMSS17-76"/>
     <use transform="translate(1503.842342 0)scale(0.996264)" xlink:href="#CMSS17-65"/>
    </g>
   </g>
   <g id="legend_1">
    <g id="patch_7">
     <path d="M 270.468899 396.52218 
L 403.21863 396.52218 
Q 405.41863 396.52218 405.41863 394.32218 
L 405.41863 332.970592 
Q 405.41863 330.770592 403.21863 330.770592 
L 270.468899 330.770592 
Q 268.268899 330.770592 268.268899 332.970592 
L 268.268899 394.32218 
Q 268.268899 396.52218 270.468899 396.52218 
z
" style="fill:#eaeaf2;opacity:0.8;stroke:#cccccc;stroke-linejoin:miter;"/>
    </g>
    <g id="line2d_17">
     <path d="M 272.668899 339.020592 
L 294.668899 339.020592 
" style="fill:none;stroke:#4c72b0;stroke-linecap:round;stroke-width:1.5;"/>
    </g>
    <g id="line2d_18"/>
    <g id="text_16">
     <!-- Ideal -->
     <g style="fill:#262626;" transform="translate(303.468899 342.870592)scale(0.11 -0.11)">
      <defs>
       <path d="M 1094 4416 
L 557 4416 
L 557 0 
L 1094 0 
L 1094 4416 
z
" id="CMSS17-49" transform="scale(0.015625)"/>
       <path d="M 2611 4416 
L 2138 4416 
L 2138 2495 
C 1939 2662 1613 2816 1254 2816 
C 672 2816 211 2179 211 1375 
C 211 572 666 -64 1235 -64 
C 1677 -64 1971 172 2125 307 
L 2125 -13 
L 2611 -13 
L 2611 4416 
z
M 2125 851 
C 2125 760 2125 663 1926 488 
C 1798 378 1645 326 1498 326 
C 1152 326 698 585 698 1369 
C 698 2185 1210 2425 1562 2425 
C 1798 2425 1990 2308 2125 2114 
L 2125 851 
z
" id="CMSS17-64" transform="scale(0.015625)"/>
      </defs>
      <use transform="scale(0.996264)" xlink:href="#CMSS17-49"/>
      <use transform="translate(25.783926 0)scale(0.996264)" xlink:href="#CMSS17-64"/>
      <use transform="translate(73.988869 0)scale(0.996264)" xlink:href="#CMSS17-65"/>
      <use transform="translate(115.627691 0)scale(0.996264)" xlink:href="#CMSS17-61"/>
      <use transform="translate(160.549611 0)scale(0.996264)" xlink:href="#CMSS17-6c"/>
     </g>
    </g>
    <g id="line2d_19">
     <path d="M 272.668899 354.351486 
L 294.668899 354.351486 
" style="fill:none;stroke:#3cb371;stroke-dasharray:7.4,3.2;stroke-dashoffset:0;stroke-width:2;"/>
    </g>
    <g id="line2d_20"/>
    <g id="text_17">
     <!-- Threshold -->
     <g style="fill:#262626;" transform="translate(303.468899 358.201486)scale(0.11 -0.11)">
      <use transform="scale(0.996264)" xlink:href="#CMSS17-54"/>
      <use transform="translate(63.819454 0)scale(0.996264)" xlink:href="#CMSS17-68"/>
      <use transform="translate(112.024397 0)scale(0.996264)" xlink:href="#CMSS17-72"/>
      <use transform="translate(143.93417 0)scale(0.996264)" xlink:href="#CMSS17-65"/>
      <use transform="translate(185.572992 0)scale(0.996264)" xlink:href="#CMSS17-73"/>
      <use transform="translate(221.486534 0)scale(0.996264)" xlink:href="#CMSS17-68"/>
      <use transform="translate(269.691477 0)scale(0.996264)" xlink:href="#CMSS17-6f"/>
      <use transform="translate(316.5351 0)scale(0.996264)" xlink:href="#CMSS17-6c"/>
      <use transform="translate(338.715823 0)scale(0.996264)" xlink:href="#CMSS17-64"/>
     </g>
    </g>
    <g id="line2d_21">
     <path d="M 272.668899 370.201559 
L 294.668899 370.201559 
" style="fill:none;stroke:#ff8c00;stroke-linecap:round;stroke-width:2;"/>
    </g>
    <g id="line2d_22"/>
    <g id="text_18">
     <!-- Model (AUC = 0.89) -->
     <g style="fill:#262626;" transform="translate(303.468899 374.051559)scale(0.11 -0.11)">
      <defs>
       <path d="M 3194 2373 
L 2886 1476 
C 2835 1311 2662 795 2624 592 
L 2618 592 
C 2598 719 2560 853 2458 1177 
C 2400 1368 2336 1565 2272 1743 
L 1325 4416 
L 576 4416 
L 576 0 
L 1075 0 
L 1075 3899 
L 1082 3899 
C 1082 3893 1139 3613 1530 2500 
L 2374 102 
L 2848 102 
L 3610 2233 
C 3661 2379 3821 2843 3891 3066 
C 3955 3257 4115 3728 4154 3912 
L 4160 3912 
L 4160 0 
L 4666 0 
L 4666 4416 
L 3923 4416 
L 3194 2373 
z
" id="CMSS17-4d" transform="scale(0.015625)"/>
       <path d="M 1613 4800 
C 1267 4447 474 3627 474 1603 
C 474 -428 1267 -1242 1613 -1600 
L 2003 -1600 
C 1216 -781 960 366 960 1596 
C 960 2820 1203 3973 2003 4800 
L 1613 4800 
z
" id="CMSS17-28" transform="scale(0.015625)"/>
       <path d="M 2272 4416 
L 1722 4416 
L 166 0 
L 653 0 
L 1101 1280 
L 2816 1280 
L 3270 0 
L 3827 0 
L 2272 4416 
z
M 2694 1638 
L 1222 1638 
C 1530 2530 1914 3638 1958 3924 
L 1965 3924 
C 2010 3663 2138 3281 2246 2956 
L 2694 1638 
z
" id="CMSS17-41" transform="scale(0.015625)"/>
       <path d="M 3552 4416 
L 3066 4416 
L 3066 1459 
C 3066 608 2547 230 2074 230 
C 1587 230 1101 627 1101 1452 
L 1101 4416 
L 563 4416 
L 563 1465 
C 563 544 1274 -128 2067 -128 
C 2861 -128 3552 544 3552 1465 
L 3552 4416 
z
" id="CMSS17-55" transform="scale(0.015625)"/>
       <path d="M 4147 2048 
C 4243 2048 4339 2048 4339 2156 
C 4339 2272 4230 2272 4122 2272 
L 550 2272 
C 442 2272 333 2272 333 2156 
C 333 2048 429 2048 525 2048 
L 4147 2048 
z
M 4122 927 
C 4230 927 4339 927 4339 1043 
C 4339 1152 4243 1152 4147 1152 
L 525 1152 
C 429 1152 333 1152 333 1043 
C 333 927 442 927 550 927 
L 4122 927 
z
" id="CMSS17-3d" transform="scale(0.015625)"/>
       <path d="M 2758 2073 
C 2758 2439 2752 3120 2490 3647 
C 2227 4153 1805 4288 1504 4288 
C 1069 4288 698 4031 506 3621 
C 301 3191 243 2748 243 2073 
C 243 1611 262 1046 493 551 
C 755 6 1197 -128 1498 -128 
C 1894 -128 2278 83 2496 525 
C 2720 988 2758 1495 2758 2073 
z
M 1498 262 
C 1011 262 864 821 819 1007 
C 742 1328 730 1636 730 2144 
C 730 2542 730 2992 851 3345 
C 998 3756 1254 3897 1498 3897 
C 1971 3897 2125 3422 2176 3255 
C 2272 2915 2272 2516 2272 2144 
C 2272 1546 2272 262 1498 262 
z
" id="CMSS17-30" transform="scale(0.015625)"/>
       <path d="M 1088 512 
L 576 512 
L 576 0 
L 1088 0 
L 1088 512 
z
" id="CMSS17-2e" transform="scale(0.015625)"/>
       <path d="M 1933 2246 
C 2419 2406 2669 2793 2669 3174 
C 2669 3774 2157 4288 1504 4288 
C 826 4288 333 3755 333 3174 
C 333 2799 576 2412 1069 2246 
C 442 2003 250 1516 250 1152 
C 250 448 819 -128 1498 -128 
C 2202 -128 2752 460 2752 1152 
C 2752 1574 2502 2022 1933 2246 
z
M 1504 2438 
C 1075 2438 787 2728 787 3167 
C 787 3613 1075 3897 1504 3897 
C 1901 3897 2214 3639 2214 3167 
C 2214 2703 1907 2438 1504 2438 
z
M 1504 268 
C 1139 268 749 518 749 1158 
C 749 1817 1184 2048 1498 2048 
C 1843 2048 2253 1804 2253 1158 
C 2253 492 1830 268 1504 268 
z
" id="CMSS17-38" transform="scale(0.015625)"/>
       <path d="M 435 172 
C 614 19 845 -128 1235 -128 
C 2010 -128 2752 738 2752 2136 
C 2752 3987 1952 4288 1523 4288 
C 1094 4288 819 4095 582 3789 
C 301 3438 250 3125 250 2761 
C 250 2327 326 2059 506 1753 
C 749 1356 973 1273 1222 1273 
C 1600 1273 1978 1459 2234 1778 
C 2189 908 1798 268 1235 268 
C 1005 268 819 340 634 516 
L 435 172 
z
M 2214 2774 
C 2221 2729 2221 2646 2221 2621 
C 2221 2085 1914 1664 1466 1664 
C 1171 1664 1018 1817 902 2015 
C 762 2263 755 2506 755 2761 
C 755 3010 755 3284 934 3559 
C 1069 3757 1235 3897 1523 3897 
C 2112 3897 2208 3036 2214 2774 
z
" id="CMSS17-39" transform="scale(0.015625)"/>
       <path d="M 723 -1600 
C 1069 -1248 1862 -428 1862 1596 
C 1862 3627 1069 4440 723 4800 
L 333 4800 
C 1120 3979 1376 2833 1376 1603 
C 1376 379 1133 -774 333 -1600 
L 723 -1600 
z
" id="CMSS17-29" transform="scale(0.015625)"/>
      </defs>
      <use transform="scale(0.996264)" xlink:href="#CMSS17-4d"/>
      <use transform="translate(81.67603 0)scale(0.996264)" xlink:href="#CMSS17-6f"/>
      <use transform="translate(131.122092 0)scale(0.996264)" xlink:href="#CMSS17-64"/>
      <use transform="translate(179.327035 0)scale(0.996264)" xlink:href="#CMSS17-65"/>
      <use transform="translate(220.965857 0)scale(0.996264)" xlink:href="#CMSS17-6c"/>
      <use transform="translate(274.375693 0)scale(0.996264)" xlink:href="#CMSS17-28"/>
      <use transform="translate(310.809607 0)scale(0.996264)" xlink:href="#CMSS17-41"/>
      <use transform="translate(370.425008 0)scale(0.996264)" xlink:href="#CMSS17-55"/>
      <use transform="translate(434.564749 0)scale(0.996264)" xlink:href="#CMSS17-43"/>
      <use transform="translate(525.649633 0)scale(0.996264)" xlink:href="#CMSS17-3d"/>
      <use transform="translate(629.746681 0)scale(0.996264)" xlink:href="#CMSS17-30"/>
      <use transform="translate(676.590304 0)scale(0.996264)" xlink:href="#CMSS17-2e"/>
      <use transform="translate(702.614509 0)scale(0.996264)" xlink:href="#CMSS17-38"/>
      <use transform="translate(749.458132 0)scale(0.996264)" xlink:href="#CMSS17-39"/>
      <use transform="translate(796.301756 0)scale(0.996264)" xlink:href="#CMSS17-29"/>
     </g>
    </g>
    <g id="line2d_23">
     <path d="M 272.668899 386.141285 
L 294.668899 386.141285 
" style="fill:none;stroke:#000080;stroke-dasharray:7.4,3.2;stroke-dashoffset:0;stroke-width:2;"/>
    </g>
    <g id="line2d_24"/>
    <g id="text_19">
     <!-- Baseline -->
     <g style="fill:#262626;" transform="translate(303.468899 389.991285)scale(0.11 -0.11)">
      <defs>
       <path d="M 570 4416 
L 570 0 
L 2163 0 
C 3034 0 3667 575 3667 1200 
C 3667 1684 3251 2175 2502 2316 
C 3334 2559 3501 3039 3501 3311 
C 3501 3880 2874 4416 1997 4416 
L 570 4416 
z
M 1088 2496 
L 1088 4057 
L 1824 4057 
C 2483 4057 3002 3722 3002 3305 
C 3002 2925 2592 2496 1766 2496 
L 1088 2496 
z
M 1088 358 
L 1088 2105 
L 1939 2105 
C 2630 2105 3162 1678 3162 1206 
C 3162 772 2694 358 1984 358 
L 1088 358 
z
" id="CMSS17-42" transform="scale(0.015625)"/>
      </defs>
      <use transform="scale(0.996264)" xlink:href="#CMSS17-42"/>
      <use transform="translate(62.33804 0)scale(0.996264)" xlink:href="#CMSS17-61"/>
      <use transform="translate(107.259961 0)scale(0.996264)" xlink:href="#CMSS17-73"/>
      <use transform="translate(143.173503 0)scale(0.996264)" xlink:href="#CMSS17-65"/>
      <use transform="translate(184.812325 0)scale(0.996264)" xlink:href="#CMSS17-6c"/>
      <use transform="translate(206.993048 0)scale(0.996264)" xlink:href="#CMSS17-69"/>
      <use transform="translate(229.173771 0)scale(0.996264)" xlink:href="#CMSS17-6e"/>
      <use transform="translate(277.378714 0)scale(0.996264)" xlink:href="#CMSS17-65"/>
     </g>
    </g>
   </g>
  </g>
 </g>
 <defs>
  <clipPath id="p87188c7762">
   <rect height="380.52" width="380.52" x="30.39863" y="21.50218"/>
  </clipPath>
 </defs>
</svg>
