<?xml version="1.0" encoding="UTF-8" standalone="no"?>
<svg
   width="147.119995pt"
   height="135.119995pt"
   viewBox="0 0 147.119995 135.119995"
   version="1.1"
   id="svg78"
   xmlns="http://www.w3.org/2000/svg"
   xmlns:svg="http://www.w3.org/2000/svg">
  <defs
     id="defs14">
    <clipPath
       id="clip-0">
      <path
         clip-rule="nonzero"
         d="M 0 63 L 65 63 L 65 133.570313 L 0 133.570313 Z M 0 63 "
         id="path2" />
    </clipPath>
    <clipPath
       id="clip-1">
      <path
         clip-rule="nonzero"
         d="M 0 97 L 36 97 L 36 133.570313 L 0 133.570313 Z M 0 97 "
         id="path5" />
    </clipPath>
    <clipPath
       id="clip-2">
      <path
         clip-rule="nonzero"
         d="M 21 63 L 147 63 L 147 106 L 21 106 Z M 21 63 "
         id="path8" />
    </clipPath>
    <clipPath
       id="clip-3">
      <path
         clip-rule="nonzero"
         d="M 110 60 L 147 60 L 147 109 L 110 109 Z M 110 60 "
         id="path11" />
    </clipPath>
  </defs>
  <path
     fill="none"
     stroke-width="2"
     stroke-linecap="butt"
     stroke-linejoin="miter"
     stroke="rgb(0%, 0%, 0%)"
     stroke-opacity="1"
     stroke-miterlimit="10"
     d="M 57.709616 113.361913 L 57.981831 16.238682 "
     transform="matrix(0.746193, 0, 0, 0.746193, 0, 0)"
     id="path16" />
  <path
     fill-rule="nonzero"
     fill="rgb(0%, 0%, 0%)"
     fill-opacity="1"
     stroke-width="2"
     stroke-linecap="butt"
     stroke-linejoin="miter"
     stroke="rgb(0%, 0%, 0%)"
     stroke-opacity="1"
     stroke-miterlimit="10"
     d="M 57.992301 10.239478 L 61.97083 18.248886 L 57.981831 16.238682 L 53.971892 18.217477 Z M 57.992301 10.239478 "
     transform="matrix(0.746193, 0, 0, 0.746193, 0, 0)"
     id="path18" />
  <g
     clip-path="url(#clip-0)"
     id="g22">
    <path
       fill="none"
       stroke-width="2"
       stroke-linecap="butt"
       stroke-linejoin="miter"
       stroke="#000000"
       stroke-opacity="1"
       stroke-miterlimit="10"
       d="M 57.709616,113.36191 14.422169,162.80038"
       transform="scale(0.746193)"
       id="path20" />
  </g>
  <path
     fill-rule="nonzero"
     fill="rgb(0%, 0%, 0%)"
     fill-opacity="1"
     d="M 7.8125 124.851563 L 9.5 118.390625 L 10.761719 121.480469 L 13.992188 122.324219 Z M 7.8125 124.851563 "
     id="path24" />
  <g
     clip-path="url(#clip-1)"
     id="g28">
    <path
       fill="none"
       stroke-width="2"
       stroke-linecap="butt"
       stroke-linejoin="miter"
       stroke="#000000"
       stroke-opacity="1"
       stroke-miterlimit="10"
       d="m 10.469814,167.3181 2.26148,-8.65854 1.690875,4.14082 4.329268,1.13074 z m 0,0"
       transform="scale(0.746193)"
       id="path26" />
  </g>
  <g
     clip-path="url(#clip-2)"
     id="g32">
    <path
       fill="none"
       stroke-width="2"
       stroke-linecap="butt"
       stroke-linejoin="miter"
       stroke="#000000"
       stroke-opacity="1"
       stroke-miterlimit="10"
       d="M 57.709616,113.36191 177.76174,113.02165"
       transform="scale(0.746193)"
       id="path30" />
  </g>
  <path
     fill-rule="nonzero"
     fill="rgb(0%, 0%, 0%)"
     fill-opacity="1"
     d="M 137.121094 84.328125 L 131.164063 87.328125 L 132.644531 84.335938 L 131.144531 81.355469 Z M 137.121094 84.328125 "
     id="path34" />
  <g
     clip-path="url(#clip-3)"
     id="g38">
    <path
       fill="none"
       stroke-width="2"
       stroke-linecap="butt"
       stroke-linejoin="miter"
       stroke="#000000"
       stroke-opacity="1"
       stroke-miterlimit="10"
       d="m 183.76094,113.01117 -7.98323,4.02041 1.98403,-4.00993 -2.0102,-3.99424 z m 0,0"
       transform="scale(0.746193)"
       id="path36" />
  </g>
  <path
     fill-rule="nonzero"
     fill="rgb(100%, 90.19928%, 79.998779%)"
     fill-opacity="1"
     stroke-width="1"
     stroke-linecap="butt"
     stroke-linejoin="miter"
     stroke="rgb(84.309387%, 60.778809%, 0%)"
     stroke-opacity="1"
     stroke-miterlimit="10"
     d="M 66.177887 10.501194 C 66.179996 22.422659 78.821431 32.072603 94.410877 32.072541 C 110.007474 32.070563 122.651083 22.420874 122.648973 10.499409 L 122.650259 133.287162 C 122.65139 139.012193 119.669308 144.501874 114.381421 148.551493 C 109.082551 152.588726 101.900726 154.861822 94.412163 154.860294 C 86.920982 154.8633 79.739916 152.591182 74.449739 148.551602 C 69.148578 144.499636 66.182921 139.009444 66.179173 133.288947 Z M 66.177887 10.501194 "
     transform="matrix(-0.373096, -0.646222, 0.646222, -0.373096, 52.615567, 153.925746)"
     id="path40" />
  <path
     fill="none"
     stroke-width="1"
     stroke-linecap="butt"
     stroke-linejoin="miter"
     stroke="rgb(84.309387%, 60.778809%, 0%)"
     stroke-opacity="1"
     stroke-miterlimit="10"
     d="M 72.998096 63.020363 C 101.664447 63.004658 115.997623 76.337967 115.997623 103.020288 "
     transform="matrix(0.746193, 0, 0, 0.746193, 0.373096, 0.373096)"
     id="path42" />
  <path
     fill-rule="nonzero"
     fill="rgb(85.488892%, 90.979004%, 98.81897%)"
     fill-opacity="0.502"
     stroke-width="1"
     stroke-linecap="butt"
     stroke-linejoin="miter"
     stroke="rgb(42.349243%, 55.688477%, 74.899292%)"
     stroke-opacity="0.502"
     stroke-miterlimit="10"
     d="M 49.530096 108.506606 L 69.530049 38.127353 L 163.592385 38.131054 L 143.592432 108.510307 Z M 49.530096 108.506606 "
     transform="matrix(0.527638, 0.527638, -0.527638, 0.527638, 62.348714, -39.827569)"
     id="path44" />
  <path
     fill-rule="nonzero"
     fill="rgb(0%, 0%, 0%)"
     fill-opacity="1"
     stroke-width="10.220773"
     stroke-linecap="butt"
     stroke-linejoin="miter"
     stroke="rgb(0%, 0%, 0%)"
     stroke-opacity="0.1333"
     stroke-miterlimit="4"
     d="M 51.866106 289.076476 C 56.52401 317.147938 74.822919 349.173127 106.097419 385.942788 C 137.371918 422.712449 175.965981 441.294966 221.879608 442.085712 C 245.169129 442.085712 266.795112 436.155121 286.092144 423.898568 C 305.389176 412.037386 319.695595 397.013224 329.011404 378.826079 C 356.958829 421.130959 390.56228 442.085712 430.154466 442.085712 C 454.774816 442.085712 476.068093 434.57363 494.034294 419.94484 C 512.000496 405.316051 521.316305 385.547415 521.981719 361.034308 C 521.981719 341.661045 517.323815 325.846137 508.008007 313.984956 C 498.692199 302.123775 489.709098 294.611694 481.058704 291.844085 C 472.408311 289.471849 464.75604 287.890358 458.101891 287.890358 C 445.459008 287.890358 435.145077 291.844085 427.160099 298.960794 C 418.842413 306.472875 414.849924 315.96182 414.849924 327.823001 C 414.849924 358.662072 431.818003 379.616825 465.088747 391.082633 C 457.769183 399.780833 444.460886 404.129932 425.163854 404.129932 C 416.180753 404.129932 409.859312 403.339187 405.866823 402.153069 C 380.581057 391.478006 361.94944 369.337135 349.971973 336.125828 C 310.04708 188.65181 290.084633 102.855933 290.084633 77.947453 C 290.084633 59.364936 295.407952 45.922264 306.05459 38.01481 C 316.701229 30.107356 328.345989 26.153629 340.988872 26.153629 C 365.609222 26.153629 389.896865 36.828692 413.851801 58.969563 C 438.139444 81.110435 454.442109 107.995778 463.092502 140.020967 C 465.088747 146.742303 467.084992 150.300658 469.081236 151.091403 C 471.077481 151.486776 476.4008 152.277521 485.051194 153.068266 L 489.043683 153.068266 C 499.024906 153.068266 504.015518 150.300658 504.015518 145.160812 C 504.015518 144.370067 503.350103 140.811713 502.019273 134.090377 C 491.372635 96.134597 470.744774 62.527918 440.135689 32.874965 C 409.193897 3.617385 373.594201 -11.011405 333.003893 -11.011405 C 286.424851 -11.011405 251.157863 9.943348 226.87022 51.852855 C 199.588209 10.734094 168.31371 -9.825287 133.046721 -9.825287 L 127.057987 -9.825287 C 94.452658 -9.825287 71.163137 -1.52246 56.856717 15.873939 C 42.883005 33.270338 35.563441 51.852855 34.898026 70.830744 C 34.898026 92.18087 41.219468 109.577269 53.86235 123.019941 C 66.505233 136.462613 81.809775 143.183949 99.110562 143.183949 C 127.723402 143.183949 142.029822 128.950532 142.029822 100.87907 C 142.029822 87.831771 138.037333 75.97059 130.052354 66.086272 C 122.067376 55.806582 114.415105 49.480618 107.095541 45.922264 C 99.775977 42.759283 95.45078 41.177792 94.119951 41.177792 L 91.125584 39.991674 C 91.125584 39.200928 93.121828 38.01481 97.114318 36.037947 C 101.106807 34.061083 106.430126 31.688847 113.084275 28.921238 C 119.738424 26.153629 126.059865 25.362884 132.048599 26.153629 C 156.003535 26.153629 176.631396 41.177792 193.932183 70.830744 C 199.920917 81.505807 207.573188 104.437424 216.888996 138.834849 C 226.204805 173.627647 235.520613 209.606563 244.836421 247.16697 C 254.484937 284.332004 259.808256 306.472875 261.139086 313.194211 C 264.46616 330.985982 266.129698 344.033282 266.129698 351.940736 C 266.129698 370.523253 261.139086 383.965925 251.157863 391.873379 C 240.843932 400.176205 229.531879 404.129932 216.888996 404.129932 C 190.272401 404.129932 165.319343 393.454869 142.029822 372.104744 C 118.740301 350.754618 102.437637 323.473901 93.121828 289.867221 C 91.790999 283.936631 90.127461 280.773649 88.131217 279.982904 C 86.134972 279.192158 80.811653 278.796786 72.16126 278.00604 L 57.85484 278.00604 C 53.86235 281.959767 51.866106 285.518122 51.866106 289.076476 Z M 51.866106 289.076476 "
     transform="matrix(0.0117408, 0, 0, -0.00987992, 120.883238, 93.164646)"
     id="path46" />
  <path
     fill-rule="nonzero"
     fill="rgb(0%, 0%, 0%)"
     fill-opacity="1"
     stroke-width="11.257143"
     stroke-linecap="butt"
     stroke-linejoin="miter"
     stroke="rgb(0%, 0%, 0%)"
     stroke-opacity="0.1333"
     stroke-miterlimit="4"
     d="M 21.123616 287.041277 C 21.123616 296.460879 25.887381 312.285809 36.147797 334.892852 C 46.041771 357.499895 62.165283 381.23729 84.15189 406.105037 C 106.138498 430.596 130.690209 442.65309 158.173468 441.899522 C 185.290284 441.899522 207.276892 434.363841 224.133291 418.915695 C 240.623246 403.844333 249.417889 382.367642 250.150776 354.862406 C 248.685002 342.428533 247.585672 335.269636 246.852785 334.139284 C 246.852785 331.878579 241.722576 316.807217 231.095716 288.171629 C 220.468856 259.159258 209.475552 227.132613 198.115805 190.961345 C 186.756058 155.16686 181.259406 126.154488 181.992293 105.054581 C 181.992293 76.418993 186.756058 56.449439 195.917144 45.145917 C 205.444674 33.842396 219.369526 27.813851 238.058142 27.060283 C 253.448767 27.060283 267.740062 30.828123 280.932026 37.98702 C 294.490434 45.145917 304.750851 53.058382 312.07972 60.970847 C 319.408589 68.883312 328.203232 80.186834 338.830092 94.127844 C 338.830092 94.504628 340.66231 101.286741 343.960301 114.097398 C 347.258292 126.531272 352.022057 146.500827 357.885152 172.87571 C 364.114691 199.627378 370.34423 224.495125 376.940212 247.102168 C 402.22481 346.949941 416.516105 399.322924 419.081209 403.844333 C 427.509409 421.929967 442.167147 430.972784 461.955094 430.972784 C 470.749737 430.972784 477.712162 428.71208 482.842371 423.813887 C 488.339023 419.292479 492.003457 415.147854 493.835675 412.133582 C 496.034335 408.742525 496.767222 405.728253 496.034335 403.090765 C 496.034335 394.424732 479.54438 324.342898 446.930912 192.845265 C 414.317444 61.724415 395.628828 -10.241338 390.865063 -23.051996 C 372.176447 -78.439251 339.929423 -122.146201 294.123991 -154.926413 C 247.952115 -187.706626 202.146683 -204.285124 155.974808 -205.038692 C 125.926444 -205.038692 99.542515 -197.503011 76.823021 -183.185217 C 54.46997 -168.490639 43.110223 -146.26038 43.110223 -116.871224 C 43.110223 -102.176646 45.308884 -90.119557 50.072649 -79.946388 C 54.836414 -70.150002 61.065952 -62.614321 69.127708 -58.092913 C 76.823021 -53.19472 83.785447 -50.180448 88.915655 -47.919743 C 94.412307 -46.035823 99.908959 -44.905471 106.138498 -44.905471 C 135.453974 -44.905471 150.111712 -58.846481 150.111712 -87.105284 C 150.111712 -100.292726 146.080834 -111.973032 138.019078 -122.146201 C 129.957322 -131.942586 122.26201 -138.724699 114.93314 -142.115756 C 107.604271 -145.506812 103.20695 -147.013948 102.10762 -147.013948 L 99.176072 -148.144301 C 100.275402 -151.158573 106.504941 -155.303198 117.864688 -159.824606 C 129.224435 -164.722799 140.584182 -166.983503 151.94393 -166.983503 L 160.005686 -166.983503 C 171.365433 -166.983503 180.160076 -166.229935 186.023171 -165.099583 C 208.009778 -159.071038 228.164169 -146.26038 246.852785 -127.044394 C 265.541401 -107.828407 279.832696 -87.105284 290.093113 -64.875026 C 299.987086 -43.021551 307.682399 -24.182348 313.17905 -9.110986 C 318.309259 6.33716 320.874363 16.510329 320.874363 21.031738 L 315.011268 16.887113 C 310.98039 14.249625 304.750851 10.481785 295.956208 5.960376 C 287.161565 1.438967 278.733366 -2.705657 269.938723 -6.096714 C 256.746758 -9.48777 243.554794 -10.994906 231.095716 -10.994906 C 200.314466 -10.994906 173.19765 -3.836009 150.111712 10.858569 C 126.659331 25.553147 111.268706 49.290542 103.939837 82.070754 C 103.20695 86.592163 102.840506 97.142116 102.840506 112.967046 C 102.840506 151.022235 114.566697 200.75773 138.019078 262.17353 C 161.471459 323.212546 172.831207 362.398087 172.831207 378.976586 C 172.831207 379.730154 172.831207 380.483722 172.831207 380.860506 C 172.831207 386.889051 172.831207 391.033675 172.831207 392.917595 C 172.831207 395.1783 171.731876 397.439004 169.166772 400.076492 C 166.235224 402.713981 162.57079 403.844333 158.173468 403.844333 L 154.14259 403.844333 C 138.751965 403.844333 124.827114 397.815788 112.001593 385.00513 C 99.176072 372.194473 89.282099 358.630247 81.953229 343.935669 C 74.62436 329.241091 69.127708 315.300081 65.09683 302.112639 C 61.065952 288.548413 58.500848 281.389517 57.035074 279.88238 C 55.569301 278.752028 50.439092 277.99846 40.911562 277.99846 L 26.986711 277.99846 C 22.955833 282.143085 21.123616 285.157357 21.123616 287.041277 Z M 21.123616 287.041277 "
     transform="matrix(0.0106599, 0, 0, -0.0103673, 10.446699, 113.530543)"
     id="path48" />
  <path
     fill-rule="nonzero"
     fill="rgb(0%, 0%, 0%)"
     fill-opacity="1"
     stroke-width="10.682801"
     stroke-linecap="butt"
     stroke-linejoin="miter"
     stroke="rgb(0%, 0%, 0%)"
     stroke-opacity="0.1333"
     stroke-miterlimit="4"
     d="M 346.994021 338.114873 C 340.38682 338.114873 322.651702 341.678868 294.136414 348.806857 C 265.273379 356.330846 244.408534 359.894841 230.846385 359.894841 C 217.631983 359.894841 206.504066 358.706843 197.114885 355.934847 C 187.725705 353.162851 180.075262 349.994856 174.163556 346.034861 C 167.904102 342.074867 164.078881 338.510872 161.992396 334.946877 C 159.905912 331.778882 157.819427 327.818887 155.037448 323.858893 L 152.950964 319.898899 C 150.864479 317.918902 145.996015 317.126903 137.997825 317.126903 C 124.087928 317.126903 117.13298 319.502899 117.13298 325.046891 C 117.13298 328.214887 117.828475 332.96688 119.914959 338.906871 C 128.608645 365.042834 142.866289 387.218802 163.035639 405.830775 C 182.857241 424.838748 205.113076 435.926732 229.107648 439.886727 C 237.105838 441.470724 242.669797 441.866724 246.147271 441.866724 C 262.839147 441.866724 277.792286 436.322732 291.006687 424.838748 C 304.221089 413.750764 317.087744 402.66278 328.911156 391.970795 C 341.082315 381.278811 353.601222 375.734819 367.163371 374.94282 C 381.768763 374.94282 396.374154 386.030804 410.979546 407.810773 C 425.584937 429.986741 433.23538 441.074725 433.930875 441.074725 C 434.62637 441.470724 439.494834 441.866724 448.884014 441.866724 L 462.098416 441.866724 C 465.923637 437.906729 468.010122 435.530733 468.010122 433.946735 C 468.010122 431.174739 466.271385 426.818745 463.141658 420.086755 C 459.664184 413.354765 455.143467 406.226775 448.884014 399.098785 C 442.972308 391.574796 437.408349 384.446806 431.84439 376.922817 C 426.628179 369.794827 422.107463 363.458836 417.934494 357.914844 L 410.979546 348.806857 C 382.464258 315.146906 336.909346 270.00297 275.010306 214.16705 C 213.111266 157.935131 174.511303 121.899183 159.905912 106.059206 L 148.0825 94.179223 L 163.035639 92.991224 C 177.64103 92.991224 198.853622 89.427229 227.021163 81.90324 C 254.840956 74.77525 276.053549 70.815256 289.963445 70.815256 C 315.349006 70.815256 338.648083 77.151247 359.860676 89.823229 C 381.421015 102.495211 395.330912 119.523186 401.938113 140.115157 C 404.720092 146.055148 407.154324 149.619143 408.893061 150.807141 C 410.979546 152.391139 415.848009 153.183138 423.8462 153.183138 C 436.712854 153.183138 442.972308 149.619143 442.972308 142.887153 C 442.972308 139.719157 442.62456 136.551162 441.929066 134.175165 C 430.801148 92.595225 408.545314 58.143274 375.857057 30.819314 C 343.1688 3.495353 310.82829 -10.364627 278.140033 -11.156626 C 260.752662 -11.156626 245.451776 -5.216635 231.889627 5.871349 C 218.675225 17.355333 205.808571 28.839316 192.941916 39.9273 C 180.423009 51.411284 167.556355 56.955276 155.037448 56.955276 C 125.826665 56.955276 99.397862 37.155304 76.098785 -2.840638 C 71.925816 -8.38463 66.361857 -11.156626 59.059162 -11.156626 L 40.976296 -11.156626 C 37.151074 -7.196632 35.06459 -4.028637 35.06459 -2.048639 C 35.06459 7.851346 54.190698 36.759305 93.138408 83.883237 C 118.871717 113.979194 163.035639 157.143132 224.934679 214.16705 C 286.833718 270.794969 325.433681 306.830918 340.039073 321.878896 C 348.037263 332.570881 350.471495 338.114873 346.994021 338.114873 Z M 346.994021 338.114873 "
     transform="matrix(0.011233, 0, 0, -0.00986428, 34.324869, 20.780573)"
     id="path50" />
  <path
     fill="none"
     stroke-width="1"
     stroke-linecap="butt"
     stroke-linejoin="miter"
     stroke="rgb(42.349243%, 55.688477%, 74.899292%)"
     stroke-opacity="1"
     stroke-miterlimit="10"
     d="M 138.800878 109.139895 C 138.800878 109.139895 117.578565 85.896907 75.139173 39.410932 "
     transform="matrix(0.746193, 0, 0, 0.746193, 0.373096, 0.373096)"
     id="path52" />
  <path
     fill="none"
     stroke-width="1"
     stroke-linecap="butt"
     stroke-linejoin="miter"
     stroke="rgb(42.349243%, 55.688477%, 74.899292%)"
     stroke-opacity="1"
     stroke-miterlimit="10"
     d="M 73.521587 88.938388 C 73.521587 88.938388 95.654774 78.369111 139.921148 57.220086 "
     transform="matrix(0.746193, 0, 0, 0.746193, 0.373096, 0.373096)"
     id="path54" />
  <path
     fill-rule="nonzero"
     fill="rgb(0%, 0%, 0%)"
     fill-opacity="1"
     d="M 82.125 55.082031 C 82.125 55.378906 82.070313 55.667969 81.957031 55.941406 C 81.84375 56.214844 81.679688 56.457031 81.46875 56.667969 C 81.261719 56.875 81.019531 57.039063 80.742188 57.152344 C 80.46875 57.265625 80.183594 57.324219 79.886719 57.324219 C 79.589844 57.324219 79.304688 57.265625 79.03125 57.152344 C 78.757813 57.039063 78.515625 56.875 78.304688 56.667969 C 78.09375 56.457031 77.933594 56.214844 77.820313 55.941406 C 77.707031 55.667969 77.648438 55.378906 77.648438 55.082031 C 77.648438 54.785156 77.707031 54.5 77.820313 54.226563 C 77.933594 53.953125 78.09375 53.710938 78.304688 53.5 C 78.515625 53.292969 78.757813 53.128906 79.03125 53.015625 C 79.304688 52.902344 79.589844 52.84375 79.886719 52.84375 C 80.183594 52.84375 80.46875 52.902344 80.742188 53.015625 C 81.019531 53.128906 81.261719 53.292969 81.46875 53.5 C 81.679688 53.710938 81.84375 53.953125 81.957031 54.226563 C 82.070313 54.5 82.125 54.785156 82.125 55.082031 Z M 82.125 55.082031 "
     id="path56" />
  <path
     fill-rule="nonzero"
     fill="rgb(0%, 0%, 0%)"
     fill-opacity="1"
     stroke-width="11.435829"
     stroke-linecap="butt"
     stroke-linejoin="miter"
     stroke="rgb(0%, 0%, 0%)"
     stroke-opacity="0.1255"
     stroke-miterlimit="4"
     d="M 34.058247 156.076502 C 34.058247 232.017556 62.722273 298.861505 120.050324 355.817296 C 177.378375 413.168613 240.290327 442.042035 309.15844 442.042035 C 355.690949 442.042035 392.916956 428.59414 420.836462 402.093876 C 449.128227 375.198086 468.113491 342.764927 478.164513 304.003348 C 481.887113 284.622558 484.492934 262.473083 484.865194 237.159399 L 484.865194 207.890451 C 517.62408 257.331241 542.565505 312.704927 560.061729 374.011507 C 562.667549 383.504139 564.528849 388.645981 566.01789 389.83256 C 567.50693 391.414665 572.718571 392.205718 582.025073 392.996771 C 596.170956 392.996771 602.871637 390.228086 602.871637 385.086244 C 602.871637 379.153349 599.893556 366.10098 593.937395 345.929138 C 587.981234 326.152822 576.068912 297.674926 557.828168 260.890978 C 539.959685 224.502556 519.485381 190.882819 497.149776 160.822818 L 485.981974 146.979397 L 487.098755 122.852291 C 488.215535 85.672816 490.821355 60.359131 494.916216 46.911236 C 499.011077 33.858868 505.339498 26.739394 513.90148 25.948341 C 523.207981 27.530447 532.142223 31.090183 539.959685 37.023078 C 548.149406 42.955973 553.733307 50.470973 557.083648 59.963605 C 558.200428 64.709921 560.061729 67.478605 561.923029 67.874132 C 564.156589 68.665184 568.99597 69.456237 577.185692 69.851763 C 590.214794 69.851763 596.915476 67.478605 596.915476 61.941237 C 596.915476 57.985974 595.054175 51.657552 590.959315 42.955973 C 583.141853 27.13492 571.229531 14.478078 555.966868 4.985446 C 540.704205 -4.507186 526.186062 -9.253502 512.040179 -10.044554 L 504.967238 -10.044554 C 460.296029 -10.044554 430.142964 14.082552 414.13578 61.941237 L 411.1577 69.060711 L 399.989898 61.150184 C 393.289216 55.612816 383.238194 48.888868 369.836832 40.978342 C 356.807729 33.067815 341.545066 25.157289 325.165623 18.037815 C 308.41392 10.522815 289.056396 4.194393 267.093052 -2.134028 C 245.129708 -8.066923 223.538624 -10.835607 203.06432 -10.835607 C 150.203389 -10.835607 108.882521 5.776499 79.101716 39.00071 C 48.94865 72.224921 34.058247 111.382027 34.058247 156.076502 Z M 207.903701 25.948341 C 240.662587 25.948341 273.421473 33.067815 306.18036 46.911236 C 338.566986 61.150184 363.136151 75.389132 379.143334 90.023606 L 402.967978 112.17308 C 401.851198 207.494924 399.245378 266.823873 395.895037 290.159926 C 386.588535 366.496507 356.063209 404.86256 303.946799 404.86256 C 258.15881 404.86256 217.582462 380.735454 182.962276 332.085717 C 165.093792 305.189926 150.203389 269.197031 139.035587 224.10703 C 127.495525 178.621503 121.539364 143.815186 121.167104 120.083607 C 121.167104 87.254922 129.356825 63.523342 146.108529 48.888868 C 162.487972 34.254394 183.334536 26.739394 207.903701 25.948341 Z M 207.903701 25.948341 "
     transform="matrix(0.0104933, 0, 0, -0.00987608, 73.873084, 24.51408)"
     id="path58" />
  <path
     fill-rule="nonzero"
     fill="rgb(0%, 0%, 0%)"
     fill-opacity="1"
     stroke-width="22.315748"
     stroke-linecap="butt"
     stroke-linejoin="miter"
     stroke="rgb(0%, 0%, 0%)"
     stroke-opacity="0.0667"
     stroke-miterlimit="4"
     d="M 118.33461 -161.99599 C 119.061034 -161.99599 121.240306 -162.743833 124.146003 -164.239521 C 126.325275 -164.987365 130.683819 -166.483053 135.042364 -167.230897 C 139.400908 -167.97874 143.759453 -167.97874 146.665149 -167.97874 C 155.382238 -167.97874 163.372903 -163.491677 170.637144 -155.265395 C 178.627809 -146.291269 183.712778 -136.569298 187.344898 -126.099484 C 193.882715 -108.151232 204.779076 -57.297849 220.760406 27.208507 C 236.741736 110.967019 251.996642 190.986312 267.251548 267.266386 C 281.78003 342.798615 289.04427 381.686496 289.04427 381.686496 L 289.04427 384.677872 L 241.826705 384.677872 C 210.590469 384.677872 193.882715 385.425715 191.703443 386.921403 C 189.52417 389.164935 188.071322 392.15631 188.071322 396.643373 L 195.335563 425.06144 C 196.061987 428.052815 198.967684 430.296347 203.326228 430.296347 C 206.958349 430.296347 222.939678 430.296347 249.81737 431.044191 C 281.78003 431.044191 297.761359 431.044191 297.761359 431.792035 C 297.761359 433.287722 300.667056 449.740287 307.204873 481.897573 C 313.016265 514.054859 316.648386 533.4988 318.827658 540.229394 C 343.526077 650.162442 392.196491 704.755043 464.838899 704.755043 C 489.537318 704.0072 509.877193 696.528761 525.858523 683.067571 C 541.839853 669.606382 549.830518 651.658129 549.830518 629.970657 C 549.830518 606.039654 543.292701 588.839245 528.764219 578.369431 C 514.962161 567.151773 501.160104 561.916866 487.358046 561.169022 C 457.574659 561.169022 443.046177 574.630212 443.046177 603.048279 C 443.046177 615.761624 446.678297 626.979282 453.942538 635.953408 C 461.206779 645.675379 469.197444 652.405973 477.914533 656.893036 L 487.358046 662.127943 C 476.461685 665.867163 466.291748 668.110694 456.848234 668.110694 C 448.85757 668.110694 441.593329 664.371475 434.329088 657.64088 C 426.338423 651.658129 421.979878 641.936159 419.074182 629.970657 C 413.989213 610.526717 408.904245 584.352182 403.092852 552.194896 C 397.281459 519.289766 391.470067 491.619543 387.111522 469.184228 C 382.026554 446.001068 379.847281 434.035566 379.847281 433.287722 C 379.847281 431.792035 398.007883 431.044191 435.055512 431.044191 C 464.838899 431.044191 482.273078 430.296347 487.358046 430.296347 C 491.716591 429.548503 495.348711 427.304972 498.254407 424.313596 C 498.980832 421.322221 498.254407 415.33947 496.075135 407.113187 C 493.895863 398.139061 492.443015 392.904154 490.990167 390.660622 C 489.537318 387.669247 486.631622 386.173559 482.273078 386.173559 C 477.188109 386.173559 459.027507 385.425715 427.791271 384.677872 L 371.856616 384.677872 L 349.33747 262.779323 C 316.648386 97.50583 294.855663 -5.696623 281.78003 -46.828035 C 264.345851 -103.664169 240.373857 -145.543425 212.043317 -173.213647 C 187.344898 -194.153276 162.646479 -205.370933 138.674484 -205.370933 C 117.608186 -205.370933 97.994736 -198.640339 81.286982 -185.926993 C 63.852803 -173.213647 55.135714 -155.265395 55.135714 -132.082235 C 55.135714 -107.403388 61.673531 -89.455135 76.202013 -78.237477 C 90.004071 -67.019819 103.806128 -61.037069 118.33461 -61.037069 C 147.391573 -61.037069 161.920055 -75.246102 161.920055 -102.916325 C 161.920055 -115.62967 158.287935 -126.847328 151.023694 -135.821454 C 143.759453 -145.543425 135.768788 -152.274019 127.051699 -156.761083 Z M 118.33461 -161.99599 "
     transform="matrix(0.00537737, 0, 0, -0.00522335, 43.285546, 106.89212)"
     id="path60" />
  <path
     fill-rule="nonzero"
     fill="rgb(0%, 0%, 0%)"
     fill-opacity="1"
     stroke-width="22.315748"
     stroke-linecap="butt"
     stroke-linejoin="miter"
     stroke="rgb(0%, 0%, 0%)"
     stroke-opacity="0.0667"
     stroke-miterlimit="4"
     d="M 94.265946 250.065977 C 94.265946 295.684452 97.171642 339.80724 103.709459 380.938652 C 110.9737 422.070065 118.237941 457.96657 126.95503 487.880324 C 135.672119 517.794079 148.021328 546.959989 164.002658 576.1259 C 179.983988 604.543966 192.333197 626.979282 201.776711 642.684003 C 211.220224 659.136568 225.022281 676.336977 243.909308 695.033073 C 262.796334 713.72917 273.692695 724.946828 277.324816 728.686047 C 280.230512 733.17311 288.947601 739.903705 302.023235 750.373519 L 318.730989 750.373519 C 328.174502 750.373519 333.25947 746.6343 333.25947 740.651549 C 333.25947 739.155861 327.448078 731.677422 315.825292 719.711921 C 304.928931 707.746419 291.126873 690.54601 275.145543 667.36285 C 259.164213 643.431847 242.456459 615.01378 225.748705 581.360807 C 209.040951 546.959989 195.238894 501.341514 184.342533 443.009693 C 172.719747 384.677872 166.908354 320.3633 166.908354 250.065977 C 166.908354 179.02081 172.719747 115.454082 184.342533 57.870105 C 195.238894 1.033972 209.040951 -45.332348 225.022281 -81.228853 C 241.003611 -116.377514 256.984941 -144.795581 273.692695 -167.230897 C 290.400449 -188.918368 304.928931 -206.866621 315.825292 -220.327811 C 327.448078 -233.041156 333.25947 -240.519595 333.25947 -241.267439 C 333.25947 -247.25019 328.174502 -250.241565 318.004565 -250.241565 L 302.023235 -250.241565 L 273.692695 -226.310561 C 211.220224 -169.474428 165.455506 -98.429262 137.124967 -13.922905 C 108.068003 70.583451 94.265946 158.829026 94.265946 250.065977 Z M 94.265946 250.065977 "
     transform="matrix(0.00537737, 0, 0, -0.00522335, 46.243097, 106.89212)"
     id="path62" />
  <path
     fill-rule="nonzero"
     fill="rgb(0%, 0%, 0%)"
     fill-opacity="1"
     stroke-width="22.315748"
     stroke-linecap="butt"
     stroke-linejoin="miter"
     stroke="rgb(0%, 0%, 0%)"
     stroke-opacity="0.0667"
     stroke-miterlimit="4"
     d="M 51.769274 288.953858 C 56.854243 317.371924 75.014845 349.52921 106.251081 386.173559 C 137.487316 422.817908 175.987793 441.514005 221.752511 442.261849 C 244.998081 442.261849 266.790804 436.279098 285.67783 424.313596 C 305.291281 412.348094 319.819762 396.643373 329.263275 378.695121 C 356.867391 421.322221 391.009323 442.261849 430.236223 442.261849 C 454.934642 442.261849 476.000941 434.78341 494.161543 419.826533 C 512.322145 405.6175 521.039234 385.425715 521.765658 360.746868 C 521.765658 341.302928 517.407114 326.346051 507.963601 313.632705 C 498.520088 301.667203 489.802999 294.936608 481.08591 291.945233 C 472.368821 289.701701 464.378156 288.206014 457.840339 288.206014 C 445.491129 288.206014 435.321192 291.945233 427.330527 298.675828 C 419.339862 306.154266 414.981318 315.876237 414.981318 327.841738 C 414.981318 358.503337 431.689072 379.442965 465.10458 390.660622 C 457.840339 399.634749 444.038281 404.121812 425.151255 404.121812 C 416.434166 404.121812 409.896349 403.373968 406.264229 401.87828 C 380.839386 391.408466 361.952359 368.973151 350.329574 336.068021 C 309.649825 188.74278 290.036375 102.740737 290.036375 78.061889 C 290.036375 59.365793 295.121343 45.904603 306.017705 37.678321 C 316.914066 30.199882 328.536851 25.712819 340.886061 25.712819 C 365.58448 25.712819 390.282899 36.930477 414.254894 59.365793 C 438.226888 81.053265 454.208218 107.975644 462.925307 140.13293 C 465.10458 146.863524 467.283852 150.602744 468.7367 151.350587 C 470.915972 151.350587 476.000941 152.098431 484.71803 152.846275 L 489.076575 152.846275 C 499.246512 152.846275 504.33148 150.602744 504.33148 145.367837 C 504.33148 144.619993 503.605056 140.880773 502.152208 134.150179 C 491.255847 96.010142 470.915972 62.357168 439.679737 33.191258 C 409.169925 4.025347 373.575145 -10.93153 332.895396 -10.93153 C 286.404254 -10.93153 250.809474 10.008098 226.837479 51.887354 C 199.959788 10.755942 167.997128 -10.183686 133.128772 -10.183686 L 127.317379 -10.183686 C 94.628295 -10.183686 70.6563 -1.20956 56.854243 15.990849 C 43.052185 33.191258 35.787944 51.887354 35.06152 71.331295 C 35.06152 92.270923 41.599337 109.471331 53.948546 122.932521 C 67.02418 136.39371 81.552662 143.124305 98.98684 143.124305 C 127.317379 143.124305 141.845861 128.915272 141.845861 101.245049 C 141.845861 87.783859 138.213741 75.818358 130.223076 66.096388 C 122.232411 55.626574 114.241746 49.643823 106.977505 45.904603 C 99.713264 42.913228 95.354719 40.669696 93.901871 40.669696 L 90.996175 39.921852 C 90.996175 39.174009 93.175447 37.678321 96.807568 36.182633 C 101.166112 33.939102 106.251081 31.69557 112.788897 28.704195 C 119.326714 26.460663 125.864531 24.964975 131.675924 25.712819 C 155.647919 25.712819 176.714217 40.669696 194.148395 71.331295 C 199.959788 81.801109 207.950453 104.236424 216.667542 138.637242 C 226.111055 173.785903 235.554568 209.682409 244.998081 247.074601 C 254.441594 284.466794 259.526563 306.154266 260.979411 312.884861 C 264.611532 330.833114 266.06438 344.294303 266.06438 351.772742 C 266.06438 370.468838 260.979411 383.930028 250.809474 392.15631 C 240.639537 399.634749 229.743175 404.121812 216.667542 404.121812 C 190.516275 404.121812 165.091432 393.651998 141.845861 371.964526 C 118.60029 351.024898 102.61896 323.354675 93.175447 289.701701 C 91.722599 283.718951 90.269751 280.727575 88.090479 279.979731 C 85.911206 279.231887 80.826238 278.484044 72.109149 277.7362 L 58.307091 277.7362 C 53.948546 282.223263 51.769274 285.962482 51.769274 288.953858 Z M 51.769274 288.953858 "
     transform="matrix(0.00537737, 0, 0, -0.00522335, 48.334899, 106.89212)"
     id="path64" />
  <path
     fill-rule="nonzero"
     fill="rgb(0%, 0%, 0%)"
     fill-opacity="1"
     stroke-width="22.315748"
     stroke-linecap="butt"
     stroke-linejoin="miter"
     stroke="rgb(0%, 0%, 0%)"
     stroke-opacity="0.0667"
     stroke-miterlimit="4"
     d="M 78.343263 34.686945 C 78.343263 34.686945 78.343263 43.661072 78.343263 60.113637 C 78.343263 76.566202 83.428231 90.775235 94.324593 102.740737 C 104.49453 114.706238 119.023011 120.688989 137.183614 120.688989 C 155.344216 120.688989 172.05197 112.462707 187.306876 96.010142 C 201.835357 79.557577 209.099598 49.643823 209.826022 7.764567 C 209.826022 -15.418593 206.920326 -37.853909 201.108933 -60.289225 C 195.297541 -81.976697 188.0333 -100.672793 180.042635 -117.125358 C 172.05197 -132.830079 163.334881 -147.039112 153.891368 -158.25677 C 144.447855 -169.474428 136.45719 -178.448554 129.919373 -185.179149 C 123.381556 -191.909744 119.023011 -194.901119 116.843739 -194.153276 C 114.664467 -194.153276 110.305922 -191.1619 103.768106 -185.179149 C 97.956713 -179.196398 95.051017 -174.709335 95.051017 -171.71796 C 95.051017 -169.474428 98.683137 -164.239521 105.947378 -156.013239 C 113.211619 -147.786956 121.928708 -138.064986 130.645797 -126.099484 C 140.08931 -114.133983 148.806399 -97.681418 156.797064 -75.993946 C 164.787729 -54.306474 170.599122 -30.37547 172.778394 -2.705248 L 172.778394 9.260254 L 172.05197 7.764567 C 170.599122 7.016723 169.146273 7.016723 166.967001 6.268879 C 164.787729 5.521035 163.334881 4.025347 161.155609 3.277503 C 158.976336 1.781816 156.07064 1.033972 151.712095 1.033972 C 148.079975 1.033972 143.72143 1.033972 140.08931 0.286128 C 121.928708 0.286128 107.400226 5.521035 95.777441 16.738693 Z M 78.343263 34.686945 "
     transform="matrix(0.00537737, 0, 0, -0.00522335, 51.410751, 106.89212)"
     id="path66" />
  <path
     fill-rule="nonzero"
     fill="rgb(0%, 0%, 0%)"
     fill-opacity="1"
     stroke-width="22.315748"
     stroke-linecap="butt"
     stroke-linejoin="miter"
     stroke="rgb(0%, 0%, 0%)"
     stroke-opacity="0.0667"
     stroke-miterlimit="4"
     d="M 20.827574 286.710326 C 20.827574 296.432296 25.912543 312.137017 36.08248 335.320177 C 46.252417 357.755493 62.233747 381.686496 84.02647 406.365344 C 105.819192 430.296347 130.517611 443.009693 158.121727 442.261849 C 184.999418 442.261849 207.518565 434.035566 224.226319 419.078689 C 240.934073 403.373968 249.651162 382.43434 249.651162 354.764117 C 248.924738 342.050772 247.471889 335.320177 246.745465 333.824489 C 246.745465 332.328801 241.660497 316.62408 230.764135 288.206014 C 220.594198 259.040103 208.971413 226.882817 198.075051 190.986312 C 186.452266 155.089807 181.367297 126.67174 182.093722 104.984268 C 182.093722 76.566202 186.452266 56.374417 195.895779 45.156759 C 205.339292 33.939102 219.14135 27.956351 238.028376 27.208507 C 253.283282 27.208507 267.811764 30.947726 280.887397 37.678321 C 294.689455 45.156759 304.859392 52.635198 312.123633 60.861481 C 319.387874 69.087763 328.104963 80.305421 339.001324 93.76661 C 339.001324 94.514454 340.454173 101.245049 344.086293 113.958395 C 346.991989 126.67174 352.076958 146.11568 357.888351 173.038059 C 363.699743 199.960438 370.23756 224.639286 376.775377 247.074601 C 402.20022 347.285679 416.002278 399.634749 418.907974 404.121812 C 427.625063 422.070065 442.153545 431.044191 461.766995 431.044191 C 470.484084 431.044191 477.748325 428.800659 482.833294 424.313596 C 488.644686 419.078689 492.276807 415.33947 493.729655 412.348094 C 495.908927 408.608875 496.635351 405.6175 495.908927 402.626124 C 495.908927 394.399842 479.927597 324.102519 447.238513 193.229844 C 414.549429 61.609324 395.662403 -10.183686 391.303859 -22.897032 C 372.416832 -78.237477 339.727748 -122.360265 293.963031 -155.265395 C 248.198313 -187.422681 201.707172 -204.62309 155.942454 -205.370933 C 126.159067 -205.370933 100.0078 -197.892495 76.762229 -182.935618 C 54.243082 -167.97874 43.346721 -146.291269 43.346721 -117.125358 C 43.346721 -102.168481 45.525993 -90.202979 49.884538 -79.733165 C 54.969506 -70.011195 60.780899 -62.532756 68.771564 -58.045693 C 76.762229 -53.55863 84.02647 -49.819411 89.111438 -48.323723 C 94.196407 -46.080191 100.0078 -45.332348 105.819192 -45.332348 C 135.60258 -45.332348 150.131062 -58.793537 150.131062 -87.211604 C 150.131062 -100.672793 145.772517 -111.890451 137.781852 -122.360265 C 129.791187 -132.082235 122.526946 -138.81283 115.262706 -141.804205 C 107.998465 -145.543425 103.63992 -147.039112 102.187072 -147.039112 L 99.281376 -147.786956 C 100.0078 -151.526176 106.545617 -155.265395 118.168402 -159.752458 C 129.064763 -164.987365 140.687549 -167.230897 152.310334 -167.230897 L 160.300999 -167.230897 C 171.19736 -167.230897 179.914449 -166.483053 185.725842 -164.987365 C 208.244989 -159.004614 228.584863 -146.291269 246.745465 -126.847328 C 265.632492 -107.403388 280.160973 -87.211604 290.330911 -64.776288 C 299.774424 -43.088816 307.765089 -24.392719 312.850057 -8.687998 C 318.66145 6.268879 320.840722 15.990849 320.840722 21.225756 L 315.02933 16.738693 C 310.670785 14.495161 304.859392 10.755942 296.142303 6.268879 C 287.425214 1.033972 278.708125 -2.705248 269.991036 -5.696623 C 256.915403 -9.435842 243.839769 -10.93153 230.764135 -10.93153 C 200.254324 -10.93153 173.376633 -3.453091 150.131062 10.755942 C 126.885491 25.712819 111.630585 49.643823 103.63992 81.801109 C 103.63992 87.036016 102.913496 96.757986 102.913496 113.210551 C 102.913496 151.350587 114.536281 200.708282 137.781852 262.031479 C 161.027423 323.354675 172.650208 362.242556 172.650208 378.695121 C 172.650208 379.442965 172.650208 380.190808 172.650208 380.938652 C 172.650208 386.921403 172.650208 390.660622 172.650208 392.904154 C 172.650208 395.147686 171.923784 397.391217 169.018088 399.634749 C 166.112392 402.626124 162.480271 404.121812 158.121727 404.121812 L 153.763182 404.121812 C 138.508276 404.121812 124.706219 397.391217 112.357009 384.677872 C 99.281376 371.964526 89.111438 358.503337 81.847198 344.294303 C 74.582957 329.337426 68.771564 315.128393 65.139444 301.667203 C 60.780899 288.953858 58.601627 281.475419 57.148779 279.979731 C 55.69593 278.484044 50.610962 277.7362 41.167449 277.7362 L 26.638967 277.7362 C 23.006847 282.223263 20.827574 285.214638 20.827574 286.710326 Z M 20.827574 286.710326 "
     transform="matrix(0.00537737, 0, 0, -0.00522335, 53.802065, 106.89212)"
     id="path68" />
  <path
     fill-rule="nonzero"
     fill="rgb(0%, 0%, 0%)"
     fill-opacity="1"
     stroke-width="22.315748"
     stroke-linecap="butt"
     stroke-linejoin="miter"
     stroke="rgb(0%, 0%, 0%)"
     stroke-opacity="0.0667"
     stroke-miterlimit="4"
     d="M 77.825111 34.686945 C 77.825111 34.686945 77.825111 43.661072 77.825111 60.113637 C 77.825111 76.566202 83.636504 90.775235 93.806441 102.740737 C 104.702802 114.706238 119.231284 120.688989 136.665462 120.688989 C 155.552489 120.688989 172.260243 112.462707 186.788724 96.010142 C 201.317206 79.557577 209.307871 49.643823 210.034295 7.764567 C 210.034295 -15.418593 207.128599 -37.853909 201.317206 -60.289225 C 194.779389 -81.976697 188.241572 -100.672793 180.250908 -117.125358 C 172.260243 -132.830079 163.543154 -147.039112 154.09964 -158.25677 C 144.656127 -169.474428 136.665462 -178.448554 130.127646 -185.179149 C 123.589829 -191.909744 119.231284 -194.901119 117.052012 -194.153276 C 114.146316 -194.153276 109.787771 -191.1619 103.976378 -185.179149 C 98.164986 -179.196398 95.259289 -174.709335 95.259289 -171.71796 C 95.259289 -169.474428 98.89141 -164.239521 106.155651 -156.013239 C 113.419892 -147.786956 121.410556 -138.064986 130.85407 -126.099484 C 140.297583 -114.133983 149.014672 -97.681418 157.005337 -75.993946 C 164.996002 -54.306474 170.08097 -30.37547 172.986667 -2.705248 L 172.986667 9.260254 L 172.260243 7.764567 C 170.807394 7.016723 169.354546 7.016723 167.175274 6.268879 C 164.996002 5.521035 162.816729 4.025347 160.637457 3.277503 C 159.184609 1.781816 156.278913 1.033972 151.920368 1.033972 C 148.288248 1.033972 143.929703 1.033972 140.297583 0.286128 C 122.136981 0.286128 107.608499 5.521035 95.985713 16.738693 Z M 77.825111 34.686945 "
     transform="matrix(0.00537737, 0, 0, -0.00522335, 56.436974, 106.89212)"
     id="path70" />
  <path
     fill-rule="nonzero"
     fill="rgb(0%, 0%, 0%)"
     fill-opacity="1"
     stroke-width="22.315748"
     stroke-linecap="butt"
     stroke-linejoin="miter"
     stroke="rgb(0%, 0%, 0%)"
     stroke-opacity="0.0667"
     stroke-miterlimit="4"
     d="M 347.29979 338.311552 C 340.035549 338.311552 322.601371 341.302928 294.270832 348.781366 C 265.213868 356.259805 244.14757 359.999024 231.071936 359.999024 C 217.996303 359.999024 206.373517 358.503337 196.930004 356.259805 C 187.486491 353.26843 180.22225 350.277054 173.684434 345.789991 C 167.873041 342.050772 164.24092 338.311552 162.061648 335.320177 C 159.882376 331.580958 157.703104 327.841738 154.797407 324.102519 L 153.344559 320.3633 C 151.165287 318.119768 146.080318 317.371924 138.089653 317.371924 C 124.287596 317.371924 117.023355 319.615456 117.023355 324.850363 C 117.023355 328.589582 117.749779 333.076645 119.929051 339.059396 C 128.64614 365.233931 143.174622 387.669247 162.788072 406.365344 C 183.127947 424.313596 204.920669 436.279098 228.892664 440.018317 C 236.883329 441.514005 242.694722 442.261849 246.326842 442.261849 C 262.308172 442.261849 277.563078 436.279098 290.638712 425.06144 C 304.440769 413.843782 316.789979 402.626124 329.139188 392.15631 C 340.761974 381.686496 353.837607 375.703745 366.913241 374.955901 C 381.441722 374.955901 395.970204 386.173559 411.22511 407.861031 C 425.753592 430.296347 433.017833 440.766161 433.744257 440.766161 C 434.470681 441.514005 439.555649 442.261849 448.999163 442.261849 L 462.074796 442.261849 C 465.706917 437.774786 467.886189 435.531254 467.886189 434.035566 C 467.886189 431.044191 466.433341 426.557128 462.80122 419.826533 C 459.895524 413.095938 454.810555 406.365344 448.999163 398.886905 C 443.18777 391.408466 437.376377 384.677872 432.291409 377.199433 C 426.480016 369.720994 422.121471 362.9904 417.762927 357.755493 L 411.22511 348.781366 C 382.168147 315.128393 337.129853 270.257761 274.657382 214.169472 C 212.911334 158.081182 174.410858 122.184677 159.882376 105.732112 L 148.25959 93.76661 L 162.788072 93.018766 C 177.316554 93.018766 199.109277 89.279547 226.713392 81.801109 C 255.043931 74.32267 276.11023 71.331295 289.912287 71.331295 C 315.337131 71.331295 338.582701 77.314045 359.649 90.027391 C 381.441722 102.740737 395.24378 119.193302 401.781597 140.13293 C 404.687293 146.11568 406.866565 149.8549 409.045838 151.350587 C 411.22511 152.098431 416.310079 152.846275 424.300744 152.846275 C 436.649953 152.846275 443.18777 149.8549 443.18777 143.124305 C 443.18777 139.385086 442.461346 136.39371 441.734922 134.150179 C 430.83856 93.018766 408.319414 58.617949 376.356754 30.947726 C 343.66767 4.025347 310.978586 -10.183686 278.289502 -10.93153 C 260.855324 -10.93153 245.600418 -5.696623 231.79836 6.268879 C 218.722727 17.486537 205.647093 28.704195 193.297884 39.921852 C 180.22225 51.13951 167.873041 57.122261 154.797407 57.122261 C 125.740444 57.122261 99.589177 36.930477 76.343606 -2.705248 C 71.985061 -8.687998 66.173669 -10.93153 58.909428 -10.93153 L 40.748826 -10.93153 C 37.116705 -7.192311 34.937433 -4.200935 34.937433 -1.957404 C 34.937433 7.764567 54.550883 36.930477 93.05136 84.04464 C 119.202627 113.958395 162.788072 157.333338 225.260544 214.169472 C 287.006591 271.005605 325.507068 306.90211 340.035549 321.858987 C 348.026214 332.328801 350.205487 338.311552 347.29979 338.311552 Z M 347.29979 338.311552 "
     transform="matrix(0.00537737, 0, 0, -0.00522335, 58.827754, 106.89212)"
     id="path72" />
  <path
     fill-rule="nonzero"
     fill="rgb(0%, 0%, 0%)"
     fill-opacity="1"
     stroke-width="22.315748"
     stroke-linecap="butt"
     stroke-linejoin="miter"
     stroke="rgb(0%, 0%, 0%)"
     stroke-opacity="0.0667"
     stroke-miterlimit="4"
     d="M 60.274223 748.877831 L 63.906343 750.373519 C 67.538463 750.373519 70.44416 750.373519 74.07628 750.373519 L 85.699066 750.373519 L 114.029605 725.694671 C 176.502076 669.606382 222.266794 598.561215 251.323757 514.054859 C 279.654297 429.548503 294.182779 341.302928 294.182779 250.065977 C 294.182779 204.447502 290.550658 161.072558 284.012841 119.193302 C 277.475025 77.314045 269.48436 41.41754 260.767271 12.25163 C 252.050181 -17.662125 239.700972 -46.828035 223.719642 -75.993946 C 207.738312 -105.159856 195.389103 -127.595172 185.94559 -143.299893 C 176.502076 -158.25677 162.700019 -175.457179 145.265841 -194.153276 C 127.105239 -212.849372 116.208877 -223.319186 113.303181 -227.058405 C 109.67106 -230.049781 101.680395 -236.780375 90.05761 -245.754502 C 87.878338 -247.998033 86.42549 -249.493721 85.699066 -250.241565 L 74.07628 -250.241565 C 68.991312 -250.241565 65.359191 -250.241565 63.179919 -250.241565 C 61.000647 -250.241565 59.547798 -248.745877 58.09495 -247.25019 C 56.642102 -245.006658 55.915678 -242.015283 55.189254 -238.276063 C 55.915678 -237.528219 59.547798 -233.041156 66.085615 -224.814874 C 169.237836 -117.873202 220.813946 40.669696 220.813946 250.065977 C 220.813946 459.462258 169.237836 618.005156 66.085615 724.946828 C 59.547798 733.17311 55.915678 737.660173 55.189254 737.660173 C 55.189254 743.642924 56.642102 746.6343 60.274223 748.877831 Z M 60.274223 748.877831 "
     transform="matrix(0.00537737, 0, 0, -0.00522335, 61.328227, 106.89212)"
     id="path74" />
  <path
     fill-rule="nonzero"
     fill="rgb(0%, 0%, 0%)"
     fill-opacity="1"
     stroke-width="14.795224"
     stroke-linecap="butt"
     stroke-linejoin="miter"
     stroke="rgb(0%, 0%, 0%)"
     stroke-opacity="0.0941"
     stroke-miterlimit="4"
     d="M 31.952223 442.078678 L 122.827602 445.931601 C 183.597027 448.821293 214.260498 449.784524 214.818016 449.784524 L 220.95071 449.784524 L 220.95071 408.847217 C 221.508228 408.847217 224.295816 410.292063 228.755957 413.181755 C 233.773616 415.589832 241.021346 418.96114 251.056664 422.814063 C 261.091982 427.148601 272.242335 431.48314 283.950206 435.817678 C 296.215594 440.633832 310.711053 444.005139 327.994101 445.931601 C 345.277148 447.858063 363.117713 449.302909 382.073314 449.784524 C 447.30288 449.784524 500.267058 429.556678 539.850812 388.137756 C 579.992083 346.718833 600.062719 291.814681 600.062719 222.943682 C 600.062719 159.852067 579.434566 105.42953 538.735776 61.120915 C 498.594505 16.330685 438.940115 -5.823622 360.887643 -5.823622 L 354.197431 -5.823622 C 312.941124 -5.823622 273.35737 5.253532 236.003687 27.889454 L 227.083404 34.150454 L 227.083404 -132.006851 L 296.215594 -132.006851 L 296.215594 -194.135234 L 286.737794 -194.135234 C 275.029923 -192.208773 233.773616 -190.763927 162.968873 -190.763927 C 91.606613 -190.763927 49.792788 -192.208773 38.084917 -194.135234 L 29.164635 -194.135234 L 29.164635 -132.006851 L 97.739307 -132.006851 L 97.739307 284.108835 C 97.739307 314.450603 97.739307 336.123295 97.181789 348.16368 C 96.066754 360.204064 94.951719 367.428295 92.721648 369.836372 C 91.049095 372.726064 87.703989 374.652525 83.243848 376.097371 C 73.766048 378.505448 59.828106 379.950294 41.987541 379.950294 L 29.164635 379.950294 L 29.164635 442.078678 Z M 456.78068 223.906912 C 456.78068 276.884604 446.745362 318.303526 427.232244 349.12691 C 407.161609 379.468679 381.515796 394.880371 349.73729 394.880371 C 304.578359 394.880371 266.10964 380.43191 234.888652 352.016603 L 227.083404 344.792372 L 227.083404 103.984684 L 233.216099 96.760453 C 260.534464 62.565761 295.100559 45.227608 336.914383 45.227608 C 367.577855 45.227608 395.453738 58.712838 419.984515 86.164915 C 444.515292 113.135376 456.78068 159.370452 456.78068 223.906912 Z M 456.78068 223.906912 "
     transform="matrix(0.0070065, 0, 0, -0.00811073, 79.096439, 49.16761)"
     id="path76" />
</svg>
